  0
SECTION
  2
HEADER
  9
$ANGBASE
  50
0.0
  9
$ANGDIR
  70
1
  9
$MEASUREMENT
  70
1
  0
ENDSEC
  0
SECTION
  2
TABLES
  0
TABLE
  2
LTYPE
  70
4
  0
LTYPE
  5
40F
  2
CONTINUOUS
  70
0
  3
Solid line
  72
65
  73
0
  40
0.0
  0
LTYPE
  5
410
  2
DASHDOT
 70
0
  3
Dash Dot ____ _ ____ _
 72
65
 73
4
 40
2.0
 49
1.25
 49
-0.25
 49
0.25
 49
-0.25
  0
LTYPE
  5
411
  2
DASHED
 70
0
  3
Dashed __ __ __ __ __
 72
65
 73
2
 40
0.75
 49
0.5
 49
-0.25
  0
LTYPE
  5
43B
  2
DOTTED
 70
0
  3
Dotted .  .  .  .
 72
65
 73
2
 40
0.2
 49
0.0
 49
-0.2
  0
ENDTAB
  0
TABLE
  2
STYLE
  70
4
  0
STYLE
  2
KICAD
  70
0
  40
0
  41
1
  42
1
  50
0
  71
0
  3
isocp.shx
  0
STYLE
  2
KICADB
  70
0
  40
0
  41
1
  42
1
  50
0
  71
0
  3
isocp.shx
  0
STYLE
  2
KICADI
  70
0
  40
0
  41
1
  42
1
  50
15
  71
0
  3
isocp.shx
  0
STYLE
  2
KICADBI
  70
0
  40
0
  41
1
  42
1
  50
15
  71
0
  3
isocp.shx
  0
ENDTAB
  0
TABLE
  2
LAYER
  70
1
  0
LAYER
  2
BLACK
  70
0
  62
7
  6
CONTINUOUS
  0
ENDTAB
  0
ENDSEC
  0
SECTION
  2
ENTITIES
0
LINE
8
BLACK
6
CONTINUOUS
10
136.346
20
-107.683
11
136.374
21
-107.691
0
LINE
8
BLACK
6
CONTINUOUS
10
136.374
20
-107.691
11
136.399
21
-107.705
0
LINE
8
BLACK
6
CONTINUOUS
10
136.399
20
-107.705
11
136.422
21
-107.723
0
LINE
8
BLACK
6
CONTINUOUS
10
136.422
20
-107.723
11
136.44
21
-107.746
0
LINE
8
BLACK
6
CONTINUOUS
10
136.44
20
-107.746
11
136.454
21
-107.771
0
LINE
8
BLACK
6
CONTINUOUS
10
136.454
20
-107.771
11
136.462
21
-107.799
0
LINE
8
BLACK
6
CONTINUOUS
10
136.462
20
-107.799
11
136.465
21
-107.828
0
LINE
8
BLACK
6
CONTINUOUS
10
136.465
20
-107.828
11
136.465
21
-108.172
0
LINE
8
BLACK
6
CONTINUOUS
10
136.465
20
-108.172
11
136.462
21
-108.201
0
LINE
8
BLACK
6
CONTINUOUS
10
136.462
20
-108.201
11
136.454
21
-108.229
0
LINE
8
BLACK
6
CONTINUOUS
10
136.454
20
-108.229
11
136.44
21
-108.254
0
LINE
8
BLACK
6
CONTINUOUS
10
136.44
20
-108.254
11
136.422
21
-108.277
0
LINE
8
BLACK
6
CONTINUOUS
10
136.422
20
-108.277
11
136.399
21
-108.295
0
LINE
8
BLACK
6
CONTINUOUS
10
136.399
20
-108.295
11
136.374
21
-108.309
0
LINE
8
BLACK
6
CONTINUOUS
10
136.374
20
-108.309
11
136.346
21
-108.317
0
LINE
8
BLACK
6
CONTINUOUS
10
136.346
20
-108.317
11
136.317
21
-108.32
0
LINE
8
BLACK
6
CONTINUOUS
10
136.317
20
-108.32
11
136.023
21
-108.32
0
LINE
8
BLACK
6
CONTINUOUS
10
136.023
20
-108.32
11
135.994
21
-108.317
0
LINE
8
BLACK
6
CONTINUOUS
10
135.994
20
-108.317
11
135.966
21
-108.309
0
LINE
8
BLACK
6
CONTINUOUS
10
135.966
20
-108.309
11
135.941
21
-108.295
0
LINE
8
BLACK
6
CONTINUOUS
10
135.941
20
-108.295
11
135.918
21
-108.277
0
LINE
8
BLACK
6
CONTINUOUS
10
135.918
20
-108.277
11
135.9
21
-108.254
0
LINE
8
BLACK
6
CONTINUOUS
10
135.9
20
-108.254
11
135.886
21
-108.229
0
LINE
8
BLACK
6
CONTINUOUS
10
135.886
20
-108.229
11
135.878
21
-108.201
0
LINE
8
BLACK
6
CONTINUOUS
10
135.878
20
-108.201
11
135.875
21
-108.172
0
LINE
8
BLACK
6
CONTINUOUS
10
135.875
20
-108.172
11
135.875
21
-107.828
0
LINE
8
BLACK
6
CONTINUOUS
10
135.875
20
-107.828
11
135.878
21
-107.799
0
LINE
8
BLACK
6
CONTINUOUS
10
135.878
20
-107.799
11
135.886
21
-107.771
0
LINE
8
BLACK
6
CONTINUOUS
10
135.886
20
-107.771
11
135.9
21
-107.746
0
LINE
8
BLACK
6
CONTINUOUS
10
135.9
20
-107.746
11
135.918
21
-107.723
0
LINE
8
BLACK
6
CONTINUOUS
10
135.918
20
-107.723
11
135.941
21
-107.705
0
LINE
8
BLACK
6
CONTINUOUS
10
135.941
20
-107.705
11
135.966
21
-107.691
0
LINE
8
BLACK
6
CONTINUOUS
10
135.966
20
-107.691
11
135.994
21
-107.683
0
LINE
8
BLACK
6
CONTINUOUS
10
135.994
20
-107.683
11
136.023
21
-107.68
0
LINE
8
BLACK
6
CONTINUOUS
10
136.023
20
-107.68
11
136.317
21
-107.68
0
LINE
8
BLACK
6
CONTINUOUS
10
136.317
20
-107.68
11
136.346
21
-107.683
0
LINE
8
BLACK
6
CONTINUOUS
10
135.376
20
-107.683
11
135.404
21
-107.691
0
LINE
8
BLACK
6
CONTINUOUS
10
135.404
20
-107.691
11
135.429
21
-107.705
0
LINE
8
BLACK
6
CONTINUOUS
10
135.429
20
-107.705
11
135.452
21
-107.723
0
LINE
8
BLACK
6
CONTINUOUS
10
135.452
20
-107.723
11
135.47
21
-107.746
0
LINE
8
BLACK
6
CONTINUOUS
10
135.47
20
-107.746
11
135.484
21
-107.771
0
LINE
8
BLACK
6
CONTINUOUS
10
135.484
20
-107.771
11
135.492
21
-107.799
0
LINE
8
BLACK
6
CONTINUOUS
10
135.492
20
-107.799
11
135.495
21
-107.828
0
LINE
8
BLACK
6
CONTINUOUS
10
135.495
20
-107.828
11
135.495
21
-108.172
0
LINE
8
BLACK
6
CONTINUOUS
10
135.495
20
-108.172
11
135.492
21
-108.201
0
LINE
8
BLACK
6
CONTINUOUS
10
135.492
20
-108.201
11
135.484
21
-108.229
0
LINE
8
BLACK
6
CONTINUOUS
10
135.484
20
-108.229
11
135.47
21
-108.254
0
LINE
8
BLACK
6
CONTINUOUS
10
135.47
20
-108.254
11
135.452
21
-108.277
0
LINE
8
BLACK
6
CONTINUOUS
10
135.452
20
-108.277
11
135.429
21
-108.295
0
LINE
8
BLACK
6
CONTINUOUS
10
135.429
20
-108.295
11
135.404
21
-108.309
0
LINE
8
BLACK
6
CONTINUOUS
10
135.404
20
-108.309
11
135.376
21
-108.317
0
LINE
8
BLACK
6
CONTINUOUS
10
135.376
20
-108.317
11
135.347
21
-108.32
0
LINE
8
BLACK
6
CONTINUOUS
10
135.347
20
-108.32
11
135.052
21
-108.32
0
LINE
8
BLACK
6
CONTINUOUS
10
135.052
20
-108.32
11
135.024
21
-108.317
0
LINE
8
BLACK
6
CONTINUOUS
10
135.024
20
-108.317
11
134.996
21
-108.309
0
LINE
8
BLACK
6
CONTINUOUS
10
134.996
20
-108.309
11
134.971
21
-108.295
0
LINE
8
BLACK
6
CONTINUOUS
10
134.971
20
-108.295
11
134.948
21
-108.277
0
LINE
8
BLACK
6
CONTINUOUS
10
134.948
20
-108.277
11
134.93
21
-108.254
0
LINE
8
BLACK
6
CONTINUOUS
10
134.93
20
-108.254
11
134.916
21
-108.229
0
LINE
8
BLACK
6
CONTINUOUS
10
134.916
20
-108.229
11
134.908
21
-108.201
0
LINE
8
BLACK
6
CONTINUOUS
10
134.908
20
-108.201
11
134.905
21
-108.172
0
LINE
8
BLACK
6
CONTINUOUS
10
134.905
20
-108.172
11
134.905
21
-107.828
0
LINE
8
BLACK
6
CONTINUOUS
10
134.905
20
-107.828
11
134.908
21
-107.799
0
LINE
8
BLACK
6
CONTINUOUS
10
134.908
20
-107.799
11
134.916
21
-107.771
0
LINE
8
BLACK
6
CONTINUOUS
10
134.916
20
-107.771
11
134.93
21
-107.746
0
LINE
8
BLACK
6
CONTINUOUS
10
134.93
20
-107.746
11
134.948
21
-107.723
0
LINE
8
BLACK
6
CONTINUOUS
10
134.948
20
-107.723
11
134.971
21
-107.705
0
LINE
8
BLACK
6
CONTINUOUS
10
134.971
20
-107.705
11
134.996
21
-107.691
0
LINE
8
BLACK
6
CONTINUOUS
10
134.996
20
-107.691
11
135.024
21
-107.683
0
LINE
8
BLACK
6
CONTINUOUS
10
135.024
20
-107.683
11
135.052
21
-107.68
0
LINE
8
BLACK
6
CONTINUOUS
10
135.052
20
-107.68
11
135.347
21
-107.68
0
LINE
8
BLACK
6
CONTINUOUS
10
135.347
20
-107.68
11
135.376
21
-107.683
0
LINE
8
BLACK
6
CONTINUOUS
10
170.561
20
-94.5828
11
170.589
21
-94.5912
0
LINE
8
BLACK
6
CONTINUOUS
10
170.589
20
-94.5912
11
170.614
21
-94.6049
0
LINE
8
BLACK
6
CONTINUOUS
10
170.614
20
-94.6049
11
170.637
21
-94.6232
0
LINE
8
BLACK
6
CONTINUOUS
10
170.637
20
-94.6232
11
170.655
21
-94.6456
0
LINE
8
BLACK
6
CONTINUOUS
10
170.655
20
-94.6456
11
170.669
21
-94.6711
0
LINE
8
BLACK
6
CONTINUOUS
10
170.669
20
-94.6711
11
170.677
21
-94.6987
0
LINE
8
BLACK
6
CONTINUOUS
10
170.677
20
-94.6987
11
170.68
21
-94.7275
0
LINE
8
BLACK
6
CONTINUOUS
10
170.68
20
-94.7275
11
170.68
21
-95.0725
0
LINE
8
BLACK
6
CONTINUOUS
10
170.68
20
-95.0725
11
170.677
21
-95.1013
0
LINE
8
BLACK
6
CONTINUOUS
10
170.677
20
-95.1013
11
170.669
21
-95.1289
0
LINE
8
BLACK
6
CONTINUOUS
10
170.669
20
-95.1289
11
170.655
21
-95.1544
0
LINE
8
BLACK
6
CONTINUOUS
10
170.655
20
-95.1544
11
170.637
21
-95.1768
0
LINE
8
BLACK
6
CONTINUOUS
10
170.637
20
-95.1768
11
170.614
21
-95.1951
0
LINE
8
BLACK
6
CONTINUOUS
10
170.614
20
-95.1951
11
170.589
21
-95.2088
0
LINE
8
BLACK
6
CONTINUOUS
10
170.589
20
-95.2088
11
170.561
21
-95.2172
0
LINE
8
BLACK
6
CONTINUOUS
10
170.561
20
-95.2172
11
170.532
21
-95.22
0
LINE
8
BLACK
6
CONTINUOUS
10
170.532
20
-95.22
11
170.237
21
-95.22
0
LINE
8
BLACK
6
CONTINUOUS
10
170.237
20
-95.22
11
170.209
21
-95.2172
0
LINE
8
BLACK
6
CONTINUOUS
10
170.209
20
-95.2172
11
170.181
21
-95.2088
0
LINE
8
BLACK
6
CONTINUOUS
10
170.181
20
-95.2088
11
170.156
21
-95.1951
0
LINE
8
BLACK
6
CONTINUOUS
10
170.156
20
-95.1951
11
170.133
21
-95.1768
0
LINE
8
BLACK
6
CONTINUOUS
10
170.133
20
-95.1768
11
170.115
21
-95.1544
0
LINE
8
BLACK
6
CONTINUOUS
10
170.115
20
-95.1544
11
170.101
21
-95.1289
0
LINE
8
BLACK
6
CONTINUOUS
10
170.101
20
-95.1289
11
170.093
21
-95.1013
0
LINE
8
BLACK
6
CONTINUOUS
10
170.093
20
-95.1013
11
170.09
21
-95.0725
0
LINE
8
BLACK
6
CONTINUOUS
10
170.09
20
-95.0725
11
170.09
21
-94.7275
0
LINE
8
BLACK
6
CONTINUOUS
10
170.09
20
-94.7275
11
170.093
21
-94.6987
0
LINE
8
BLACK
6
CONTINUOUS
10
170.093
20
-94.6987
11
170.101
21
-94.6711
0
LINE
8
BLACK
6
CONTINUOUS
10
170.101
20
-94.6711
11
170.115
21
-94.6456
0
LINE
8
BLACK
6
CONTINUOUS
10
170.115
20
-94.6456
11
170.133
21
-94.6232
0
LINE
8
BLACK
6
CONTINUOUS
10
170.133
20
-94.6232
11
170.156
21
-94.6049
0
LINE
8
BLACK
6
CONTINUOUS
10
170.156
20
-94.6049
11
170.181
21
-94.5912
0
LINE
8
BLACK
6
CONTINUOUS
10
170.181
20
-94.5912
11
170.209
21
-94.5828
0
LINE
8
BLACK
6
CONTINUOUS
10
170.209
20
-94.5828
11
170.237
21
-94.58
0
LINE
8
BLACK
6
CONTINUOUS
10
170.237
20
-94.58
11
170.532
21
-94.58
0
LINE
8
BLACK
6
CONTINUOUS
10
170.532
20
-94.58
11
170.561
21
-94.5828
0
LINE
8
BLACK
6
CONTINUOUS
10
169.591
20
-94.5828
11
169.619
21
-94.5912
0
LINE
8
BLACK
6
CONTINUOUS
10
169.619
20
-94.5912
11
169.644
21
-94.6049
0
LINE
8
BLACK
6
CONTINUOUS
10
169.644
20
-94.6049
11
169.667
21
-94.6232
0
LINE
8
BLACK
6
CONTINUOUS
10
169.667
20
-94.6232
11
169.685
21
-94.6456
0
LINE
8
BLACK
6
CONTINUOUS
10
169.685
20
-94.6456
11
169.699
21
-94.6711
0
LINE
8
BLACK
6
CONTINUOUS
10
169.699
20
-94.6711
11
169.707
21
-94.6987
0
LINE
8
BLACK
6
CONTINUOUS
10
169.707
20
-94.6987
11
169.71
21
-94.7275
0
LINE
8
BLACK
6
CONTINUOUS
10
169.71
20
-94.7275
11
169.71
21
-95.0725
0
LINE
8
BLACK
6
CONTINUOUS
10
169.71
20
-95.0725
11
169.707
21
-95.1013
0
LINE
8
BLACK
6
CONTINUOUS
10
169.707
20
-95.1013
11
169.699
21
-95.1289
0
LINE
8
BLACK
6
CONTINUOUS
10
169.699
20
-95.1289
11
169.685
21
-95.1544
0
LINE
8
BLACK
6
CONTINUOUS
10
169.685
20
-95.1544
11
169.667
21
-95.1768
0
LINE
8
BLACK
6
CONTINUOUS
10
169.667
20
-95.1768
11
169.644
21
-95.1951
0
LINE
8
BLACK
6
CONTINUOUS
10
169.644
20
-95.1951
11
169.619
21
-95.2088
0
LINE
8
BLACK
6
CONTINUOUS
10
169.619
20
-95.2088
11
169.591
21
-95.2172
0
LINE
8
BLACK
6
CONTINUOUS
10
169.591
20
-95.2172
11
169.562
21
-95.22
0
LINE
8
BLACK
6
CONTINUOUS
10
169.562
20
-95.22
11
169.267
21
-95.22
0
LINE
8
BLACK
6
CONTINUOUS
10
169.267
20
-95.22
11
169.239
21
-95.2172
0
LINE
8
BLACK
6
CONTINUOUS
10
169.239
20
-95.2172
11
169.211
21
-95.2088
0
LINE
8
BLACK
6
CONTINUOUS
10
169.211
20
-95.2088
11
169.186
21
-95.1951
0
LINE
8
BLACK
6
CONTINUOUS
10
169.186
20
-95.1951
11
169.163
21
-95.1768
0
LINE
8
BLACK
6
CONTINUOUS
10
169.163
20
-95.1768
11
169.145
21
-95.1544
0
LINE
8
BLACK
6
CONTINUOUS
10
169.145
20
-95.1544
11
169.131
21
-95.1289
0
LINE
8
BLACK
6
CONTINUOUS
10
169.131
20
-95.1289
11
169.123
21
-95.1013
0
LINE
8
BLACK
6
CONTINUOUS
10
169.123
20
-95.1013
11
169.12
21
-95.0725
0
LINE
8
BLACK
6
CONTINUOUS
10
169.12
20
-95.0725
11
169.12
21
-94.7275
0
LINE
8
BLACK
6
CONTINUOUS
10
169.12
20
-94.7275
11
169.123
21
-94.6987
0
LINE
8
BLACK
6
CONTINUOUS
10
169.123
20
-94.6987
11
169.131
21
-94.6711
0
LINE
8
BLACK
6
CONTINUOUS
10
169.131
20
-94.6711
11
169.145
21
-94.6456
0
LINE
8
BLACK
6
CONTINUOUS
10
169.145
20
-94.6456
11
169.163
21
-94.6232
0
LINE
8
BLACK
6
CONTINUOUS
10
169.163
20
-94.6232
11
169.186
21
-94.6049
0
LINE
8
BLACK
6
CONTINUOUS
10
169.186
20
-94.6049
11
169.211
21
-94.5912
0
LINE
8
BLACK
6
CONTINUOUS
10
169.211
20
-94.5912
11
169.239
21
-94.5828
0
LINE
8
BLACK
6
CONTINUOUS
10
169.239
20
-94.5828
11
169.267
21
-94.58
0
LINE
8
BLACK
6
CONTINUOUS
10
169.267
20
-94.58
11
169.562
21
-94.58
0
LINE
8
BLACK
6
CONTINUOUS
10
169.562
20
-94.58
11
169.591
21
-94.5828
0
LINE
8
BLACK
6
CONTINUOUS
10
173.801
20
-94.4928
11
173.829
21
-94.5012
0
LINE
8
BLACK
6
CONTINUOUS
10
173.829
20
-94.5012
11
173.854
21
-94.5149
0
LINE
8
BLACK
6
CONTINUOUS
10
173.854
20
-94.5149
11
173.877
21
-94.5332
0
LINE
8
BLACK
6
CONTINUOUS
10
173.877
20
-94.5332
11
173.895
21
-94.5556
0
LINE
8
BLACK
6
CONTINUOUS
10
173.895
20
-94.5556
11
173.909
21
-94.5811
0
LINE
8
BLACK
6
CONTINUOUS
10
173.909
20
-94.5811
11
173.917
21
-94.6087
0
LINE
8
BLACK
6
CONTINUOUS
10
173.917
20
-94.6087
11
173.92
21
-94.6375
0
LINE
8
BLACK
6
CONTINUOUS
10
173.92
20
-94.6375
11
173.92
21
-94.9325
0
LINE
8
BLACK
6
CONTINUOUS
10
173.92
20
-94.9325
11
173.917
21
-94.9613
0
LINE
8
BLACK
6
CONTINUOUS
10
173.917
20
-94.9613
11
173.909
21
-94.9889
0
LINE
8
BLACK
6
CONTINUOUS
10
173.909
20
-94.9889
11
173.895
21
-95.0144
0
LINE
8
BLACK
6
CONTINUOUS
10
173.895
20
-95.0144
11
173.877
21
-95.0368
0
LINE
8
BLACK
6
CONTINUOUS
10
173.877
20
-95.0368
11
173.854
21
-95.0551
0
LINE
8
BLACK
6
CONTINUOUS
10
173.854
20
-95.0551
11
173.829
21
-95.0688
0
LINE
8
BLACK
6
CONTINUOUS
10
173.829
20
-95.0688
11
173.801
21
-95.0772
0
LINE
8
BLACK
6
CONTINUOUS
10
173.801
20
-95.0772
11
173.772
21
-95.08
0
LINE
8
BLACK
6
CONTINUOUS
10
173.772
20
-95.08
11
173.427
21
-95.08
0
LINE
8
BLACK
6
CONTINUOUS
10
173.427
20
-95.08
11
173.399
21
-95.0772
0
LINE
8
BLACK
6
CONTINUOUS
10
173.399
20
-95.0772
11
173.371
21
-95.0688
0
LINE
8
BLACK
6
CONTINUOUS
10
173.371
20
-95.0688
11
173.346
21
-95.0551
0
LINE
8
BLACK
6
CONTINUOUS
10
173.346
20
-95.0551
11
173.323
21
-95.0368
0
LINE
8
BLACK
6
CONTINUOUS
10
173.323
20
-95.0368
11
173.305
21
-95.0144
0
LINE
8
BLACK
6
CONTINUOUS
10
173.305
20
-95.0144
11
173.291
21
-94.9889
0
LINE
8
BLACK
6
CONTINUOUS
10
173.291
20
-94.9889
11
173.283
21
-94.9613
0
LINE
8
BLACK
6
CONTINUOUS
10
173.283
20
-94.9613
11
173.28
21
-94.9325
0
LINE
8
BLACK
6
CONTINUOUS
10
173.28
20
-94.9325
11
173.28
21
-94.6375
0
LINE
8
BLACK
6
CONTINUOUS
10
173.28
20
-94.6375
11
173.283
21
-94.6087
0
LINE
8
BLACK
6
CONTINUOUS
10
173.283
20
-94.6087
11
173.291
21
-94.5811
0
LINE
8
BLACK
6
CONTINUOUS
10
173.291
20
-94.5811
11
173.305
21
-94.5556
0
LINE
8
BLACK
6
CONTINUOUS
10
173.305
20
-94.5556
11
173.323
21
-94.5332
0
LINE
8
BLACK
6
CONTINUOUS
10
173.323
20
-94.5332
11
173.346
21
-94.5149
0
LINE
8
BLACK
6
CONTINUOUS
10
173.346
20
-94.5149
11
173.371
21
-94.5012
0
LINE
8
BLACK
6
CONTINUOUS
10
173.371
20
-94.5012
11
173.399
21
-94.4928
0
LINE
8
BLACK
6
CONTINUOUS
10
173.399
20
-94.4928
11
173.427
21
-94.49
0
LINE
8
BLACK
6
CONTINUOUS
10
173.427
20
-94.49
11
173.772
21
-94.49
0
LINE
8
BLACK
6
CONTINUOUS
10
173.772
20
-94.49
11
173.801
21
-94.4928
0
LINE
8
BLACK
6
CONTINUOUS
10
171.601
20
-94.4928
11
171.629
21
-94.5012
0
LINE
8
BLACK
6
CONTINUOUS
10
171.629
20
-94.5012
11
171.654
21
-94.5149
0
LINE
8
BLACK
6
CONTINUOUS
10
171.654
20
-94.5149
11
171.677
21
-94.5332
0
LINE
8
BLACK
6
CONTINUOUS
10
171.677
20
-94.5332
11
171.695
21
-94.5556
0
LINE
8
BLACK
6
CONTINUOUS
10
171.695
20
-94.5556
11
171.709
21
-94.5811
0
LINE
8
BLACK
6
CONTINUOUS
10
171.709
20
-94.5811
11
171.717
21
-94.6087
0
LINE
8
BLACK
6
CONTINUOUS
10
171.717
20
-94.6087
11
171.72
21
-94.6375
0
LINE
8
BLACK
6
CONTINUOUS
10
171.72
20
-94.6375
11
171.72
21
-94.9325
0
LINE
8
BLACK
6
CONTINUOUS
10
171.72
20
-94.9325
11
171.717
21
-94.9613
0
LINE
8
BLACK
6
CONTINUOUS
10
171.717
20
-94.9613
11
171.709
21
-94.9889
0
LINE
8
BLACK
6
CONTINUOUS
10
171.709
20
-94.9889
11
171.695
21
-95.0144
0
LINE
8
BLACK
6
CONTINUOUS
10
171.695
20
-95.0144
11
171.677
21
-95.0368
0
LINE
8
BLACK
6
CONTINUOUS
10
171.677
20
-95.0368
11
171.654
21
-95.0551
0
LINE
8
BLACK
6
CONTINUOUS
10
171.654
20
-95.0551
11
171.629
21
-95.0688
0
LINE
8
BLACK
6
CONTINUOUS
10
171.629
20
-95.0688
11
171.601
21
-95.0772
0
LINE
8
BLACK
6
CONTINUOUS
10
171.601
20
-95.0772
11
171.572
21
-95.08
0
LINE
8
BLACK
6
CONTINUOUS
10
171.572
20
-95.08
11
171.227
21
-95.08
0
LINE
8
BLACK
6
CONTINUOUS
10
171.227
20
-95.08
11
171.199
21
-95.0772
0
LINE
8
BLACK
6
CONTINUOUS
10
171.199
20
-95.0772
11
171.171
21
-95.0688
0
LINE
8
BLACK
6
CONTINUOUS
10
171.171
20
-95.0688
11
171.146
21
-95.0551
0
LINE
8
BLACK
6
CONTINUOUS
10
171.146
20
-95.0551
11
171.123
21
-95.0368
0
LINE
8
BLACK
6
CONTINUOUS
10
171.123
20
-95.0368
11
171.105
21
-95.0144
0
LINE
8
BLACK
6
CONTINUOUS
10
171.105
20
-95.0144
11
171.091
21
-94.9889
0
LINE
8
BLACK
6
CONTINUOUS
10
171.091
20
-94.9889
11
171.083
21
-94.9613
0
LINE
8
BLACK
6
CONTINUOUS
10
171.083
20
-94.9613
11
171.08
21
-94.9325
0
LINE
8
BLACK
6
CONTINUOUS
10
171.08
20
-94.9325
11
171.08
21
-94.6375
0
LINE
8
BLACK
6
CONTINUOUS
10
171.08
20
-94.6375
11
171.083
21
-94.6087
0
LINE
8
BLACK
6
CONTINUOUS
10
171.083
20
-94.6087
11
171.091
21
-94.5811
0
LINE
8
BLACK
6
CONTINUOUS
10
171.091
20
-94.5811
11
171.105
21
-94.5556
0
LINE
8
BLACK
6
CONTINUOUS
10
171.105
20
-94.5556
11
171.123
21
-94.5332
0
LINE
8
BLACK
6
CONTINUOUS
10
171.123
20
-94.5332
11
171.146
21
-94.5149
0
LINE
8
BLACK
6
CONTINUOUS
10
171.146
20
-94.5149
11
171.171
21
-94.5012
0
LINE
8
BLACK
6
CONTINUOUS
10
171.171
20
-94.5012
11
171.199
21
-94.4928
0
LINE
8
BLACK
6
CONTINUOUS
10
171.199
20
-94.4928
11
171.227
21
-94.49
0
LINE
8
BLACK
6
CONTINUOUS
10
171.227
20
-94.49
11
171.572
21
-94.49
0
LINE
8
BLACK
6
CONTINUOUS
10
171.572
20
-94.49
11
171.601
21
-94.4928
0
LINE
8
BLACK
6
CONTINUOUS
10
174.876
20
-93.4828
11
174.904
21
-93.4912
0
LINE
8
BLACK
6
CONTINUOUS
10
174.904
20
-93.4912
11
174.929
21
-93.5049
0
LINE
8
BLACK
6
CONTINUOUS
10
174.929
20
-93.5049
11
174.952
21
-93.5232
0
LINE
8
BLACK
6
CONTINUOUS
10
174.952
20
-93.5232
11
174.97
21
-93.5456
0
LINE
8
BLACK
6
CONTINUOUS
10
174.97
20
-93.5456
11
174.984
21
-93.5711
0
LINE
8
BLACK
6
CONTINUOUS
10
174.984
20
-93.5711
11
174.992
21
-93.5987
0
LINE
8
BLACK
6
CONTINUOUS
10
174.992
20
-93.5987
11
174.995
21
-93.6275
0
LINE
8
BLACK
6
CONTINUOUS
10
174.995
20
-93.6275
11
174.995
21
-93.9725
0
LINE
8
BLACK
6
CONTINUOUS
10
174.995
20
-93.9725
11
174.992
21
-94.0013
0
LINE
8
BLACK
6
CONTINUOUS
10
174.992
20
-94.0013
11
174.984
21
-94.0289
0
LINE
8
BLACK
6
CONTINUOUS
10
174.984
20
-94.0289
11
174.97
21
-94.0544
0
LINE
8
BLACK
6
CONTINUOUS
10
174.97
20
-94.0544
11
174.952
21
-94.0768
0
LINE
8
BLACK
6
CONTINUOUS
10
174.952
20
-94.0768
11
174.929
21
-94.0951
0
LINE
8
BLACK
6
CONTINUOUS
10
174.929
20
-94.0951
11
174.904
21
-94.1088
0
LINE
8
BLACK
6
CONTINUOUS
10
174.904
20
-94.1088
11
174.876
21
-94.1172
0
LINE
8
BLACK
6
CONTINUOUS
10
174.876
20
-94.1172
11
174.847
21
-94.12
0
LINE
8
BLACK
6
CONTINUOUS
10
174.847
20
-94.12
11
174.552
21
-94.12
0
LINE
8
BLACK
6
CONTINUOUS
10
174.552
20
-94.12
11
174.524
21
-94.1172
0
LINE
8
BLACK
6
CONTINUOUS
10
174.524
20
-94.1172
11
174.496
21
-94.1088
0
LINE
8
BLACK
6
CONTINUOUS
10
174.496
20
-94.1088
11
174.471
21
-94.0951
0
LINE
8
BLACK
6
CONTINUOUS
10
174.471
20
-94.0951
11
174.448
21
-94.0768
0
LINE
8
BLACK
6
CONTINUOUS
10
174.448
20
-94.0768
11
174.43
21
-94.0544
0
LINE
8
BLACK
6
CONTINUOUS
10
174.43
20
-94.0544
11
174.416
21
-94.0289
0
LINE
8
BLACK
6
CONTINUOUS
10
174.416
20
-94.0289
11
174.408
21
-94.0013
0
LINE
8
BLACK
6
CONTINUOUS
10
174.408
20
-94.0013
11
174.405
21
-93.9725
0
LINE
8
BLACK
6
CONTINUOUS
10
174.405
20
-93.9725
11
174.405
21
-93.6275
0
LINE
8
BLACK
6
CONTINUOUS
10
174.405
20
-93.6275
11
174.408
21
-93.5987
0
LINE
8
BLACK
6
CONTINUOUS
10
174.408
20
-93.5987
11
174.416
21
-93.5711
0
LINE
8
BLACK
6
CONTINUOUS
10
174.416
20
-93.5711
11
174.43
21
-93.5456
0
LINE
8
BLACK
6
CONTINUOUS
10
174.43
20
-93.5456
11
174.448
21
-93.5232
0
LINE
8
BLACK
6
CONTINUOUS
10
174.448
20
-93.5232
11
174.471
21
-93.5049
0
LINE
8
BLACK
6
CONTINUOUS
10
174.471
20
-93.5049
11
174.496
21
-93.4912
0
LINE
8
BLACK
6
CONTINUOUS
10
174.496
20
-93.4912
11
174.524
21
-93.4828
0
LINE
8
BLACK
6
CONTINUOUS
10
174.524
20
-93.4828
11
174.552
21
-93.48
0
LINE
8
BLACK
6
CONTINUOUS
10
174.552
20
-93.48
11
174.847
21
-93.48
0
LINE
8
BLACK
6
CONTINUOUS
10
174.847
20
-93.48
11
174.876
21
-93.4828
0
LINE
8
BLACK
6
CONTINUOUS
10
175.846
20
-93.4828
11
175.874
21
-93.4912
0
LINE
8
BLACK
6
CONTINUOUS
10
175.874
20
-93.4912
11
175.899
21
-93.5049
0
LINE
8
BLACK
6
CONTINUOUS
10
175.899
20
-93.5049
11
175.922
21
-93.5232
0
LINE
8
BLACK
6
CONTINUOUS
10
175.922
20
-93.5232
11
175.94
21
-93.5456
0
LINE
8
BLACK
6
CONTINUOUS
10
175.94
20
-93.5456
11
175.954
21
-93.5711
0
LINE
8
BLACK
6
CONTINUOUS
10
175.954
20
-93.5711
11
175.962
21
-93.5987
0
LINE
8
BLACK
6
CONTINUOUS
10
175.962
20
-93.5987
11
175.965
21
-93.6275
0
LINE
8
BLACK
6
CONTINUOUS
10
175.965
20
-93.6275
11
175.965
21
-93.9725
0
LINE
8
BLACK
6
CONTINUOUS
10
175.965
20
-93.9725
11
175.962
21
-94.0013
0
LINE
8
BLACK
6
CONTINUOUS
10
175.962
20
-94.0013
11
175.954
21
-94.0289
0
LINE
8
BLACK
6
CONTINUOUS
10
175.954
20
-94.0289
11
175.94
21
-94.0544
0
LINE
8
BLACK
6
CONTINUOUS
10
175.94
20
-94.0544
11
175.922
21
-94.0768
0
LINE
8
BLACK
6
CONTINUOUS
10
175.922
20
-94.0768
11
175.899
21
-94.0951
0
LINE
8
BLACK
6
CONTINUOUS
10
175.899
20
-94.0951
11
175.874
21
-94.1088
0
LINE
8
BLACK
6
CONTINUOUS
10
175.874
20
-94.1088
11
175.846
21
-94.1172
0
LINE
8
BLACK
6
CONTINUOUS
10
175.846
20
-94.1172
11
175.817
21
-94.12
0
LINE
8
BLACK
6
CONTINUOUS
10
175.817
20
-94.12
11
175.522
21
-94.12
0
LINE
8
BLACK
6
CONTINUOUS
10
175.522
20
-94.12
11
175.494
21
-94.1172
0
LINE
8
BLACK
6
CONTINUOUS
10
175.494
20
-94.1172
11
175.466
21
-94.1088
0
LINE
8
BLACK
6
CONTINUOUS
10
175.466
20
-94.1088
11
175.441
21
-94.0951
0
LINE
8
BLACK
6
CONTINUOUS
10
175.441
20
-94.0951
11
175.418
21
-94.0768
0
LINE
8
BLACK
6
CONTINUOUS
10
175.418
20
-94.0768
11
175.4
21
-94.0544
0
LINE
8
BLACK
6
CONTINUOUS
10
175.4
20
-94.0544
11
175.386
21
-94.0289
0
LINE
8
BLACK
6
CONTINUOUS
10
175.386
20
-94.0289
11
175.378
21
-94.0013
0
LINE
8
BLACK
6
CONTINUOUS
10
175.378
20
-94.0013
11
175.375
21
-93.9725
0
LINE
8
BLACK
6
CONTINUOUS
10
175.375
20
-93.9725
11
175.375
21
-93.6275
0
LINE
8
BLACK
6
CONTINUOUS
10
175.375
20
-93.6275
11
175.378
21
-93.5987
0
LINE
8
BLACK
6
CONTINUOUS
10
175.378
20
-93.5987
11
175.386
21
-93.5711
0
LINE
8
BLACK
6
CONTINUOUS
10
175.386
20
-93.5711
11
175.4
21
-93.5456
0
LINE
8
BLACK
6
CONTINUOUS
10
175.4
20
-93.5456
11
175.418
21
-93.5232
0
LINE
8
BLACK
6
CONTINUOUS
10
175.418
20
-93.5232
11
175.441
21
-93.5049
0
LINE
8
BLACK
6
CONTINUOUS
10
175.441
20
-93.5049
11
175.466
21
-93.4912
0
LINE
8
BLACK
6
CONTINUOUS
10
175.466
20
-93.4912
11
175.494
21
-93.4828
0
LINE
8
BLACK
6
CONTINUOUS
10
175.494
20
-93.4828
11
175.522
21
-93.48
0
LINE
8
BLACK
6
CONTINUOUS
10
175.522
20
-93.48
11
175.817
21
-93.48
0
LINE
8
BLACK
6
CONTINUOUS
10
175.817
20
-93.48
11
175.846
21
-93.4828
0
LINE
8
BLACK
6
CONTINUOUS
10
173.801
20
-93.5228
11
173.829
21
-93.5312
0
LINE
8
BLACK
6
CONTINUOUS
10
173.829
20
-93.5312
11
173.854
21
-93.5449
0
LINE
8
BLACK
6
CONTINUOUS
10
173.854
20
-93.5449
11
173.877
21
-93.5632
0
LINE
8
BLACK
6
CONTINUOUS
10
173.877
20
-93.5632
11
173.895
21
-93.5856
0
LINE
8
BLACK
6
CONTINUOUS
10
173.895
20
-93.5856
11
173.909
21
-93.6111
0
LINE
8
BLACK
6
CONTINUOUS
10
173.909
20
-93.6111
11
173.917
21
-93.6387
0
LINE
8
BLACK
6
CONTINUOUS
10
173.917
20
-93.6387
11
173.92
21
-93.6675
0
LINE
8
BLACK
6
CONTINUOUS
10
173.92
20
-93.6675
11
173.92
21
-93.9625
0
LINE
8
BLACK
6
CONTINUOUS
10
173.92
20
-93.9625
11
173.917
21
-93.9913
0
LINE
8
BLACK
6
CONTINUOUS
10
173.917
20
-93.9913
11
173.909
21
-94.0189
0
LINE
8
BLACK
6
CONTINUOUS
10
173.909
20
-94.0189
11
173.895
21
-94.0444
0
LINE
8
BLACK
6
CONTINUOUS
10
173.895
20
-94.0444
11
173.877
21
-94.0668
0
LINE
8
BLACK
6
CONTINUOUS
10
173.877
20
-94.0668
11
173.854
21
-94.0851
0
LINE
8
BLACK
6
CONTINUOUS
10
173.854
20
-94.0851
11
173.829
21
-94.0988
0
LINE
8
BLACK
6
CONTINUOUS
10
173.829
20
-94.0988
11
173.801
21
-94.1072
0
LINE
8
BLACK
6
CONTINUOUS
10
173.801
20
-94.1072
11
173.772
21
-94.11
0
LINE
8
BLACK
6
CONTINUOUS
10
173.772
20
-94.11
11
173.427
21
-94.11
0
LINE
8
BLACK
6
CONTINUOUS
10
173.427
20
-94.11
11
173.399
21
-94.1072
0
LINE
8
BLACK
6
CONTINUOUS
10
173.399
20
-94.1072
11
173.371
21
-94.0988
0
LINE
8
BLACK
6
CONTINUOUS
10
173.371
20
-94.0988
11
173.346
21
-94.0851
0
LINE
8
BLACK
6
CONTINUOUS
10
173.346
20
-94.0851
11
173.323
21
-94.0668
0
LINE
8
BLACK
6
CONTINUOUS
10
173.323
20
-94.0668
11
173.305
21
-94.0444
0
LINE
8
BLACK
6
CONTINUOUS
10
173.305
20
-94.0444
11
173.291
21
-94.0189
0
LINE
8
BLACK
6
CONTINUOUS
10
173.291
20
-94.0189
11
173.283
21
-93.9913
0
LINE
8
BLACK
6
CONTINUOUS
10
173.283
20
-93.9913
11
173.28
21
-93.9625
0
LINE
8
BLACK
6
CONTINUOUS
10
173.28
20
-93.9625
11
173.28
21
-93.6675
0
LINE
8
BLACK
6
CONTINUOUS
10
173.28
20
-93.6675
11
173.283
21
-93.6387
0
LINE
8
BLACK
6
CONTINUOUS
10
173.283
20
-93.6387
11
173.291
21
-93.6111
0
LINE
8
BLACK
6
CONTINUOUS
10
173.291
20
-93.6111
11
173.305
21
-93.5856
0
LINE
8
BLACK
6
CONTINUOUS
10
173.305
20
-93.5856
11
173.323
21
-93.5632
0
LINE
8
BLACK
6
CONTINUOUS
10
173.323
20
-93.5632
11
173.346
21
-93.5449
0
LINE
8
BLACK
6
CONTINUOUS
10
173.346
20
-93.5449
11
173.371
21
-93.5312
0
LINE
8
BLACK
6
CONTINUOUS
10
173.371
20
-93.5312
11
173.399
21
-93.5228
0
LINE
8
BLACK
6
CONTINUOUS
10
173.399
20
-93.5228
11
173.427
21
-93.52
0
LINE
8
BLACK
6
CONTINUOUS
10
173.427
20
-93.52
11
173.772
21
-93.52
0
LINE
8
BLACK
6
CONTINUOUS
10
173.772
20
-93.52
11
173.801
21
-93.5228
0
LINE
8
BLACK
6
CONTINUOUS
10
171.601
20
-93.5228
11
171.629
21
-93.5312
0
LINE
8
BLACK
6
CONTINUOUS
10
171.629
20
-93.5312
11
171.654
21
-93.5449
0
LINE
8
BLACK
6
CONTINUOUS
10
171.654
20
-93.5449
11
171.677
21
-93.5632
0
LINE
8
BLACK
6
CONTINUOUS
10
171.677
20
-93.5632
11
171.695
21
-93.5856
0
LINE
8
BLACK
6
CONTINUOUS
10
171.695
20
-93.5856
11
171.709
21
-93.6111
0
LINE
8
BLACK
6
CONTINUOUS
10
171.709
20
-93.6111
11
171.717
21
-93.6387
0
LINE
8
BLACK
6
CONTINUOUS
10
171.717
20
-93.6387
11
171.72
21
-93.6675
0
LINE
8
BLACK
6
CONTINUOUS
10
171.72
20
-93.6675
11
171.72
21
-93.9625
0
LINE
8
BLACK
6
CONTINUOUS
10
171.72
20
-93.9625
11
171.717
21
-93.9913
0
LINE
8
BLACK
6
CONTINUOUS
10
171.717
20
-93.9913
11
171.709
21
-94.0189
0
LINE
8
BLACK
6
CONTINUOUS
10
171.709
20
-94.0189
11
171.695
21
-94.0444
0
LINE
8
BLACK
6
CONTINUOUS
10
171.695
20
-94.0444
11
171.677
21
-94.0668
0
LINE
8
BLACK
6
CONTINUOUS
10
171.677
20
-94.0668
11
171.654
21
-94.0851
0
LINE
8
BLACK
6
CONTINUOUS
10
171.654
20
-94.0851
11
171.629
21
-94.0988
0
LINE
8
BLACK
6
CONTINUOUS
10
171.629
20
-94.0988
11
171.601
21
-94.1072
0
LINE
8
BLACK
6
CONTINUOUS
10
171.601
20
-94.1072
11
171.572
21
-94.11
0
LINE
8
BLACK
6
CONTINUOUS
10
171.572
20
-94.11
11
171.227
21
-94.11
0
LINE
8
BLACK
6
CONTINUOUS
10
171.227
20
-94.11
11
171.199
21
-94.1072
0
LINE
8
BLACK
6
CONTINUOUS
10
171.199
20
-94.1072
11
171.171
21
-94.0988
0
LINE
8
BLACK
6
CONTINUOUS
10
171.171
20
-94.0988
11
171.146
21
-94.0851
0
LINE
8
BLACK
6
CONTINUOUS
10
171.146
20
-94.0851
11
171.123
21
-94.0668
0
LINE
8
BLACK
6
CONTINUOUS
10
171.123
20
-94.0668
11
171.105
21
-94.0444
0
LINE
8
BLACK
6
CONTINUOUS
10
171.105
20
-94.0444
11
171.091
21
-94.0189
0
LINE
8
BLACK
6
CONTINUOUS
10
171.091
20
-94.0189
11
171.083
21
-93.9913
0
LINE
8
BLACK
6
CONTINUOUS
10
171.083
20
-93.9913
11
171.08
21
-93.9625
0
LINE
8
BLACK
6
CONTINUOUS
10
171.08
20
-93.9625
11
171.08
21
-93.6675
0
LINE
8
BLACK
6
CONTINUOUS
10
171.08
20
-93.6675
11
171.083
21
-93.6387
0
LINE
8
BLACK
6
CONTINUOUS
10
171.083
20
-93.6387
11
171.091
21
-93.6111
0
LINE
8
BLACK
6
CONTINUOUS
10
171.091
20
-93.6111
11
171.105
21
-93.5856
0
LINE
8
BLACK
6
CONTINUOUS
10
171.105
20
-93.5856
11
171.123
21
-93.5632
0
LINE
8
BLACK
6
CONTINUOUS
10
171.123
20
-93.5632
11
171.146
21
-93.5449
0
LINE
8
BLACK
6
CONTINUOUS
10
171.146
20
-93.5449
11
171.171
21
-93.5312
0
LINE
8
BLACK
6
CONTINUOUS
10
171.171
20
-93.5312
11
171.199
21
-93.5228
0
LINE
8
BLACK
6
CONTINUOUS
10
171.199
20
-93.5228
11
171.227
21
-93.52
0
LINE
8
BLACK
6
CONTINUOUS
10
171.227
20
-93.52
11
171.572
21
-93.52
0
LINE
8
BLACK
6
CONTINUOUS
10
171.572
20
-93.52
11
171.601
21
-93.5228
0
LINE
8
BLACK
6
CONTINUOUS
10
169.591
20
-93.3828
11
169.619
21
-93.3912
0
LINE
8
BLACK
6
CONTINUOUS
10
169.619
20
-93.3912
11
169.644
21
-93.4049
0
LINE
8
BLACK
6
CONTINUOUS
10
169.644
20
-93.4049
11
169.667
21
-93.4232
0
LINE
8
BLACK
6
CONTINUOUS
10
169.667
20
-93.4232
11
169.685
21
-93.4456
0
LINE
8
BLACK
6
CONTINUOUS
10
169.685
20
-93.4456
11
169.699
21
-93.4711
0
LINE
8
BLACK
6
CONTINUOUS
10
169.699
20
-93.4711
11
169.707
21
-93.4987
0
LINE
8
BLACK
6
CONTINUOUS
10
169.707
20
-93.4987
11
169.71
21
-93.5275
0
LINE
8
BLACK
6
CONTINUOUS
10
169.71
20
-93.5275
11
169.71
21
-93.8725
0
LINE
8
BLACK
6
CONTINUOUS
10
169.71
20
-93.8725
11
169.707
21
-93.9013
0
LINE
8
BLACK
6
CONTINUOUS
10
169.707
20
-93.9013
11
169.699
21
-93.9289
0
LINE
8
BLACK
6
CONTINUOUS
10
169.699
20
-93.9289
11
169.685
21
-93.9544
0
LINE
8
BLACK
6
CONTINUOUS
10
169.685
20
-93.9544
11
169.667
21
-93.9768
0
LINE
8
BLACK
6
CONTINUOUS
10
169.667
20
-93.9768
11
169.644
21
-93.9951
0
LINE
8
BLACK
6
CONTINUOUS
10
169.644
20
-93.9951
11
169.619
21
-94.0088
0
LINE
8
BLACK
6
CONTINUOUS
10
169.619
20
-94.0088
11
169.591
21
-94.0172
0
LINE
8
BLACK
6
CONTINUOUS
10
169.591
20
-94.0172
11
169.562
21
-94.02
0
LINE
8
BLACK
6
CONTINUOUS
10
169.562
20
-94.02
11
169.267
21
-94.02
0
LINE
8
BLACK
6
CONTINUOUS
10
169.267
20
-94.02
11
169.239
21
-94.0172
0
LINE
8
BLACK
6
CONTINUOUS
10
169.239
20
-94.0172
11
169.211
21
-94.0088
0
LINE
8
BLACK
6
CONTINUOUS
10
169.211
20
-94.0088
11
169.186
21
-93.9951
0
LINE
8
BLACK
6
CONTINUOUS
10
169.186
20
-93.9951
11
169.163
21
-93.9768
0
LINE
8
BLACK
6
CONTINUOUS
10
169.163
20
-93.9768
11
169.145
21
-93.9544
0
LINE
8
BLACK
6
CONTINUOUS
10
169.145
20
-93.9544
11
169.131
21
-93.9289
0
LINE
8
BLACK
6
CONTINUOUS
10
169.131
20
-93.9289
11
169.123
21
-93.9013
0
LINE
8
BLACK
6
CONTINUOUS
10
169.123
20
-93.9013
11
169.12
21
-93.8725
0
LINE
8
BLACK
6
CONTINUOUS
10
169.12
20
-93.8725
11
169.12
21
-93.5275
0
LINE
8
BLACK
6
CONTINUOUS
10
169.12
20
-93.5275
11
169.123
21
-93.4987
0
LINE
8
BLACK
6
CONTINUOUS
10
169.123
20
-93.4987
11
169.131
21
-93.4711
0
LINE
8
BLACK
6
CONTINUOUS
10
169.131
20
-93.4711
11
169.145
21
-93.4456
0
LINE
8
BLACK
6
CONTINUOUS
10
169.145
20
-93.4456
11
169.163
21
-93.4232
0
LINE
8
BLACK
6
CONTINUOUS
10
169.163
20
-93.4232
11
169.186
21
-93.4049
0
LINE
8
BLACK
6
CONTINUOUS
10
169.186
20
-93.4049
11
169.211
21
-93.3912
0
LINE
8
BLACK
6
CONTINUOUS
10
169.211
20
-93.3912
11
169.239
21
-93.3828
0
LINE
8
BLACK
6
CONTINUOUS
10
169.239
20
-93.3828
11
169.267
21
-93.38
0
LINE
8
BLACK
6
CONTINUOUS
10
169.267
20
-93.38
11
169.562
21
-93.38
0
LINE
8
BLACK
6
CONTINUOUS
10
169.562
20
-93.38
11
169.591
21
-93.3828
0
LINE
8
BLACK
6
CONTINUOUS
10
170.561
20
-93.3828
11
170.589
21
-93.3912
0
LINE
8
BLACK
6
CONTINUOUS
10
170.589
20
-93.3912
11
170.614
21
-93.4049
0
LINE
8
BLACK
6
CONTINUOUS
10
170.614
20
-93.4049
11
170.637
21
-93.4232
0
LINE
8
BLACK
6
CONTINUOUS
10
170.637
20
-93.4232
11
170.655
21
-93.4456
0
LINE
8
BLACK
6
CONTINUOUS
10
170.655
20
-93.4456
11
170.669
21
-93.4711
0
LINE
8
BLACK
6
CONTINUOUS
10
170.669
20
-93.4711
11
170.677
21
-93.4987
0
LINE
8
BLACK
6
CONTINUOUS
10
170.677
20
-93.4987
11
170.68
21
-93.5275
0
LINE
8
BLACK
6
CONTINUOUS
10
170.68
20
-93.5275
11
170.68
21
-93.8725
0
LINE
8
BLACK
6
CONTINUOUS
10
170.68
20
-93.8725
11
170.677
21
-93.9013
0
LINE
8
BLACK
6
CONTINUOUS
10
170.677
20
-93.9013
11
170.669
21
-93.9289
0
LINE
8
BLACK
6
CONTINUOUS
10
170.669
20
-93.9289
11
170.655
21
-93.9544
0
LINE
8
BLACK
6
CONTINUOUS
10
170.655
20
-93.9544
11
170.637
21
-93.9768
0
LINE
8
BLACK
6
CONTINUOUS
10
170.637
20
-93.9768
11
170.614
21
-93.9951
0
LINE
8
BLACK
6
CONTINUOUS
10
170.614
20
-93.9951
11
170.589
21
-94.0088
0
LINE
8
BLACK
6
CONTINUOUS
10
170.589
20
-94.0088
11
170.561
21
-94.0172
0
LINE
8
BLACK
6
CONTINUOUS
10
170.561
20
-94.0172
11
170.532
21
-94.02
0
LINE
8
BLACK
6
CONTINUOUS
10
170.532
20
-94.02
11
170.237
21
-94.02
0
LINE
8
BLACK
6
CONTINUOUS
10
170.237
20
-94.02
11
170.209
21
-94.0172
0
LINE
8
BLACK
6
CONTINUOUS
10
170.209
20
-94.0172
11
170.181
21
-94.0088
0
LINE
8
BLACK
6
CONTINUOUS
10
170.181
20
-94.0088
11
170.156
21
-93.9951
0
LINE
8
BLACK
6
CONTINUOUS
10
170.156
20
-93.9951
11
170.133
21
-93.9768
0
LINE
8
BLACK
6
CONTINUOUS
10
170.133
20
-93.9768
11
170.115
21
-93.9544
0
LINE
8
BLACK
6
CONTINUOUS
10
170.115
20
-93.9544
11
170.101
21
-93.9289
0
LINE
8
BLACK
6
CONTINUOUS
10
170.101
20
-93.9289
11
170.093
21
-93.9013
0
LINE
8
BLACK
6
CONTINUOUS
10
170.093
20
-93.9013
11
170.09
21
-93.8725
0
LINE
8
BLACK
6
CONTINUOUS
10
170.09
20
-93.8725
11
170.09
21
-93.5275
0
LINE
8
BLACK
6
CONTINUOUS
10
170.09
20
-93.5275
11
170.093
21
-93.4987
0
LINE
8
BLACK
6
CONTINUOUS
10
170.093
20
-93.4987
11
170.101
21
-93.4711
0
LINE
8
BLACK
6
CONTINUOUS
10
170.101
20
-93.4711
11
170.115
21
-93.4456
0
LINE
8
BLACK
6
CONTINUOUS
10
170.115
20
-93.4456
11
170.133
21
-93.4232
0
LINE
8
BLACK
6
CONTINUOUS
10
170.133
20
-93.4232
11
170.156
21
-93.4049
0
LINE
8
BLACK
6
CONTINUOUS
10
170.156
20
-93.4049
11
170.181
21
-93.3912
0
LINE
8
BLACK
6
CONTINUOUS
10
170.181
20
-93.3912
11
170.209
21
-93.3828
0
LINE
8
BLACK
6
CONTINUOUS
10
170.209
20
-93.3828
11
170.237
21
-93.38
0
LINE
8
BLACK
6
CONTINUOUS
10
170.237
20
-93.38
11
170.532
21
-93.38
0
LINE
8
BLACK
6
CONTINUOUS
10
170.532
20
-93.38
11
170.561
21
-93.3828
0
LINE
8
BLACK
6
CONTINUOUS
10
172.9
20
-92.925
11
172.3
21
-92.925
0
LINE
8
BLACK
6
CONTINUOUS
10
172.3
20
-92.925
11
172.3
21
-91.775
0
LINE
8
BLACK
6
CONTINUOUS
10
172.3
20
-91.775
11
172.9
21
-91.775
0
LINE
8
BLACK
6
CONTINUOUS
10
172.9
20
-91.775
11
172.9
21
-92.925
0
LINE
8
BLACK
6
CONTINUOUS
10
171.95
20
-92.925
11
171.35
21
-92.925
0
LINE
8
BLACK
6
CONTINUOUS
10
171.35
20
-92.925
11
171.35
21
-91.775
0
LINE
8
BLACK
6
CONTINUOUS
10
171.35
20
-91.775
11
171.95
21
-91.775
0
LINE
8
BLACK
6
CONTINUOUS
10
171.95
20
-91.775
11
171.95
21
-92.925
0
LINE
8
BLACK
6
CONTINUOUS
10
173.85
20
-92.925
11
173.25
21
-92.925
0
LINE
8
BLACK
6
CONTINUOUS
10
173.25
20
-92.925
11
173.25
21
-91.775
0
LINE
8
BLACK
6
CONTINUOUS
10
173.25
20
-91.775
11
173.85
21
-91.775
0
LINE
8
BLACK
6
CONTINUOUS
10
173.85
20
-91.775
11
173.85
21
-92.925
0
LINE
8
BLACK
6
CONTINUOUS
10
164.161
20
-90.6828
11
164.189
21
-90.6912
0
LINE
8
BLACK
6
CONTINUOUS
10
164.189
20
-90.6912
11
164.214
21
-90.7049
0
LINE
8
BLACK
6
CONTINUOUS
10
164.214
20
-90.7049
11
164.237
21
-90.7232
0
LINE
8
BLACK
6
CONTINUOUS
10
164.237
20
-90.7232
11
164.255
21
-90.7456
0
LINE
8
BLACK
6
CONTINUOUS
10
164.255
20
-90.7456
11
164.269
21
-90.7711
0
LINE
8
BLACK
6
CONTINUOUS
10
164.269
20
-90.7711
11
164.277
21
-90.7987
0
LINE
8
BLACK
6
CONTINUOUS
10
164.277
20
-90.7987
11
164.28
21
-90.8275
0
LINE
8
BLACK
6
CONTINUOUS
10
164.28
20
-90.8275
11
164.28
21
-91.1725
0
LINE
8
BLACK
6
CONTINUOUS
10
164.28
20
-91.1725
11
164.277
21
-91.2013
0
LINE
8
BLACK
6
CONTINUOUS
10
164.277
20
-91.2013
11
164.269
21
-91.2289
0
LINE
8
BLACK
6
CONTINUOUS
10
164.269
20
-91.2289
11
164.255
21
-91.2544
0
LINE
8
BLACK
6
CONTINUOUS
10
164.255
20
-91.2544
11
164.237
21
-91.2768
0
LINE
8
BLACK
6
CONTINUOUS
10
164.237
20
-91.2768
11
164.214
21
-91.2951
0
LINE
8
BLACK
6
CONTINUOUS
10
164.214
20
-91.2951
11
164.189
21
-91.3088
0
LINE
8
BLACK
6
CONTINUOUS
10
164.189
20
-91.3088
11
164.161
21
-91.3172
0
LINE
8
BLACK
6
CONTINUOUS
10
164.161
20
-91.3172
11
164.132
21
-91.32
0
LINE
8
BLACK
6
CONTINUOUS
10
164.132
20
-91.32
11
163.838
21
-91.32
0
LINE
8
BLACK
6
CONTINUOUS
10
163.838
20
-91.32
11
163.809
21
-91.3172
0
LINE
8
BLACK
6
CONTINUOUS
10
163.809
20
-91.3172
11
163.781
21
-91.3088
0
LINE
8
BLACK
6
CONTINUOUS
10
163.781
20
-91.3088
11
163.756
21
-91.2951
0
LINE
8
BLACK
6
CONTINUOUS
10
163.756
20
-91.2951
11
163.733
21
-91.2768
0
LINE
8
BLACK
6
CONTINUOUS
10
163.733
20
-91.2768
11
163.715
21
-91.2544
0
LINE
8
BLACK
6
CONTINUOUS
10
163.715
20
-91.2544
11
163.701
21
-91.2289
0
LINE
8
BLACK
6
CONTINUOUS
10
163.701
20
-91.2289
11
163.693
21
-91.2013
0
LINE
8
BLACK
6
CONTINUOUS
10
163.693
20
-91.2013
11
163.69
21
-91.1725
0
LINE
8
BLACK
6
CONTINUOUS
10
163.69
20
-91.1725
11
163.69
21
-90.8275
0
LINE
8
BLACK
6
CONTINUOUS
10
163.69
20
-90.8275
11
163.693
21
-90.7987
0
LINE
8
BLACK
6
CONTINUOUS
10
163.693
20
-90.7987
11
163.701
21
-90.7711
0
LINE
8
BLACK
6
CONTINUOUS
10
163.701
20
-90.7711
11
163.715
21
-90.7456
0
LINE
8
BLACK
6
CONTINUOUS
10
163.715
20
-90.7456
11
163.733
21
-90.7232
0
LINE
8
BLACK
6
CONTINUOUS
10
163.733
20
-90.7232
11
163.756
21
-90.7049
0
LINE
8
BLACK
6
CONTINUOUS
10
163.756
20
-90.7049
11
163.781
21
-90.6912
0
LINE
8
BLACK
6
CONTINUOUS
10
163.781
20
-90.6912
11
163.809
21
-90.6828
0
LINE
8
BLACK
6
CONTINUOUS
10
163.809
20
-90.6828
11
163.838
21
-90.68
0
LINE
8
BLACK
6
CONTINUOUS
10
163.838
20
-90.68
11
164.132
21
-90.68
0
LINE
8
BLACK
6
CONTINUOUS
10
164.132
20
-90.68
11
164.161
21
-90.6828
0
LINE
8
BLACK
6
CONTINUOUS
10
163.191
20
-90.6828
11
163.219
21
-90.6912
0
LINE
8
BLACK
6
CONTINUOUS
10
163.219
20
-90.6912
11
163.244
21
-90.7049
0
LINE
8
BLACK
6
CONTINUOUS
10
163.244
20
-90.7049
11
163.267
21
-90.7232
0
LINE
8
BLACK
6
CONTINUOUS
10
163.267
20
-90.7232
11
163.285
21
-90.7456
0
LINE
8
BLACK
6
CONTINUOUS
10
163.285
20
-90.7456
11
163.299
21
-90.7711
0
LINE
8
BLACK
6
CONTINUOUS
10
163.299
20
-90.7711
11
163.307
21
-90.7987
0
LINE
8
BLACK
6
CONTINUOUS
10
163.307
20
-90.7987
11
163.31
21
-90.8275
0
LINE
8
BLACK
6
CONTINUOUS
10
163.31
20
-90.8275
11
163.31
21
-91.1725
0
LINE
8
BLACK
6
CONTINUOUS
10
163.31
20
-91.1725
11
163.307
21
-91.2013
0
LINE
8
BLACK
6
CONTINUOUS
10
163.307
20
-91.2013
11
163.299
21
-91.2289
0
LINE
8
BLACK
6
CONTINUOUS
10
163.299
20
-91.2289
11
163.285
21
-91.2544
0
LINE
8
BLACK
6
CONTINUOUS
10
163.285
20
-91.2544
11
163.267
21
-91.2768
0
LINE
8
BLACK
6
CONTINUOUS
10
163.267
20
-91.2768
11
163.244
21
-91.2951
0
LINE
8
BLACK
6
CONTINUOUS
10
163.244
20
-91.2951
11
163.219
21
-91.3088
0
LINE
8
BLACK
6
CONTINUOUS
10
163.219
20
-91.3088
11
163.191
21
-91.3172
0
LINE
8
BLACK
6
CONTINUOUS
10
163.191
20
-91.3172
11
163.162
21
-91.32
0
LINE
8
BLACK
6
CONTINUOUS
10
163.162
20
-91.32
11
162.868
21
-91.32
0
LINE
8
BLACK
6
CONTINUOUS
10
162.868
20
-91.32
11
162.839
21
-91.3172
0
LINE
8
BLACK
6
CONTINUOUS
10
162.839
20
-91.3172
11
162.811
21
-91.3088
0
LINE
8
BLACK
6
CONTINUOUS
10
162.811
20
-91.3088
11
162.786
21
-91.2951
0
LINE
8
BLACK
6
CONTINUOUS
10
162.786
20
-91.2951
11
162.763
21
-91.2768
0
LINE
8
BLACK
6
CONTINUOUS
10
162.763
20
-91.2768
11
162.745
21
-91.2544
0
LINE
8
BLACK
6
CONTINUOUS
10
162.745
20
-91.2544
11
162.731
21
-91.2289
0
LINE
8
BLACK
6
CONTINUOUS
10
162.731
20
-91.2289
11
162.723
21
-91.2013
0
LINE
8
BLACK
6
CONTINUOUS
10
162.723
20
-91.2013
11
162.72
21
-91.1725
0
LINE
8
BLACK
6
CONTINUOUS
10
162.72
20
-91.1725
11
162.72
21
-90.8275
0
LINE
8
BLACK
6
CONTINUOUS
10
162.72
20
-90.8275
11
162.723
21
-90.7987
0
LINE
8
BLACK
6
CONTINUOUS
10
162.723
20
-90.7987
11
162.731
21
-90.7711
0
LINE
8
BLACK
6
CONTINUOUS
10
162.731
20
-90.7711
11
162.745
21
-90.7456
0
LINE
8
BLACK
6
CONTINUOUS
10
162.745
20
-90.7456
11
162.763
21
-90.7232
0
LINE
8
BLACK
6
CONTINUOUS
10
162.763
20
-90.7232
11
162.786
21
-90.7049
0
LINE
8
BLACK
6
CONTINUOUS
10
162.786
20
-90.7049
11
162.811
21
-90.6912
0
LINE
8
BLACK
6
CONTINUOUS
10
162.811
20
-90.6912
11
162.839
21
-90.6828
0
LINE
8
BLACK
6
CONTINUOUS
10
162.839
20
-90.6828
11
162.868
21
-90.68
0
LINE
8
BLACK
6
CONTINUOUS
10
162.868
20
-90.68
11
163.162
21
-90.68
0
LINE
8
BLACK
6
CONTINUOUS
10
163.162
20
-90.68
11
163.191
21
-90.6828
0
LINE
8
BLACK
6
CONTINUOUS
10
161.901
20
-90.5928
11
161.929
21
-90.6012
0
LINE
8
BLACK
6
CONTINUOUS
10
161.929
20
-90.6012
11
161.954
21
-90.6149
0
LINE
8
BLACK
6
CONTINUOUS
10
161.954
20
-90.6149
11
161.977
21
-90.6332
0
LINE
8
BLACK
6
CONTINUOUS
10
161.977
20
-90.6332
11
161.995
21
-90.6556
0
LINE
8
BLACK
6
CONTINUOUS
10
161.995
20
-90.6556
11
162.009
21
-90.6811
0
LINE
8
BLACK
6
CONTINUOUS
10
162.009
20
-90.6811
11
162.017
21
-90.7087
0
LINE
8
BLACK
6
CONTINUOUS
10
162.017
20
-90.7087
11
162.02
21
-90.7375
0
LINE
8
BLACK
6
CONTINUOUS
10
162.02
20
-90.7375
11
162.02
21
-91.0325
0
LINE
8
BLACK
6
CONTINUOUS
10
162.02
20
-91.0325
11
162.017
21
-91.0613
0
LINE
8
BLACK
6
CONTINUOUS
10
162.017
20
-91.0613
11
162.009
21
-91.0889
0
LINE
8
BLACK
6
CONTINUOUS
10
162.009
20
-91.0889
11
161.995
21
-91.1144
0
LINE
8
BLACK
6
CONTINUOUS
10
161.995
20
-91.1144
11
161.977
21
-91.1368
0
LINE
8
BLACK
6
CONTINUOUS
10
161.977
20
-91.1368
11
161.954
21
-91.1551
0
LINE
8
BLACK
6
CONTINUOUS
10
161.954
20
-91.1551
11
161.929
21
-91.1688
0
LINE
8
BLACK
6
CONTINUOUS
10
161.929
20
-91.1688
11
161.901
21
-91.1772
0
LINE
8
BLACK
6
CONTINUOUS
10
161.901
20
-91.1772
11
161.873
21
-91.18
0
LINE
8
BLACK
6
CONTINUOUS
10
161.873
20
-91.18
11
161.528
21
-91.18
0
LINE
8
BLACK
6
CONTINUOUS
10
161.528
20
-91.18
11
161.499
21
-91.1772
0
LINE
8
BLACK
6
CONTINUOUS
10
161.499
20
-91.1772
11
161.471
21
-91.1688
0
LINE
8
BLACK
6
CONTINUOUS
10
161.471
20
-91.1688
11
161.446
21
-91.1551
0
LINE
8
BLACK
6
CONTINUOUS
10
161.446
20
-91.1551
11
161.423
21
-91.1368
0
LINE
8
BLACK
6
CONTINUOUS
10
161.423
20
-91.1368
11
161.405
21
-91.1144
0
LINE
8
BLACK
6
CONTINUOUS
10
161.405
20
-91.1144
11
161.391
21
-91.0889
0
LINE
8
BLACK
6
CONTINUOUS
10
161.391
20
-91.0889
11
161.383
21
-91.0613
0
LINE
8
BLACK
6
CONTINUOUS
10
161.383
20
-91.0613
11
161.38
21
-91.0325
0
LINE
8
BLACK
6
CONTINUOUS
10
161.38
20
-91.0325
11
161.38
21
-90.7375
0
LINE
8
BLACK
6
CONTINUOUS
10
161.38
20
-90.7375
11
161.383
21
-90.7087
0
LINE
8
BLACK
6
CONTINUOUS
10
161.383
20
-90.7087
11
161.391
21
-90.6811
0
LINE
8
BLACK
6
CONTINUOUS
10
161.391
20
-90.6811
11
161.405
21
-90.6556
0
LINE
8
BLACK
6
CONTINUOUS
10
161.405
20
-90.6556
11
161.423
21
-90.6332
0
LINE
8
BLACK
6
CONTINUOUS
10
161.423
20
-90.6332
11
161.446
21
-90.6149
0
LINE
8
BLACK
6
CONTINUOUS
10
161.446
20
-90.6149
11
161.471
21
-90.6012
0
LINE
8
BLACK
6
CONTINUOUS
10
161.471
20
-90.6012
11
161.499
21
-90.5928
0
LINE
8
BLACK
6
CONTINUOUS
10
161.499
20
-90.5928
11
161.528
21
-90.59
0
LINE
8
BLACK
6
CONTINUOUS
10
161.528
20
-90.59
11
161.873
21
-90.59
0
LINE
8
BLACK
6
CONTINUOUS
10
161.873
20
-90.59
11
161.901
21
-90.5928
0
LINE
8
BLACK
6
CONTINUOUS
10
171.95
20
-90.425
11
171.35
21
-90.425
0
LINE
8
BLACK
6
CONTINUOUS
10
171.35
20
-90.425
11
171.35
21
-89.275
0
LINE
8
BLACK
6
CONTINUOUS
10
171.35
20
-89.275
11
171.95
21
-89.275
0
LINE
8
BLACK
6
CONTINUOUS
10
171.95
20
-89.275
11
171.95
21
-90.425
0
LINE
8
BLACK
6
CONTINUOUS
10
173.85
20
-90.425
11
173.25
21
-90.425
0
LINE
8
BLACK
6
CONTINUOUS
10
173.25
20
-90.425
11
173.25
21
-89.275
0
LINE
8
BLACK
6
CONTINUOUS
10
173.25
20
-89.275
11
173.85
21
-89.275
0
LINE
8
BLACK
6
CONTINUOUS
10
173.85
20
-89.275
11
173.85
21
-90.425
0
LINE
8
BLACK
6
CONTINUOUS
10
161.901
20
-89.6228
11
161.929
21
-89.6312
0
LINE
8
BLACK
6
CONTINUOUS
10
161.929
20
-89.6312
11
161.954
21
-89.6449
0
LINE
8
BLACK
6
CONTINUOUS
10
161.954
20
-89.6449
11
161.977
21
-89.6632
0
LINE
8
BLACK
6
CONTINUOUS
10
161.977
20
-89.6632
11
161.995
21
-89.6856
0
LINE
8
BLACK
6
CONTINUOUS
10
161.995
20
-89.6856
11
162.009
21
-89.7111
0
LINE
8
BLACK
6
CONTINUOUS
10
162.009
20
-89.7111
11
162.017
21
-89.7387
0
LINE
8
BLACK
6
CONTINUOUS
10
162.017
20
-89.7387
11
162.02
21
-89.7675
0
LINE
8
BLACK
6
CONTINUOUS
10
162.02
20
-89.7675
11
162.02
21
-90.0625
0
LINE
8
BLACK
6
CONTINUOUS
10
162.02
20
-90.0625
11
162.017
21
-90.0913
0
LINE
8
BLACK
6
CONTINUOUS
10
162.017
20
-90.0913
11
162.009
21
-90.1189
0
LINE
8
BLACK
6
CONTINUOUS
10
162.009
20
-90.1189
11
161.995
21
-90.1444
0
LINE
8
BLACK
6
CONTINUOUS
10
161.995
20
-90.1444
11
161.977
21
-90.1668
0
LINE
8
BLACK
6
CONTINUOUS
10
161.977
20
-90.1668
11
161.954
21
-90.1851
0
LINE
8
BLACK
6
CONTINUOUS
10
161.954
20
-90.1851
11
161.929
21
-90.1988
0
LINE
8
BLACK
6
CONTINUOUS
10
161.929
20
-90.1988
11
161.901
21
-90.2072
0
LINE
8
BLACK
6
CONTINUOUS
10
161.901
20
-90.2072
11
161.873
21
-90.21
0
LINE
8
BLACK
6
CONTINUOUS
10
161.873
20
-90.21
11
161.528
21
-90.21
0
LINE
8
BLACK
6
CONTINUOUS
10
161.528
20
-90.21
11
161.499
21
-90.2072
0
LINE
8
BLACK
6
CONTINUOUS
10
161.499
20
-90.2072
11
161.471
21
-90.1988
0
LINE
8
BLACK
6
CONTINUOUS
10
161.471
20
-90.1988
11
161.446
21
-90.1851
0
LINE
8
BLACK
6
CONTINUOUS
10
161.446
20
-90.1851
11
161.423
21
-90.1668
0
LINE
8
BLACK
6
CONTINUOUS
10
161.423
20
-90.1668
11
161.405
21
-90.1444
0
LINE
8
BLACK
6
CONTINUOUS
10
161.405
20
-90.1444
11
161.391
21
-90.1189
0
LINE
8
BLACK
6
CONTINUOUS
10
161.391
20
-90.1189
11
161.383
21
-90.0913
0
LINE
8
BLACK
6
CONTINUOUS
10
161.383
20
-90.0913
11
161.38
21
-90.0625
0
LINE
8
BLACK
6
CONTINUOUS
10
161.38
20
-90.0625
11
161.38
21
-89.7675
0
LINE
8
BLACK
6
CONTINUOUS
10
161.38
20
-89.7675
11
161.383
21
-89.7387
0
LINE
8
BLACK
6
CONTINUOUS
10
161.383
20
-89.7387
11
161.391
21
-89.7111
0
LINE
8
BLACK
6
CONTINUOUS
10
161.391
20
-89.7111
11
161.405
21
-89.6856
0
LINE
8
BLACK
6
CONTINUOUS
10
161.405
20
-89.6856
11
161.423
21
-89.6632
0
LINE
8
BLACK
6
CONTINUOUS
10
161.423
20
-89.6632
11
161.446
21
-89.6449
0
LINE
8
BLACK
6
CONTINUOUS
10
161.446
20
-89.6449
11
161.471
21
-89.6312
0
LINE
8
BLACK
6
CONTINUOUS
10
161.471
20
-89.6312
11
161.499
21
-89.6228
0
LINE
8
BLACK
6
CONTINUOUS
10
161.499
20
-89.6228
11
161.528
21
-89.62
0
LINE
8
BLACK
6
CONTINUOUS
10
161.528
20
-89.62
11
161.873
21
-89.62
0
LINE
8
BLACK
6
CONTINUOUS
10
161.873
20
-89.62
11
161.901
21
-89.6228
0
LINE
8
BLACK
6
CONTINUOUS
10
172.801
20
-89.2928
11
172.829
21
-89.3012
0
LINE
8
BLACK
6
CONTINUOUS
10
172.829
20
-89.3012
11
172.854
21
-89.3149
0
LINE
8
BLACK
6
CONTINUOUS
10
172.854
20
-89.3149
11
172.877
21
-89.3332
0
LINE
8
BLACK
6
CONTINUOUS
10
172.877
20
-89.3332
11
172.895
21
-89.3556
0
LINE
8
BLACK
6
CONTINUOUS
10
172.895
20
-89.3556
11
172.909
21
-89.3811
0
LINE
8
BLACK
6
CONTINUOUS
10
172.909
20
-89.3811
11
172.917
21
-89.4087
0
LINE
8
BLACK
6
CONTINUOUS
10
172.917
20
-89.4087
11
172.92
21
-89.4375
0
LINE
8
BLACK
6
CONTINUOUS
10
172.92
20
-89.4375
11
172.92
21
-89.7325
0
LINE
8
BLACK
6
CONTINUOUS
10
172.92
20
-89.7325
11
172.917
21
-89.7613
0
LINE
8
BLACK
6
CONTINUOUS
10
172.917
20
-89.7613
11
172.909
21
-89.7889
0
LINE
8
BLACK
6
CONTINUOUS
10
172.909
20
-89.7889
11
172.895
21
-89.8144
0
LINE
8
BLACK
6
CONTINUOUS
10
172.895
20
-89.8144
11
172.877
21
-89.8368
0
LINE
8
BLACK
6
CONTINUOUS
10
172.877
20
-89.8368
11
172.854
21
-89.8551
0
LINE
8
BLACK
6
CONTINUOUS
10
172.854
20
-89.8551
11
172.829
21
-89.8688
0
LINE
8
BLACK
6
CONTINUOUS
10
172.829
20
-89.8688
11
172.801
21
-89.8772
0
LINE
8
BLACK
6
CONTINUOUS
10
172.801
20
-89.8772
11
172.772
21
-89.88
0
LINE
8
BLACK
6
CONTINUOUS
10
172.772
20
-89.88
11
172.427
21
-89.88
0
LINE
8
BLACK
6
CONTINUOUS
10
172.427
20
-89.88
11
172.399
21
-89.8772
0
LINE
8
BLACK
6
CONTINUOUS
10
172.399
20
-89.8772
11
172.371
21
-89.8688
0
LINE
8
BLACK
6
CONTINUOUS
10
172.371
20
-89.8688
11
172.346
21
-89.8551
0
LINE
8
BLACK
6
CONTINUOUS
10
172.346
20
-89.8551
11
172.323
21
-89.8368
0
LINE
8
BLACK
6
CONTINUOUS
10
172.323
20
-89.8368
11
172.305
21
-89.8144
0
LINE
8
BLACK
6
CONTINUOUS
10
172.305
20
-89.8144
11
172.291
21
-89.7889
0
LINE
8
BLACK
6
CONTINUOUS
10
172.291
20
-89.7889
11
172.283
21
-89.7613
0
LINE
8
BLACK
6
CONTINUOUS
10
172.283
20
-89.7613
11
172.28
21
-89.7325
0
LINE
8
BLACK
6
CONTINUOUS
10
172.28
20
-89.7325
11
172.28
21
-89.4375
0
LINE
8
BLACK
6
CONTINUOUS
10
172.28
20
-89.4375
11
172.283
21
-89.4087
0
LINE
8
BLACK
6
CONTINUOUS
10
172.283
20
-89.4087
11
172.291
21
-89.3811
0
LINE
8
BLACK
6
CONTINUOUS
10
172.291
20
-89.3811
11
172.305
21
-89.3556
0
LINE
8
BLACK
6
CONTINUOUS
10
172.305
20
-89.3556
11
172.323
21
-89.3332
0
LINE
8
BLACK
6
CONTINUOUS
10
172.323
20
-89.3332
11
172.346
21
-89.3149
0
LINE
8
BLACK
6
CONTINUOUS
10
172.346
20
-89.3149
11
172.371
21
-89.3012
0
LINE
8
BLACK
6
CONTINUOUS
10
172.371
20
-89.3012
11
172.399
21
-89.2928
0
LINE
8
BLACK
6
CONTINUOUS
10
172.399
20
-89.2928
11
172.427
21
-89.29
0
LINE
8
BLACK
6
CONTINUOUS
10
172.427
20
-89.29
11
172.772
21
-89.29
0
LINE
8
BLACK
6
CONTINUOUS
10
172.772
20
-89.29
11
172.801
21
-89.2928
0
LINE
8
BLACK
6
CONTINUOUS
10
172.801
20
-88.3228
11
172.829
21
-88.3312
0
LINE
8
BLACK
6
CONTINUOUS
10
172.829
20
-88.3312
11
172.854
21
-88.3449
0
LINE
8
BLACK
6
CONTINUOUS
10
172.854
20
-88.3449
11
172.877
21
-88.3632
0
LINE
8
BLACK
6
CONTINUOUS
10
172.877
20
-88.3632
11
172.895
21
-88.3856
0
LINE
8
BLACK
6
CONTINUOUS
10
172.895
20
-88.3856
11
172.909
21
-88.4111
0
LINE
8
BLACK
6
CONTINUOUS
10
172.909
20
-88.4111
11
172.917
21
-88.4387
0
LINE
8
BLACK
6
CONTINUOUS
10
172.917
20
-88.4387
11
172.92
21
-88.4675
0
LINE
8
BLACK
6
CONTINUOUS
10
172.92
20
-88.4675
11
172.92
21
-88.7625
0
LINE
8
BLACK
6
CONTINUOUS
10
172.92
20
-88.7625
11
172.917
21
-88.7913
0
LINE
8
BLACK
6
CONTINUOUS
10
172.917
20
-88.7913
11
172.909
21
-88.8189
0
LINE
8
BLACK
6
CONTINUOUS
10
172.909
20
-88.8189
11
172.895
21
-88.8444
0
LINE
8
BLACK
6
CONTINUOUS
10
172.895
20
-88.8444
11
172.877
21
-88.8668
0
LINE
8
BLACK
6
CONTINUOUS
10
172.877
20
-88.8668
11
172.854
21
-88.8851
0
LINE
8
BLACK
6
CONTINUOUS
10
172.854
20
-88.8851
11
172.829
21
-88.8988
0
LINE
8
BLACK
6
CONTINUOUS
10
172.829
20
-88.8988
11
172.801
21
-88.9072
0
LINE
8
BLACK
6
CONTINUOUS
10
172.801
20
-88.9072
11
172.772
21
-88.91
0
LINE
8
BLACK
6
CONTINUOUS
10
172.772
20
-88.91
11
172.427
21
-88.91
0
LINE
8
BLACK
6
CONTINUOUS
10
172.427
20
-88.91
11
172.399
21
-88.9072
0
LINE
8
BLACK
6
CONTINUOUS
10
172.399
20
-88.9072
11
172.371
21
-88.8988
0
LINE
8
BLACK
6
CONTINUOUS
10
172.371
20
-88.8988
11
172.346
21
-88.8851
0
LINE
8
BLACK
6
CONTINUOUS
10
172.346
20
-88.8851
11
172.323
21
-88.8668
0
LINE
8
BLACK
6
CONTINUOUS
10
172.323
20
-88.8668
11
172.305
21
-88.8444
0
LINE
8
BLACK
6
CONTINUOUS
10
172.305
20
-88.8444
11
172.291
21
-88.8189
0
LINE
8
BLACK
6
CONTINUOUS
10
172.291
20
-88.8189
11
172.283
21
-88.7913
0
LINE
8
BLACK
6
CONTINUOUS
10
172.283
20
-88.7913
11
172.28
21
-88.7625
0
LINE
8
BLACK
6
CONTINUOUS
10
172.28
20
-88.7625
11
172.28
21
-88.4675
0
LINE
8
BLACK
6
CONTINUOUS
10
172.28
20
-88.4675
11
172.283
21
-88.4387
0
LINE
8
BLACK
6
CONTINUOUS
10
172.283
20
-88.4387
11
172.291
21
-88.4111
0
LINE
8
BLACK
6
CONTINUOUS
10
172.291
20
-88.4111
11
172.305
21
-88.3856
0
LINE
8
BLACK
6
CONTINUOUS
10
172.305
20
-88.3856
11
172.323
21
-88.3632
0
LINE
8
BLACK
6
CONTINUOUS
10
172.323
20
-88.3632
11
172.346
21
-88.3449
0
LINE
8
BLACK
6
CONTINUOUS
10
172.346
20
-88.3449
11
172.371
21
-88.3312
0
LINE
8
BLACK
6
CONTINUOUS
10
172.371
20
-88.3312
11
172.399
21
-88.3228
0
LINE
8
BLACK
6
CONTINUOUS
10
172.399
20
-88.3228
11
172.427
21
-88.32
0
LINE
8
BLACK
6
CONTINUOUS
10
172.427
20
-88.32
11
172.772
21
-88.32
0
LINE
8
BLACK
6
CONTINUOUS
10
172.772
20
-88.32
11
172.801
21
-88.3228
  0
ENDSEC
  0
EOF
