  0
SECTION
  2
HEADER
  9
$ANGBASE
  50
0.0
  9
$ANGDIR
  70
1
  9
$MEASUREMENT
  70
1
  0
ENDSEC
  0
SECTION
  2
TABLES
  0
TABLE
  2
LTYPE
  70
4
  0
LTYPE
  5
40F
  2
CONTINUOUS
  70
0
  3
Solid line
  72
65
  73
0
  40
0.0
  0
LTYPE
  5
410
  2
DASHDOT
 70
0
  3
Dash Dot ____ _ ____ _
 72
65
 73
4
 40
2.0
 49
1.25
 49
-0.25
 49
0.25
 49
-0.25
  0
LTYPE
  5
411
  2
DASHED
 70
0
  3
Dashed __ __ __ __ __
 72
65
 73
2
 40
0.75
 49
0.5
 49
-0.25
  0
LTYPE
  5
43B
  2
DOTTED
 70
0
  3
Dotted .  .  .  .
 72
65
 73
2
 40
0.2
 49
0.0
 49
-0.2
  0
ENDTAB
  0
TABLE
  2
STYLE
  70
4
  0
STYLE
  2
KICAD
  70
0
  40
0
  41
1
  42
1
  50
0
  71
0
  3
isocp.shx
  0
STYLE
  2
KICADB
  70
0
  40
0
  41
1
  42
1
  50
0
  71
0
  3
isocp.shx
  0
STYLE
  2
KICADI
  70
0
  40
0
  41
1
  42
1
  50
15
  71
0
  3
isocp.shx
  0
STYLE
  2
KICADBI
  70
0
  40
0
  41
1
  42
1
  50
15
  71
0
  3
isocp.shx
  0
ENDTAB
  0
TABLE
  2
LAYER
  70
1
  0
LAYER
  2
BLACK
  70
0
  62
7
  6
CONTINUOUS
  0
ENDTAB
  0
ENDSEC
  0
SECTION
  2
ENTITIES
0
LINE
8
BLACK
6
CONTINUOUS
10
189.001
20
-77.975
11
189.001
21
-77.975
0
LINE
8
BLACK
6
CONTINUOUS
10
189.001
20
-77.975
11
189.005
21
-77.9754
0
LINE
8
BLACK
6
CONTINUOUS
10
189.005
20
-77.9754
11
189.01
21
-77.9768
0
LINE
8
BLACK
6
CONTINUOUS
10
189.01
20
-77.9768
11
189.014
21
-77.9791
0
LINE
8
BLACK
6
CONTINUOUS
10
189.014
20
-77.9791
11
189.018
21
-77.9822
0
LINE
8
BLACK
6
CONTINUOUS
10
189.018
20
-77.9822
11
189.021
21
-77.986
0
LINE
8
BLACK
6
CONTINUOUS
10
189.021
20
-77.986
11
189.023
21
-77.9904
0
LINE
8
BLACK
6
CONTINUOUS
10
189.023
20
-77.9904
11
189.025
21
-77.9951
0
LINE
8
BLACK
6
CONTINUOUS
10
189.025
20
-77.9951
11
189.025
21
-78
0
LINE
8
BLACK
6
CONTINUOUS
10
189.025
20
-78
11
189.025
21
-78.0012
0
LINE
8
BLACK
6
CONTINUOUS
10
189.025
20
-78.0012
11
189.025
21
-123.999
0
LINE
8
BLACK
6
CONTINUOUS
10
189.025
20
-123.999
11
189.025
21
-124
0
LINE
8
BLACK
6
CONTINUOUS
10
189.025
20
-124
11
189.025
21
-124.001
0
LINE
8
BLACK
6
CONTINUOUS
10
189.025
20
-124.001
11
189.025
21
-124.005
0
LINE
8
BLACK
6
CONTINUOUS
10
189.025
20
-124.005
11
189.023
21
-124.01
0
LINE
8
BLACK
6
CONTINUOUS
10
189.023
20
-124.01
11
189.021
21
-124.014
0
LINE
8
BLACK
6
CONTINUOUS
10
189.021
20
-124.014
11
189.018
21
-124.018
0
LINE
8
BLACK
6
CONTINUOUS
10
189.018
20
-124.018
11
189.014
21
-124.021
0
LINE
8
BLACK
6
CONTINUOUS
10
189.014
20
-124.021
11
189.01
21
-124.023
0
LINE
8
BLACK
6
CONTINUOUS
10
189.01
20
-124.023
11
189.005
21
-124.025
0
LINE
8
BLACK
6
CONTINUOUS
10
189.005
20
-124.025
11
189
21
-124.025
0
LINE
8
BLACK
6
CONTINUOUS
10
189
20
-124.025
11
188.999
21
-124.025
0
LINE
8
BLACK
6
CONTINUOUS
10
188.999
20
-124.025
11
181.001
21
-124.025
0
LINE
8
BLACK
6
CONTINUOUS
10
181.001
20
-124.025
11
181
21
-124.025
0
LINE
8
BLACK
6
CONTINUOUS
10
181
20
-124.025
11
180.995
21
-124.025
0
LINE
8
BLACK
6
CONTINUOUS
10
180.995
20
-124.025
11
180.994
21
-124.024
0
LINE
8
BLACK
6
CONTINUOUS
10
180.994
20
-124.024
11
180.99
21
-124.023
0
LINE
8
BLACK
6
CONTINUOUS
10
180.99
20
-124.023
11
180.986
21
-124.021
0
LINE
8
BLACK
6
CONTINUOUS
10
180.986
20
-124.021
11
180.982
21
-124.018
0
LINE
8
BLACK
6
CONTINUOUS
10
180.982
20
-124.018
11
180.981
21
-124.017
0
LINE
8
BLACK
6
CONTINUOUS
10
180.981
20
-124.017
11
176.99
21
-120.025
0
LINE
8
BLACK
6
CONTINUOUS
10
176.99
20
-120.025
11
125.01
21
-120.025
0
LINE
8
BLACK
6
CONTINUOUS
10
125.01
20
-120.025
11
121.019
21
-124.017
0
LINE
8
BLACK
6
CONTINUOUS
10
121.019
20
-124.017
11
121.018
21
-124.018
0
LINE
8
BLACK
6
CONTINUOUS
10
121.018
20
-124.018
11
121.014
21
-124.021
0
LINE
8
BLACK
6
CONTINUOUS
10
121.014
20
-124.021
11
121.01
21
-124.023
0
LINE
8
BLACK
6
CONTINUOUS
10
121.01
20
-124.023
11
121.005
21
-124.025
0
LINE
8
BLACK
6
CONTINUOUS
10
121.005
20
-124.025
11
121.001
21
-124.025
0
LINE
8
BLACK
6
CONTINUOUS
10
121.001
20
-124.025
11
121.001
21
-124.025
0
LINE
8
BLACK
6
CONTINUOUS
10
121.001
20
-124.025
11
121
21
-124.025
0
LINE
8
BLACK
6
CONTINUOUS
10
121
20
-124.025
11
120.999
21
-124.025
0
LINE
8
BLACK
6
CONTINUOUS
10
120.999
20
-124.025
11
113.001
21
-124.025
0
LINE
8
BLACK
6
CONTINUOUS
10
113.001
20
-124.025
11
113
21
-124.025
0
LINE
8
BLACK
6
CONTINUOUS
10
113
20
-124.025
11
112.999
21
-124.025
0
LINE
8
BLACK
6
CONTINUOUS
10
112.999
20
-124.025
11
112.999
21
-124.025
0
LINE
8
BLACK
6
CONTINUOUS
10
112.999
20
-124.025
11
112.995
21
-124.025
0
LINE
8
BLACK
6
CONTINUOUS
10
112.995
20
-124.025
11
112.99
21
-124.023
0
LINE
8
BLACK
6
CONTINUOUS
10
112.99
20
-124.023
11
112.986
21
-124.021
0
LINE
8
BLACK
6
CONTINUOUS
10
112.986
20
-124.021
11
112.982
21
-124.018
0
LINE
8
BLACK
6
CONTINUOUS
10
112.982
20
-124.018
11
112.979
21
-124.014
0
LINE
8
BLACK
6
CONTINUOUS
10
112.979
20
-124.014
11
112.977
21
-124.01
0
LINE
8
BLACK
6
CONTINUOUS
10
112.977
20
-124.01
11
112.975
21
-124.005
0
LINE
8
BLACK
6
CONTINUOUS
10
112.975
20
-124.005
11
112.975
21
-124
0
LINE
8
BLACK
6
CONTINUOUS
10
112.975
20
-124
11
112.975
21
-123.999
0
LINE
8
BLACK
6
CONTINUOUS
10
112.975
20
-123.999
11
112.975
21
-103.999
0
LINE
8
BLACK
6
CONTINUOUS
10
112.975
20
-103.999
11
112.975
21
-103.995
0
LINE
8
BLACK
6
CONTINUOUS
10
112.975
20
-103.995
11
112.977
21
-103.99
0
LINE
8
BLACK
6
CONTINUOUS
10
112.977
20
-103.99
11
112.979
21
-103.986
0
LINE
8
BLACK
6
CONTINUOUS
10
112.979
20
-103.986
11
112.982
21
-103.982
0
LINE
8
BLACK
6
CONTINUOUS
10
112.982
20
-103.982
11
112.986
21
-103.979
0
LINE
8
BLACK
6
CONTINUOUS
10
112.986
20
-103.979
11
112.99
21
-103.977
0
LINE
8
BLACK
6
CONTINUOUS
10
112.99
20
-103.977
11
112.995
21
-103.975
0
LINE
8
BLACK
6
CONTINUOUS
10
112.995
20
-103.975
11
113
21
-103.975
0
LINE
8
BLACK
6
CONTINUOUS
10
113
20
-103.975
11
113.001
21
-103.975
0
LINE
8
BLACK
6
CONTINUOUS
10
113.001
20
-103.975
11
113.04
21
-103.975
0
LINE
8
BLACK
6
CONTINUOUS
10
113.04
20
-103.975
11
113.619
21
-103.91
0
LINE
8
BLACK
6
CONTINUOUS
10
113.619
20
-103.91
11
114.172
21
-103.734
0
LINE
8
BLACK
6
CONTINUOUS
10
114.172
20
-103.734
11
114.681
21
-103.455
0
LINE
8
BLACK
6
CONTINUOUS
10
114.681
20
-103.455
11
115.125
21
-103.081
0
LINE
8
BLACK
6
CONTINUOUS
10
115.125
20
-103.081
11
115.489
21
-102.629
0
LINE
8
BLACK
6
CONTINUOUS
10
115.489
20
-102.629
11
115.758
21
-102.114
0
LINE
8
BLACK
6
CONTINUOUS
10
115.758
20
-102.114
11
115.922
21
-101.557
0
LINE
8
BLACK
6
CONTINUOUS
10
115.922
20
-101.557
11
115.975
21
-100.979
0
LINE
8
BLACK
6
CONTINUOUS
10
115.975
20
-100.979
11
115.914
21
-100.402
0
LINE
8
BLACK
6
CONTINUOUS
10
115.914
20
-100.402
11
115.742
21
-99.8472
0
LINE
8
BLACK
6
CONTINUOUS
10
115.742
20
-99.8472
11
115.466
21
-99.3365
0
LINE
8
BLACK
6
CONTINUOUS
10
115.466
20
-99.3365
11
115.096
21
-98.8891
0
LINE
8
BLACK
6
CONTINUOUS
10
115.096
20
-98.8891
11
114.646
21
-98.5222
0
LINE
8
BLACK
6
CONTINUOUS
10
114.646
20
-98.5222
11
114.134
21
-98.2496
0
LINE
8
BLACK
6
CONTINUOUS
10
114.134
20
-98.2496
11
113.578
21
-98.0818
0
LINE
8
BLACK
6
CONTINUOUS
10
113.578
20
-98.0818
11
112.998
21
-98.0249
0
LINE
8
BLACK
6
CONTINUOUS
10
112.998
20
-98.0249
11
112.997
21
-98.0249
0
LINE
8
BLACK
6
CONTINUOUS
10
112.997
20
-98.0249
11
112.995
21
-98.0246
0
LINE
8
BLACK
6
CONTINUOUS
10
112.995
20
-98.0246
11
112.99
21
-98.0232
0
LINE
8
BLACK
6
CONTINUOUS
10
112.99
20
-98.0232
11
112.986
21
-98.0209
0
LINE
8
BLACK
6
CONTINUOUS
10
112.986
20
-98.0209
11
112.982
21
-98.0178
0
LINE
8
BLACK
6
CONTINUOUS
10
112.982
20
-98.0178
11
112.979
21
-98.014
0
LINE
8
BLACK
6
CONTINUOUS
10
112.979
20
-98.014
11
112.977
21
-98.0096
0
LINE
8
BLACK
6
CONTINUOUS
10
112.977
20
-98.0096
11
112.976
21
-98.0071
0
LINE
8
BLACK
6
CONTINUOUS
10
112.976
20
-98.0071
11
112.976
21
-98.0071
0
LINE
8
BLACK
6
CONTINUOUS
10
112.976
20
-98.0071
11
112.976
21
-98.007
0
LINE
8
BLACK
6
CONTINUOUS
10
112.976
20
-98.007
11
112.975
21
-98.0049
0
LINE
8
BLACK
6
CONTINUOUS
10
112.975
20
-98.0049
11
112.975
21
-98.0023
0
LINE
8
BLACK
6
CONTINUOUS
10
112.975
20
-98.0023
11
112.975
21
-98.0023
0
LINE
8
BLACK
6
CONTINUOUS
10
112.975
20
-98.0023
11
112.975
21
-98.0023
0
LINE
8
BLACK
6
CONTINUOUS
10
112.975
20
-98.0023
11
112.975
21
-98.0012
0
LINE
8
BLACK
6
CONTINUOUS
10
112.975
20
-98.0012
11
112.975
21
-78.0012
0
LINE
8
BLACK
6
CONTINUOUS
10
112.975
20
-78.0012
11
112.975
21
-78
0
LINE
8
BLACK
6
CONTINUOUS
10
112.975
20
-78
11
112.975
21
-77.9951
0
LINE
8
BLACK
6
CONTINUOUS
10
112.975
20
-77.9951
11
112.977
21
-77.9904
0
LINE
8
BLACK
6
CONTINUOUS
10
112.977
20
-77.9904
11
112.979
21
-77.986
0
LINE
8
BLACK
6
CONTINUOUS
10
112.979
20
-77.986
11
112.982
21
-77.9822
0
LINE
8
BLACK
6
CONTINUOUS
10
112.982
20
-77.9822
11
112.986
21
-77.9791
0
LINE
8
BLACK
6
CONTINUOUS
10
112.986
20
-77.9791
11
112.99
21
-77.9768
0
LINE
8
BLACK
6
CONTINUOUS
10
112.99
20
-77.9768
11
112.995
21
-77.9754
0
LINE
8
BLACK
6
CONTINUOUS
10
112.995
20
-77.9754
11
112.999
21
-77.975
0
LINE
8
BLACK
6
CONTINUOUS
10
112.999
20
-77.975
11
113
21
-77.9749
0
LINE
8
BLACK
6
CONTINUOUS
10
113
20
-77.9749
11
113.001
21
-77.975
0
LINE
8
BLACK
6
CONTINUOUS
10
113.001
20
-77.975
11
120.999
21
-77.975
0
LINE
8
BLACK
6
CONTINUOUS
10
120.999
20
-77.975
11
121
21
-77.9749
0
LINE
8
BLACK
6
CONTINUOUS
10
121
20
-77.9749
11
121.001
21
-77.975
0
LINE
8
BLACK
6
CONTINUOUS
10
121.001
20
-77.975
11
121.001
21
-77.975
0
LINE
8
BLACK
6
CONTINUOUS
10
121.001
20
-77.975
11
121.005
21
-77.9754
0
LINE
8
BLACK
6
CONTINUOUS
10
121.005
20
-77.9754
11
121.01
21
-77.9768
0
LINE
8
BLACK
6
CONTINUOUS
10
121.01
20
-77.9768
11
121.014
21
-77.9791
0
LINE
8
BLACK
6
CONTINUOUS
10
121.014
20
-77.9791
11
121.018
21
-77.9822
0
LINE
8
BLACK
6
CONTINUOUS
10
121.018
20
-77.9822
11
121.019
21
-77.9832
0
LINE
8
BLACK
6
CONTINUOUS
10
121.019
20
-77.9832
11
125.01
21
-81.975
0
LINE
8
BLACK
6
CONTINUOUS
10
125.01
20
-81.975
11
176.99
21
-81.975
0
LINE
8
BLACK
6
CONTINUOUS
10
176.99
20
-81.975
11
180.981
21
-77.9832
0
LINE
8
BLACK
6
CONTINUOUS
10
180.981
20
-77.9832
11
180.982
21
-77.9822
0
LINE
8
BLACK
6
CONTINUOUS
10
180.982
20
-77.9822
11
180.986
21
-77.9791
0
LINE
8
BLACK
6
CONTINUOUS
10
180.986
20
-77.9791
11
180.99
21
-77.9768
0
LINE
8
BLACK
6
CONTINUOUS
10
180.99
20
-77.9768
11
180.994
21
-77.9758
0
LINE
8
BLACK
6
CONTINUOUS
10
180.994
20
-77.9758
11
180.995
21
-77.9754
0
LINE
8
BLACK
6
CONTINUOUS
10
180.995
20
-77.9754
11
181
21
-77.9749
0
LINE
8
BLACK
6
CONTINUOUS
10
181
20
-77.9749
11
181.001
21
-77.975
0
LINE
8
BLACK
6
CONTINUOUS
10
181.001
20
-77.975
11
188.999
21
-77.975
0
LINE
8
BLACK
6
CONTINUOUS
10
188.999
20
-77.975
11
189
21
-77.9749
0
LINE
8
BLACK
6
CONTINUOUS
10
189
20
-77.9749
11
189.001
21
-77.975
0
LINE
8
BLACK
6
CONTINUOUS
10
113.631
20
-103.958
11
113.629
21
-103.959
0
LINE
8
BLACK
6
CONTINUOUS
10
113.629
20
-103.959
11
113.627
21
-103.959
0
LINE
8
BLACK
6
CONTINUOUS
10
113.627
20
-103.959
11
113.045
21
-104.025
0
LINE
8
BLACK
6
CONTINUOUS
10
113.045
20
-104.025
11
113.044
21
-104.025
0
LINE
8
BLACK
6
CONTINUOUS
10
113.044
20
-104.025
11
113.043
21
-104.025
0
LINE
8
BLACK
6
CONTINUOUS
10
113.043
20
-104.025
11
113.042
21
-104.025
0
LINE
8
BLACK
6
CONTINUOUS
10
113.042
20
-104.025
11
113.025
21
-104.025
0
LINE
8
BLACK
6
CONTINUOUS
10
113.025
20
-104.025
11
113.025
21
-123.975
0
LINE
8
BLACK
6
CONTINUOUS
10
113.025
20
-123.975
11
120.99
21
-123.975
0
LINE
8
BLACK
6
CONTINUOUS
10
120.99
20
-123.975
11
124.981
21
-119.983
0
LINE
8
BLACK
6
CONTINUOUS
10
124.981
20
-119.983
11
124.982
21
-119.982
0
LINE
8
BLACK
6
CONTINUOUS
10
124.982
20
-119.982
11
124.986
21
-119.979
0
LINE
8
BLACK
6
CONTINUOUS
10
124.986
20
-119.979
11
124.99
21
-119.977
0
LINE
8
BLACK
6
CONTINUOUS
10
124.99
20
-119.977
11
124.994
21
-119.976
0
LINE
8
BLACK
6
CONTINUOUS
10
124.994
20
-119.976
11
124.995
21
-119.975
0
LINE
8
BLACK
6
CONTINUOUS
10
124.995
20
-119.975
11
125
21
-119.975
0
LINE
8
BLACK
6
CONTINUOUS
10
125
20
-119.975
11
125.001
21
-119.975
0
LINE
8
BLACK
6
CONTINUOUS
10
125.001
20
-119.975
11
176.999
21
-119.975
0
LINE
8
BLACK
6
CONTINUOUS
10
176.999
20
-119.975
11
177
21
-119.975
0
LINE
8
BLACK
6
CONTINUOUS
10
177
20
-119.975
11
177.001
21
-119.975
0
LINE
8
BLACK
6
CONTINUOUS
10
177.001
20
-119.975
11
177.001
21
-119.975
0
LINE
8
BLACK
6
CONTINUOUS
10
177.001
20
-119.975
11
177.005
21
-119.975
0
LINE
8
BLACK
6
CONTINUOUS
10
177.005
20
-119.975
11
177.01
21
-119.977
0
LINE
8
BLACK
6
CONTINUOUS
10
177.01
20
-119.977
11
177.014
21
-119.979
0
LINE
8
BLACK
6
CONTINUOUS
10
177.014
20
-119.979
11
177.018
21
-119.982
0
LINE
8
BLACK
6
CONTINUOUS
10
177.018
20
-119.982
11
177.019
21
-119.983
0
LINE
8
BLACK
6
CONTINUOUS
10
177.019
20
-119.983
11
181.01
21
-123.975
0
LINE
8
BLACK
6
CONTINUOUS
10
181.01
20
-123.975
11
188.975
21
-123.975
0
LINE
8
BLACK
6
CONTINUOUS
10
188.975
20
-123.975
11
188.975
21
-78.025
0
LINE
8
BLACK
6
CONTINUOUS
10
188.975
20
-78.025
11
181.01
21
-78.025
0
LINE
8
BLACK
6
CONTINUOUS
10
181.01
20
-78.025
11
177.019
21
-82.0168
0
LINE
8
BLACK
6
CONTINUOUS
10
177.019
20
-82.0168
11
177.018
21
-82.0178
0
LINE
8
BLACK
6
CONTINUOUS
10
177.018
20
-82.0178
11
177.014
21
-82.0209
0
LINE
8
BLACK
6
CONTINUOUS
10
177.014
20
-82.0209
11
177.01
21
-82.0232
0
LINE
8
BLACK
6
CONTINUOUS
10
177.01
20
-82.0232
11
177.005
21
-82.0246
0
LINE
8
BLACK
6
CONTINUOUS
10
177.005
20
-82.0246
11
177.001
21
-82.025
0
LINE
8
BLACK
6
CONTINUOUS
10
177.001
20
-82.025
11
177.001
21
-82.025
0
LINE
8
BLACK
6
CONTINUOUS
10
177.001
20
-82.025
11
177
21
-82.0251
0
LINE
8
BLACK
6
CONTINUOUS
10
177
20
-82.0251
11
176.999
21
-82.025
0
LINE
8
BLACK
6
CONTINUOUS
10
176.999
20
-82.025
11
125.001
21
-82.025
0
LINE
8
BLACK
6
CONTINUOUS
10
125.001
20
-82.025
11
125
21
-82.0251
0
LINE
8
BLACK
6
CONTINUOUS
10
125
20
-82.0251
11
124.995
21
-82.0246
0
LINE
8
BLACK
6
CONTINUOUS
10
124.995
20
-82.0246
11
124.994
21
-82.0242
0
LINE
8
BLACK
6
CONTINUOUS
10
124.994
20
-82.0242
11
124.99
21
-82.0232
0
LINE
8
BLACK
6
CONTINUOUS
10
124.99
20
-82.0232
11
124.986
21
-82.0209
0
LINE
8
BLACK
6
CONTINUOUS
10
124.986
20
-82.0209
11
124.982
21
-82.0178
0
LINE
8
BLACK
6
CONTINUOUS
10
124.982
20
-82.0178
11
124.981
21
-82.0168
0
LINE
8
BLACK
6
CONTINUOUS
10
124.981
20
-82.0168
11
120.99
21
-78.025
0
LINE
8
BLACK
6
CONTINUOUS
10
120.99
20
-78.025
11
113.025
21
-78.025
0
LINE
8
BLACK
6
CONTINUOUS
10
113.025
20
-78.025
11
113.025
21
-97.9773
0
LINE
8
BLACK
6
CONTINUOUS
10
113.025
20
-97.9773
11
113.585
21
-98.0323
0
LINE
8
BLACK
6
CONTINUOUS
10
113.585
20
-98.0323
11
113.585
21
-98.0323
0
LINE
8
BLACK
6
CONTINUOUS
10
113.585
20
-98.0323
11
113.588
21
-98.0328
0
LINE
8
BLACK
6
CONTINUOUS
10
113.588
20
-98.0328
11
113.59
21
-98.0332
0
LINE
8
BLACK
6
CONTINUOUS
10
113.59
20
-98.0332
11
114.15
21
-98.2024
0
LINE
8
BLACK
6
CONTINUOUS
10
114.15
20
-98.2024
11
114.151
21
-98.2025
0
LINE
8
BLACK
6
CONTINUOUS
10
114.151
20
-98.2025
11
114.153
21
-98.2034
0
LINE
8
BLACK
6
CONTINUOUS
10
114.153
20
-98.2034
11
114.155
21
-98.2043
0
LINE
8
BLACK
6
CONTINUOUS
10
114.155
20
-98.2043
11
114.672
21
-98.4792
0
LINE
8
BLACK
6
CONTINUOUS
10
114.672
20
-98.4792
11
114.672
21
-98.4793
0
LINE
8
BLACK
6
CONTINUOUS
10
114.672
20
-98.4793
11
114.674
21
-98.4806
0
LINE
8
BLACK
6
CONTINUOUS
10
114.674
20
-98.4806
11
114.676
21
-98.4819
0
LINE
8
BLACK
6
CONTINUOUS
10
114.676
20
-98.4819
11
115.13
21
-98.8519
0
LINE
8
BLACK
6
CONTINUOUS
10
115.13
20
-98.8519
11
115.13
21
-98.8519
0
LINE
8
BLACK
6
CONTINUOUS
10
115.13
20
-98.8519
11
115.13
21
-98.8519
0
LINE
8
BLACK
6
CONTINUOUS
10
115.13
20
-98.8519
11
115.13
21
-98.8521
0
LINE
8
BLACK
6
CONTINUOUS
10
115.13
20
-98.8521
11
115.132
21
-98.8537
0
LINE
8
BLACK
6
CONTINUOUS
10
115.132
20
-98.8537
11
115.133
21
-98.8554
0
LINE
8
BLACK
6
CONTINUOUS
10
115.133
20
-98.8554
11
115.506
21
-99.3065
0
LINE
8
BLACK
6
CONTINUOUS
10
115.506
20
-99.3065
11
115.507
21
-99.3068
0
LINE
8
BLACK
6
CONTINUOUS
10
115.507
20
-99.3068
11
115.508
21
-99.3086
0
LINE
8
BLACK
6
CONTINUOUS
10
115.508
20
-99.3086
11
115.509
21
-99.3105
0
LINE
8
BLACK
6
CONTINUOUS
10
115.509
20
-99.3105
11
115.788
21
-99.8256
0
LINE
8
BLACK
6
CONTINUOUS
10
115.788
20
-99.8256
11
115.788
21
-99.8259
0
LINE
8
BLACK
6
CONTINUOUS
10
115.788
20
-99.8259
11
115.789
21
-99.828
0
LINE
8
BLACK
6
CONTINUOUS
10
115.789
20
-99.828
11
115.789
21
-99.8301
0
LINE
8
BLACK
6
CONTINUOUS
10
115.789
20
-99.8301
11
115.963
21
-100.389
0
LINE
8
BLACK
6
CONTINUOUS
10
115.963
20
-100.389
11
115.963
21
-100.39
0
LINE
8
BLACK
6
CONTINUOUS
10
115.963
20
-100.39
11
115.963
21
-100.392
0
LINE
8
BLACK
6
CONTINUOUS
10
115.963
20
-100.392
11
115.964
21
-100.394
0
LINE
8
BLACK
6
CONTINUOUS
10
115.964
20
-100.394
11
116.025
21
-100.976
0
LINE
8
BLACK
6
CONTINUOUS
10
116.025
20
-100.976
11
116.025
21
-100.977
0
LINE
8
BLACK
6
CONTINUOUS
10
116.025
20
-100.977
11
116.025
21
-100.979
0
LINE
8
BLACK
6
CONTINUOUS
10
116.025
20
-100.979
11
116.025
21
-100.981
0
LINE
8
BLACK
6
CONTINUOUS
10
116.025
20
-100.981
11
115.972
21
-101.564
0
LINE
8
BLACK
6
CONTINUOUS
10
115.972
20
-101.564
11
115.972
21
-101.565
0
LINE
8
BLACK
6
CONTINUOUS
10
115.972
20
-101.565
11
115.971
21
-101.567
0
LINE
8
BLACK
6
CONTINUOUS
10
115.971
20
-101.567
11
115.971
21
-101.569
0
LINE
8
BLACK
6
CONTINUOUS
10
115.971
20
-101.569
11
115.806
21
-102.131
0
LINE
8
BLACK
6
CONTINUOUS
10
115.806
20
-102.131
11
115.805
21
-102.131
0
LINE
8
BLACK
6
CONTINUOUS
10
115.805
20
-102.131
11
115.805
21
-102.133
0
LINE
8
BLACK
6
CONTINUOUS
10
115.805
20
-102.133
11
115.804
21
-102.135
0
LINE
8
BLACK
6
CONTINUOUS
10
115.804
20
-102.135
11
115.532
21
-102.654
0
LINE
8
BLACK
6
CONTINUOUS
10
115.532
20
-102.654
11
115.532
21
-102.654
0
LINE
8
BLACK
6
CONTINUOUS
10
115.532
20
-102.654
11
115.532
21
-102.654
0
LINE
8
BLACK
6
CONTINUOUS
10
115.532
20
-102.654
11
115.532
21
-102.655
0
LINE
8
BLACK
6
CONTINUOUS
10
115.532
20
-102.655
11
115.531
21
-102.657
0
LINE
8
BLACK
6
CONTINUOUS
10
115.531
20
-102.657
11
115.53
21
-102.658
0
LINE
8
BLACK
6
CONTINUOUS
10
115.53
20
-102.658
11
115.163
21
-103.115
0
LINE
8
BLACK
6
CONTINUOUS
10
115.163
20
-103.115
11
115.163
21
-103.115
0
LINE
8
BLACK
6
CONTINUOUS
10
115.163
20
-103.115
11
115.163
21
-103.115
0
LINE
8
BLACK
6
CONTINUOUS
10
115.163
20
-103.115
11
115.163
21
-103.115
0
LINE
8
BLACK
6
CONTINUOUS
10
115.163
20
-103.115
11
115.161
21
-103.117
0
LINE
8
BLACK
6
CONTINUOUS
10
115.161
20
-103.117
11
115.159
21
-103.118
0
LINE
8
BLACK
6
CONTINUOUS
10
115.159
20
-103.118
11
114.711
21
-103.494
0
LINE
8
BLACK
6
CONTINUOUS
10
114.711
20
-103.494
11
114.711
21
-103.495
0
LINE
8
BLACK
6
CONTINUOUS
10
114.711
20
-103.495
11
114.709
21
-103.496
0
LINE
8
BLACK
6
CONTINUOUS
10
114.709
20
-103.496
11
114.707
21
-103.497
0
LINE
8
BLACK
6
CONTINUOUS
10
114.707
20
-103.497
11
114.194
21
-103.779
0
LINE
8
BLACK
6
CONTINUOUS
10
114.194
20
-103.779
11
114.194
21
-103.779
0
LINE
8
BLACK
6
CONTINUOUS
10
114.194
20
-103.779
11
114.191
21
-103.78
0
LINE
8
BLACK
6
CONTINUOUS
10
114.191
20
-103.78
11
114.189
21
-103.781
0
LINE
8
BLACK
6
CONTINUOUS
10
114.189
20
-103.781
11
113.631
21
-103.958
0
LINE
8
BLACK
6
CONTINUOUS
10
113.631
20
-103.958
11
113.631
21
-103.958
0
LINE
8
BLACK
6
CONTINUOUS
10
113.631
20
-103.958
11
113.631
21
-103.958
  0
ENDSEC
  0
EOF
