  0
SECTION
  2
HEADER
  9
$ANGBASE
  50
0.0
  9
$ANGDIR
  70
1
  9
$MEASUREMENT
  70
1
  0
ENDSEC
  0
SECTION
  2
TABLES
  0
TABLE
  2
LTYPE
  70
4
  0
LTYPE
  5
40F
  2
CONTINUOUS
  70
0
  3
Solid line
  72
65
  73
0
  40
0.0
  0
LTYPE
  5
410
  2
DASHDOT
 70
0
  3
Dash Dot ____ _ ____ _
 72
65
 73
4
 40
2.0
 49
1.25
 49
-0.25
 49
0.25
 49
-0.25
  0
LTYPE
  5
411
  2
DASHED
 70
0
  3
Dashed __ __ __ __ __
 72
65
 73
2
 40
0.75
 49
0.5
 49
-0.25
  0
LTYPE
  5
43B
  2
DOTTED
 70
0
  3
Dotted .  .  .  .
 72
65
 73
2
 40
0.2
 49
0.0
 49
-0.2
  0
ENDTAB
  0
TABLE
  2
STYLE
  70
4
  0
STYLE
  2
KICAD
  70
0
  40
0
  41
1
  42
1
  50
0
  71
0
  3
isocp.shx
  0
STYLE
  2
KICADB
  70
0
  40
0
  41
1
  42
1
  50
0
  71
0
  3
isocp.shx
  0
STYLE
  2
KICADI
  70
0
  40
0
  41
1
  42
1
  50
15
  71
0
  3
isocp.shx
  0
STYLE
  2
KICADBI
  70
0
  40
0
  41
1
  42
1
  50
15
  71
0
  3
isocp.shx
  0
ENDTAB
  0
TABLE
  2
LAYER
  70
1
  0
LAYER
  2
BLACK
  70
0
  62
7
  6
CONTINUOUS
  0
ENDTAB
  0
ENDSEC
  0
SECTION
  2
ENTITIES
0
LINE
8
BLACK
6
CONTINUOUS
10
185.448
20
-116.375
11
186.039
21
-116.62
0
LINE
8
BLACK
6
CONTINUOUS
10
186.039
20
-116.62
11
186.572
21
-116.976
0
LINE
8
BLACK
6
CONTINUOUS
10
186.572
20
-116.976
11
187.024
21
-117.428
0
LINE
8
BLACK
6
CONTINUOUS
10
187.024
20
-117.428
11
187.38
21
-117.961
0
LINE
8
BLACK
6
CONTINUOUS
10
187.38
20
-117.961
11
187.625
21
-118.552
0
LINE
8
BLACK
6
CONTINUOUS
10
187.625
20
-118.552
11
187.75
21
-119.18
0
LINE
8
BLACK
6
CONTINUOUS
10
187.75
20
-119.18
11
187.75
21
-119.82
0
LINE
8
BLACK
6
CONTINUOUS
10
187.75
20
-119.82
11
187.625
21
-120.448
0
LINE
8
BLACK
6
CONTINUOUS
10
187.625
20
-120.448
11
187.38
21
-121.039
0
LINE
8
BLACK
6
CONTINUOUS
10
187.38
20
-121.039
11
187.024
21
-121.572
0
LINE
8
BLACK
6
CONTINUOUS
10
187.024
20
-121.572
11
186.572
21
-122.024
0
LINE
8
BLACK
6
CONTINUOUS
10
186.572
20
-122.024
11
186.039
21
-122.38
0
LINE
8
BLACK
6
CONTINUOUS
10
186.039
20
-122.38
11
185.448
21
-122.625
0
LINE
8
BLACK
6
CONTINUOUS
10
185.448
20
-122.625
11
184.82
21
-122.75
0
LINE
8
BLACK
6
CONTINUOUS
10
184.82
20
-122.75
11
184.18
21
-122.75
0
LINE
8
BLACK
6
CONTINUOUS
10
184.18
20
-122.75
11
183.552
21
-122.625
0
LINE
8
BLACK
6
CONTINUOUS
10
183.552
20
-122.625
11
182.961
21
-122.38
0
LINE
8
BLACK
6
CONTINUOUS
10
182.961
20
-122.38
11
182.428
21
-122.024
0
LINE
8
BLACK
6
CONTINUOUS
10
182.428
20
-122.024
11
181.976
21
-121.572
0
LINE
8
BLACK
6
CONTINUOUS
10
181.976
20
-121.572
11
181.62
21
-121.039
0
LINE
8
BLACK
6
CONTINUOUS
10
181.62
20
-121.039
11
181.375
21
-120.448
0
LINE
8
BLACK
6
CONTINUOUS
10
181.375
20
-120.448
11
181.25
21
-119.82
0
LINE
8
BLACK
6
CONTINUOUS
10
181.25
20
-119.82
11
181.25
21
-119.18
0
LINE
8
BLACK
6
CONTINUOUS
10
181.25
20
-119.18
11
181.375
21
-118.552
0
LINE
8
BLACK
6
CONTINUOUS
10
181.375
20
-118.552
11
181.62
21
-117.961
0
LINE
8
BLACK
6
CONTINUOUS
10
181.62
20
-117.961
11
181.976
21
-117.428
0
LINE
8
BLACK
6
CONTINUOUS
10
181.976
20
-117.428
11
182.428
21
-116.976
0
LINE
8
BLACK
6
CONTINUOUS
10
182.428
20
-116.976
11
182.961
21
-116.62
0
LINE
8
BLACK
6
CONTINUOUS
10
182.961
20
-116.62
11
183.552
21
-116.375
0
LINE
8
BLACK
6
CONTINUOUS
10
183.552
20
-116.375
11
184.18
21
-116.25
0
LINE
8
BLACK
6
CONTINUOUS
10
184.18
20
-116.25
11
184.82
21
-116.25
0
LINE
8
BLACK
6
CONTINUOUS
10
184.82
20
-116.25
11
185.448
21
-116.375
0
LINE
8
BLACK
6
CONTINUOUS
10
118.448
20
-116.375
11
119.039
21
-116.62
0
LINE
8
BLACK
6
CONTINUOUS
10
119.039
20
-116.62
11
119.572
21
-116.976
0
LINE
8
BLACK
6
CONTINUOUS
10
119.572
20
-116.976
11
120.024
21
-117.428
0
LINE
8
BLACK
6
CONTINUOUS
10
120.024
20
-117.428
11
120.38
21
-117.961
0
LINE
8
BLACK
6
CONTINUOUS
10
120.38
20
-117.961
11
120.625
21
-118.552
0
LINE
8
BLACK
6
CONTINUOUS
10
120.625
20
-118.552
11
120.75
21
-119.18
0
LINE
8
BLACK
6
CONTINUOUS
10
120.75
20
-119.18
11
120.75
21
-119.82
0
LINE
8
BLACK
6
CONTINUOUS
10
120.75
20
-119.82
11
120.625
21
-120.448
0
LINE
8
BLACK
6
CONTINUOUS
10
120.625
20
-120.448
11
120.38
21
-121.039
0
LINE
8
BLACK
6
CONTINUOUS
10
120.38
20
-121.039
11
120.024
21
-121.572
0
LINE
8
BLACK
6
CONTINUOUS
10
120.024
20
-121.572
11
119.572
21
-122.024
0
LINE
8
BLACK
6
CONTINUOUS
10
119.572
20
-122.024
11
119.039
21
-122.38
0
LINE
8
BLACK
6
CONTINUOUS
10
119.039
20
-122.38
11
118.448
21
-122.625
0
LINE
8
BLACK
6
CONTINUOUS
10
118.448
20
-122.625
11
117.82
21
-122.75
0
LINE
8
BLACK
6
CONTINUOUS
10
117.82
20
-122.75
11
117.18
21
-122.75
0
LINE
8
BLACK
6
CONTINUOUS
10
117.18
20
-122.75
11
116.552
21
-122.625
0
LINE
8
BLACK
6
CONTINUOUS
10
116.552
20
-122.625
11
115.961
21
-122.38
0
LINE
8
BLACK
6
CONTINUOUS
10
115.961
20
-122.38
11
115.428
21
-122.024
0
LINE
8
BLACK
6
CONTINUOUS
10
115.428
20
-122.024
11
114.976
21
-121.572
0
LINE
8
BLACK
6
CONTINUOUS
10
114.976
20
-121.572
11
114.62
21
-121.039
0
LINE
8
BLACK
6
CONTINUOUS
10
114.62
20
-121.039
11
114.375
21
-120.448
0
LINE
8
BLACK
6
CONTINUOUS
10
114.375
20
-120.448
11
114.25
21
-119.82
0
LINE
8
BLACK
6
CONTINUOUS
10
114.25
20
-119.82
11
114.25
21
-119.18
0
LINE
8
BLACK
6
CONTINUOUS
10
114.25
20
-119.18
11
114.375
21
-118.552
0
LINE
8
BLACK
6
CONTINUOUS
10
114.375
20
-118.552
11
114.62
21
-117.961
0
LINE
8
BLACK
6
CONTINUOUS
10
114.62
20
-117.961
11
114.976
21
-117.428
0
LINE
8
BLACK
6
CONTINUOUS
10
114.976
20
-117.428
11
115.428
21
-116.976
0
LINE
8
BLACK
6
CONTINUOUS
10
115.428
20
-116.976
11
115.961
21
-116.62
0
LINE
8
BLACK
6
CONTINUOUS
10
115.961
20
-116.62
11
116.552
21
-116.375
0
LINE
8
BLACK
6
CONTINUOUS
10
116.552
20
-116.375
11
117.18
21
-116.25
0
LINE
8
BLACK
6
CONTINUOUS
10
117.18
20
-116.25
11
117.82
21
-116.25
0
LINE
8
BLACK
6
CONTINUOUS
10
117.82
20
-116.25
11
118.448
21
-116.375
0
LINE
8
BLACK
6
CONTINUOUS
10
121.427
20
-111.865
11
121.668
21
-111.965
0
LINE
8
BLACK
6
CONTINUOUS
10
121.668
20
-111.965
11
121.885
21
-112.11
0
LINE
8
BLACK
6
CONTINUOUS
10
121.885
20
-112.11
11
122.07
21
-112.295
0
LINE
8
BLACK
6
CONTINUOUS
10
122.07
20
-112.295
11
122.215
21
-112.512
0
LINE
8
BLACK
6
CONTINUOUS
10
122.215
20
-112.512
11
122.315
21
-112.753
0
LINE
8
BLACK
6
CONTINUOUS
10
122.315
20
-112.753
11
122.366
21
-113.009
0
LINE
8
BLACK
6
CONTINUOUS
10
122.366
20
-113.009
11
122.366
21
-113.271
0
LINE
8
BLACK
6
CONTINUOUS
10
122.366
20
-113.271
11
122.315
21
-113.527
0
LINE
8
BLACK
6
CONTINUOUS
10
122.315
20
-113.527
11
122.215
21
-113.768
0
LINE
8
BLACK
6
CONTINUOUS
10
122.215
20
-113.768
11
122.07
21
-113.985
0
LINE
8
BLACK
6
CONTINUOUS
10
122.07
20
-113.985
11
121.885
21
-114.17
0
LINE
8
BLACK
6
CONTINUOUS
10
121.885
20
-114.17
11
121.668
21
-114.315
0
LINE
8
BLACK
6
CONTINUOUS
10
121.668
20
-114.315
11
121.427
21
-114.415
0
LINE
8
BLACK
6
CONTINUOUS
10
121.427
20
-114.415
11
121.171
21
-114.466
0
LINE
8
BLACK
6
CONTINUOUS
10
121.171
20
-114.466
11
120.909
21
-114.466
0
LINE
8
BLACK
6
CONTINUOUS
10
120.909
20
-114.466
11
120.653
21
-114.415
0
LINE
8
BLACK
6
CONTINUOUS
10
120.653
20
-114.415
11
120.412
21
-114.315
0
LINE
8
BLACK
6
CONTINUOUS
10
120.412
20
-114.315
11
120.195
21
-114.17
0
LINE
8
BLACK
6
CONTINUOUS
10
120.195
20
-114.17
11
120.01
21
-113.985
0
LINE
8
BLACK
6
CONTINUOUS
10
120.01
20
-113.985
11
119.865
21
-113.768
0
LINE
8
BLACK
6
CONTINUOUS
10
119.865
20
-113.768
11
119.765
21
-113.527
0
LINE
8
BLACK
6
CONTINUOUS
10
119.765
20
-113.527
11
119.714
21
-113.271
0
LINE
8
BLACK
6
CONTINUOUS
10
119.714
20
-113.271
11
119.714
21
-113.009
0
LINE
8
BLACK
6
CONTINUOUS
10
119.714
20
-113.009
11
119.765
21
-112.753
0
LINE
8
BLACK
6
CONTINUOUS
10
119.765
20
-112.753
11
119.865
21
-112.512
0
LINE
8
BLACK
6
CONTINUOUS
10
119.865
20
-112.512
11
120.01
21
-112.295
0
LINE
8
BLACK
6
CONTINUOUS
10
120.01
20
-112.295
11
120.195
21
-112.11
0
LINE
8
BLACK
6
CONTINUOUS
10
120.195
20
-112.11
11
120.412
21
-111.965
0
LINE
8
BLACK
6
CONTINUOUS
10
120.412
20
-111.965
11
120.653
21
-111.865
0
LINE
8
BLACK
6
CONTINUOUS
10
120.653
20
-111.865
11
120.909
21
-111.814
0
LINE
8
BLACK
6
CONTINUOUS
10
120.909
20
-111.814
11
121.171
21
-111.814
0
LINE
8
BLACK
6
CONTINUOUS
10
121.171
20
-111.814
11
121.427
21
-111.865
0
LINE
8
BLACK
6
CONTINUOUS
10
116.347
20
-111.865
11
116.588
21
-111.965
0
LINE
8
BLACK
6
CONTINUOUS
10
116.588
20
-111.965
11
116.805
21
-112.11
0
LINE
8
BLACK
6
CONTINUOUS
10
116.805
20
-112.11
11
116.99
21
-112.295
0
LINE
8
BLACK
6
CONTINUOUS
10
116.99
20
-112.295
11
117.135
21
-112.512
0
LINE
8
BLACK
6
CONTINUOUS
10
117.135
20
-112.512
11
117.235
21
-112.753
0
LINE
8
BLACK
6
CONTINUOUS
10
117.235
20
-112.753
11
117.286
21
-113.009
0
LINE
8
BLACK
6
CONTINUOUS
10
117.286
20
-113.009
11
117.286
21
-113.271
0
LINE
8
BLACK
6
CONTINUOUS
10
117.286
20
-113.271
11
117.235
21
-113.527
0
LINE
8
BLACK
6
CONTINUOUS
10
117.235
20
-113.527
11
117.135
21
-113.768
0
LINE
8
BLACK
6
CONTINUOUS
10
117.135
20
-113.768
11
116.99
21
-113.985
0
LINE
8
BLACK
6
CONTINUOUS
10
116.99
20
-113.985
11
116.805
21
-114.17
0
LINE
8
BLACK
6
CONTINUOUS
10
116.805
20
-114.17
11
116.588
21
-114.315
0
LINE
8
BLACK
6
CONTINUOUS
10
116.588
20
-114.315
11
116.347
21
-114.415
0
LINE
8
BLACK
6
CONTINUOUS
10
116.347
20
-114.415
11
116.091
21
-114.466
0
LINE
8
BLACK
6
CONTINUOUS
10
116.091
20
-114.466
11
115.829
21
-114.466
0
LINE
8
BLACK
6
CONTINUOUS
10
115.829
20
-114.466
11
115.573
21
-114.415
0
LINE
8
BLACK
6
CONTINUOUS
10
115.573
20
-114.415
11
115.332
21
-114.315
0
LINE
8
BLACK
6
CONTINUOUS
10
115.332
20
-114.315
11
115.115
21
-114.17
0
LINE
8
BLACK
6
CONTINUOUS
10
115.115
20
-114.17
11
114.93
21
-113.985
0
LINE
8
BLACK
6
CONTINUOUS
10
114.93
20
-113.985
11
114.785
21
-113.768
0
LINE
8
BLACK
6
CONTINUOUS
10
114.785
20
-113.768
11
114.685
21
-113.527
0
LINE
8
BLACK
6
CONTINUOUS
10
114.685
20
-113.527
11
114.634
21
-113.271
0
LINE
8
BLACK
6
CONTINUOUS
10
114.634
20
-113.271
11
114.634
21
-113.009
0
LINE
8
BLACK
6
CONTINUOUS
10
114.634
20
-113.009
11
114.685
21
-112.753
0
LINE
8
BLACK
6
CONTINUOUS
10
114.685
20
-112.753
11
114.785
21
-112.512
0
LINE
8
BLACK
6
CONTINUOUS
10
114.785
20
-112.512
11
114.93
21
-112.295
0
LINE
8
BLACK
6
CONTINUOUS
10
114.93
20
-112.295
11
115.115
21
-112.11
0
LINE
8
BLACK
6
CONTINUOUS
10
115.115
20
-112.11
11
115.332
21
-111.965
0
LINE
8
BLACK
6
CONTINUOUS
10
115.332
20
-111.965
11
115.573
21
-111.865
0
LINE
8
BLACK
6
CONTINUOUS
10
115.573
20
-111.865
11
115.829
21
-111.814
0
LINE
8
BLACK
6
CONTINUOUS
10
115.829
20
-111.814
11
116.091
21
-111.814
0
LINE
8
BLACK
6
CONTINUOUS
10
116.091
20
-111.814
11
116.347
21
-111.865
0
LINE
8
BLACK
6
CONTINUOUS
10
118.904
20
-109.27
11
119.155
21
-109.374
0
LINE
8
BLACK
6
CONTINUOUS
10
119.155
20
-109.374
11
119.382
21
-109.525
0
LINE
8
BLACK
6
CONTINUOUS
10
119.382
20
-109.525
11
119.575
21
-109.718
0
LINE
8
BLACK
6
CONTINUOUS
10
119.575
20
-109.718
11
119.726
21
-109.945
0
LINE
8
BLACK
6
CONTINUOUS
10
119.726
20
-109.945
11
119.83
21
-110.196
0
LINE
8
BLACK
6
CONTINUOUS
10
119.83
20
-110.196
11
119.883
21
-110.464
0
LINE
8
BLACK
6
CONTINUOUS
10
119.883
20
-110.464
11
119.883
21
-110.736
0
LINE
8
BLACK
6
CONTINUOUS
10
119.883
20
-110.736
11
119.83
21
-111.004
0
LINE
8
BLACK
6
CONTINUOUS
10
119.83
20
-111.004
11
119.726
21
-111.255
0
LINE
8
BLACK
6
CONTINUOUS
10
119.726
20
-111.255
11
119.575
21
-111.482
0
LINE
8
BLACK
6
CONTINUOUS
10
119.575
20
-111.482
11
119.382
21
-111.675
0
LINE
8
BLACK
6
CONTINUOUS
10
119.382
20
-111.675
11
119.155
21
-111.826
0
LINE
8
BLACK
6
CONTINUOUS
10
119.155
20
-111.826
11
118.904
21
-111.93
0
LINE
8
BLACK
6
CONTINUOUS
10
118.904
20
-111.93
11
118.636
21
-111.983
0
LINE
8
BLACK
6
CONTINUOUS
10
118.636
20
-111.983
11
118.364
21
-111.983
0
LINE
8
BLACK
6
CONTINUOUS
10
118.364
20
-111.983
11
118.096
21
-111.93
0
LINE
8
BLACK
6
CONTINUOUS
10
118.096
20
-111.93
11
117.845
21
-111.826
0
LINE
8
BLACK
6
CONTINUOUS
10
117.845
20
-111.826
11
117.618
21
-111.675
0
LINE
8
BLACK
6
CONTINUOUS
10
117.618
20
-111.675
11
117.425
21
-111.482
0
LINE
8
BLACK
6
CONTINUOUS
10
117.425
20
-111.482
11
117.274
21
-111.255
0
LINE
8
BLACK
6
CONTINUOUS
10
117.274
20
-111.255
11
117.17
21
-111.004
0
LINE
8
BLACK
6
CONTINUOUS
10
117.17
20
-111.004
11
117.116
21
-110.736
0
LINE
8
BLACK
6
CONTINUOUS
10
117.116
20
-110.736
11
117.116
21
-110.464
0
LINE
8
BLACK
6
CONTINUOUS
10
117.116
20
-110.464
11
117.17
21
-110.196
0
LINE
8
BLACK
6
CONTINUOUS
10
117.17
20
-110.196
11
117.274
21
-109.945
0
LINE
8
BLACK
6
CONTINUOUS
10
117.274
20
-109.945
11
117.425
21
-109.718
0
LINE
8
BLACK
6
CONTINUOUS
10
117.425
20
-109.718
11
117.618
21
-109.525
0
LINE
8
BLACK
6
CONTINUOUS
10
117.618
20
-109.525
11
117.845
21
-109.374
0
LINE
8
BLACK
6
CONTINUOUS
10
117.845
20
-109.374
11
118.096
21
-109.27
0
LINE
8
BLACK
6
CONTINUOUS
10
118.096
20
-109.27
11
118.364
21
-109.216
0
LINE
8
BLACK
6
CONTINUOUS
10
118.364
20
-109.216
11
118.636
21
-109.216
0
LINE
8
BLACK
6
CONTINUOUS
10
118.636
20
-109.216
11
118.904
21
-109.27
0
LINE
8
BLACK
6
CONTINUOUS
10
116.347
20
-106.785
11
116.588
21
-106.885
0
LINE
8
BLACK
6
CONTINUOUS
10
116.588
20
-106.885
11
116.805
21
-107.03
0
LINE
8
BLACK
6
CONTINUOUS
10
116.805
20
-107.03
11
116.99
21
-107.215
0
LINE
8
BLACK
6
CONTINUOUS
10
116.99
20
-107.215
11
117.135
21
-107.432
0
LINE
8
BLACK
6
CONTINUOUS
10
117.135
20
-107.432
11
117.235
21
-107.673
0
LINE
8
BLACK
6
CONTINUOUS
10
117.235
20
-107.673
11
117.286
21
-107.929
0
LINE
8
BLACK
6
CONTINUOUS
10
117.286
20
-107.929
11
117.286
21
-108.191
0
LINE
8
BLACK
6
CONTINUOUS
10
117.286
20
-108.191
11
117.235
21
-108.447
0
LINE
8
BLACK
6
CONTINUOUS
10
117.235
20
-108.447
11
117.135
21
-108.688
0
LINE
8
BLACK
6
CONTINUOUS
10
117.135
20
-108.688
11
116.99
21
-108.905
0
LINE
8
BLACK
6
CONTINUOUS
10
116.99
20
-108.905
11
116.805
21
-109.09
0
LINE
8
BLACK
6
CONTINUOUS
10
116.805
20
-109.09
11
116.588
21
-109.235
0
LINE
8
BLACK
6
CONTINUOUS
10
116.588
20
-109.235
11
116.347
21
-109.335
0
LINE
8
BLACK
6
CONTINUOUS
10
116.347
20
-109.335
11
116.091
21
-109.386
0
LINE
8
BLACK
6
CONTINUOUS
10
116.091
20
-109.386
11
115.829
21
-109.386
0
LINE
8
BLACK
6
CONTINUOUS
10
115.829
20
-109.386
11
115.573
21
-109.335
0
LINE
8
BLACK
6
CONTINUOUS
10
115.573
20
-109.335
11
115.332
21
-109.235
0
LINE
8
BLACK
6
CONTINUOUS
10
115.332
20
-109.235
11
115.115
21
-109.09
0
LINE
8
BLACK
6
CONTINUOUS
10
115.115
20
-109.09
11
114.93
21
-108.905
0
LINE
8
BLACK
6
CONTINUOUS
10
114.93
20
-108.905
11
114.785
21
-108.688
0
LINE
8
BLACK
6
CONTINUOUS
10
114.785
20
-108.688
11
114.685
21
-108.447
0
LINE
8
BLACK
6
CONTINUOUS
10
114.685
20
-108.447
11
114.634
21
-108.191
0
LINE
8
BLACK
6
CONTINUOUS
10
114.634
20
-108.191
11
114.634
21
-107.929
0
LINE
8
BLACK
6
CONTINUOUS
10
114.634
20
-107.929
11
114.685
21
-107.673
0
LINE
8
BLACK
6
CONTINUOUS
10
114.685
20
-107.673
11
114.785
21
-107.432
0
LINE
8
BLACK
6
CONTINUOUS
10
114.785
20
-107.432
11
114.93
21
-107.215
0
LINE
8
BLACK
6
CONTINUOUS
10
114.93
20
-107.215
11
115.115
21
-107.03
0
LINE
8
BLACK
6
CONTINUOUS
10
115.115
20
-107.03
11
115.332
21
-106.885
0
LINE
8
BLACK
6
CONTINUOUS
10
115.332
20
-106.885
11
115.573
21
-106.785
0
LINE
8
BLACK
6
CONTINUOUS
10
115.573
20
-106.785
11
115.829
21
-106.734
0
LINE
8
BLACK
6
CONTINUOUS
10
115.829
20
-106.734
11
116.091
21
-106.734
0
LINE
8
BLACK
6
CONTINUOUS
10
116.091
20
-106.734
11
116.347
21
-106.785
0
LINE
8
BLACK
6
CONTINUOUS
10
121.427
20
-106.785
11
121.668
21
-106.885
0
LINE
8
BLACK
6
CONTINUOUS
10
121.668
20
-106.885
11
121.885
21
-107.03
0
LINE
8
BLACK
6
CONTINUOUS
10
121.885
20
-107.03
11
122.07
21
-107.215
0
LINE
8
BLACK
6
CONTINUOUS
10
122.07
20
-107.215
11
122.215
21
-107.432
0
LINE
8
BLACK
6
CONTINUOUS
10
122.215
20
-107.432
11
122.315
21
-107.673
0
LINE
8
BLACK
6
CONTINUOUS
10
122.315
20
-107.673
11
122.366
21
-107.929
0
LINE
8
BLACK
6
CONTINUOUS
10
122.366
20
-107.929
11
122.366
21
-108.191
0
LINE
8
BLACK
6
CONTINUOUS
10
122.366
20
-108.191
11
122.315
21
-108.447
0
LINE
8
BLACK
6
CONTINUOUS
10
122.315
20
-108.447
11
122.215
21
-108.688
0
LINE
8
BLACK
6
CONTINUOUS
10
122.215
20
-108.688
11
122.07
21
-108.905
0
LINE
8
BLACK
6
CONTINUOUS
10
122.07
20
-108.905
11
121.885
21
-109.09
0
LINE
8
BLACK
6
CONTINUOUS
10
121.885
20
-109.09
11
121.668
21
-109.235
0
LINE
8
BLACK
6
CONTINUOUS
10
121.668
20
-109.235
11
121.427
21
-109.335
0
LINE
8
BLACK
6
CONTINUOUS
10
121.427
20
-109.335
11
121.171
21
-109.386
0
LINE
8
BLACK
6
CONTINUOUS
10
121.171
20
-109.386
11
120.909
21
-109.386
0
LINE
8
BLACK
6
CONTINUOUS
10
120.909
20
-109.386
11
120.653
21
-109.335
0
LINE
8
BLACK
6
CONTINUOUS
10
120.653
20
-109.335
11
120.412
21
-109.235
0
LINE
8
BLACK
6
CONTINUOUS
10
120.412
20
-109.235
11
120.195
21
-109.09
0
LINE
8
BLACK
6
CONTINUOUS
10
120.195
20
-109.09
11
120.01
21
-108.905
0
LINE
8
BLACK
6
CONTINUOUS
10
120.01
20
-108.905
11
119.865
21
-108.688
0
LINE
8
BLACK
6
CONTINUOUS
10
119.865
20
-108.688
11
119.765
21
-108.447
0
LINE
8
BLACK
6
CONTINUOUS
10
119.765
20
-108.447
11
119.714
21
-108.191
0
LINE
8
BLACK
6
CONTINUOUS
10
119.714
20
-108.191
11
119.714
21
-107.929
0
LINE
8
BLACK
6
CONTINUOUS
10
119.714
20
-107.929
11
119.765
21
-107.673
0
LINE
8
BLACK
6
CONTINUOUS
10
119.765
20
-107.673
11
119.865
21
-107.432
0
LINE
8
BLACK
6
CONTINUOUS
10
119.865
20
-107.432
11
120.01
21
-107.215
0
LINE
8
BLACK
6
CONTINUOUS
10
120.01
20
-107.215
11
120.195
21
-107.03
0
LINE
8
BLACK
6
CONTINUOUS
10
120.195
20
-107.03
11
120.412
21
-106.885
0
LINE
8
BLACK
6
CONTINUOUS
10
120.412
20
-106.885
11
120.653
21
-106.785
0
LINE
8
BLACK
6
CONTINUOUS
10
120.653
20
-106.785
11
120.909
21
-106.734
0
LINE
8
BLACK
6
CONTINUOUS
10
120.909
20
-106.734
11
121.171
21
-106.734
0
LINE
8
BLACK
6
CONTINUOUS
10
121.171
20
-106.734
11
121.427
21
-106.785
0
LINE
8
BLACK
6
CONTINUOUS
10
135.406
20
-107.633
11
135.439
21
-107.643
0
LINE
8
BLACK
6
CONTINUOUS
10
135.439
20
-107.643
11
135.468
21
-107.659
0
LINE
8
BLACK
6
CONTINUOUS
10
135.468
20
-107.659
11
135.494
21
-107.681
0
LINE
8
BLACK
6
CONTINUOUS
10
135.494
20
-107.681
11
135.516
21
-107.707
0
LINE
8
BLACK
6
CONTINUOUS
10
135.516
20
-107.707
11
135.532
21
-107.736
0
LINE
8
BLACK
6
CONTINUOUS
10
135.532
20
-107.736
11
135.542
21
-107.769
0
LINE
8
BLACK
6
CONTINUOUS
10
135.542
20
-107.769
11
135.545
21
-107.802
0
LINE
8
BLACK
6
CONTINUOUS
10
135.545
20
-107.802
11
135.545
21
-108.197
0
LINE
8
BLACK
6
CONTINUOUS
10
135.545
20
-108.197
11
135.542
21
-108.231
0
LINE
8
BLACK
6
CONTINUOUS
10
135.542
20
-108.231
11
135.532
21
-108.264
0
LINE
8
BLACK
6
CONTINUOUS
10
135.532
20
-108.264
11
135.516
21
-108.293
0
LINE
8
BLACK
6
CONTINUOUS
10
135.516
20
-108.293
11
135.494
21
-108.319
0
LINE
8
BLACK
6
CONTINUOUS
10
135.494
20
-108.319
11
135.468
21
-108.341
0
LINE
8
BLACK
6
CONTINUOUS
10
135.468
20
-108.341
11
135.439
21
-108.357
0
LINE
8
BLACK
6
CONTINUOUS
10
135.439
20
-108.357
11
135.406
21
-108.367
0
LINE
8
BLACK
6
CONTINUOUS
10
135.406
20
-108.367
11
135.373
21
-108.37
0
LINE
8
BLACK
6
CONTINUOUS
10
135.373
20
-108.37
11
135.028
21
-108.37
0
LINE
8
BLACK
6
CONTINUOUS
10
135.028
20
-108.37
11
134.994
21
-108.367
0
LINE
8
BLACK
6
CONTINUOUS
10
134.994
20
-108.367
11
134.961
21
-108.357
0
LINE
8
BLACK
6
CONTINUOUS
10
134.961
20
-108.357
11
134.932
21
-108.341
0
LINE
8
BLACK
6
CONTINUOUS
10
134.932
20
-108.341
11
134.906
21
-108.319
0
LINE
8
BLACK
6
CONTINUOUS
10
134.906
20
-108.319
11
134.884
21
-108.293
0
LINE
8
BLACK
6
CONTINUOUS
10
134.884
20
-108.293
11
134.868
21
-108.264
0
LINE
8
BLACK
6
CONTINUOUS
10
134.868
20
-108.264
11
134.858
21
-108.231
0
LINE
8
BLACK
6
CONTINUOUS
10
134.858
20
-108.231
11
134.855
21
-108.197
0
LINE
8
BLACK
6
CONTINUOUS
10
134.855
20
-108.197
11
134.855
21
-107.802
0
LINE
8
BLACK
6
CONTINUOUS
10
134.855
20
-107.802
11
134.858
21
-107.769
0
LINE
8
BLACK
6
CONTINUOUS
10
134.858
20
-107.769
11
134.868
21
-107.736
0
LINE
8
BLACK
6
CONTINUOUS
10
134.868
20
-107.736
11
134.884
21
-107.707
0
LINE
8
BLACK
6
CONTINUOUS
10
134.884
20
-107.707
11
134.906
21
-107.681
0
LINE
8
BLACK
6
CONTINUOUS
10
134.906
20
-107.681
11
134.932
21
-107.659
0
LINE
8
BLACK
6
CONTINUOUS
10
134.932
20
-107.659
11
134.961
21
-107.643
0
LINE
8
BLACK
6
CONTINUOUS
10
134.961
20
-107.643
11
134.994
21
-107.633
0
LINE
8
BLACK
6
CONTINUOUS
10
134.994
20
-107.633
11
135.028
21
-107.63
0
LINE
8
BLACK
6
CONTINUOUS
10
135.028
20
-107.63
11
135.373
21
-107.63
0
LINE
8
BLACK
6
CONTINUOUS
10
135.373
20
-107.63
11
135.406
21
-107.633
0
LINE
8
BLACK
6
CONTINUOUS
10
136.376
20
-107.633
11
136.409
21
-107.643
0
LINE
8
BLACK
6
CONTINUOUS
10
136.409
20
-107.643
11
136.438
21
-107.659
0
LINE
8
BLACK
6
CONTINUOUS
10
136.438
20
-107.659
11
136.464
21
-107.681
0
LINE
8
BLACK
6
CONTINUOUS
10
136.464
20
-107.681
11
136.486
21
-107.707
0
LINE
8
BLACK
6
CONTINUOUS
10
136.486
20
-107.707
11
136.502
21
-107.736
0
LINE
8
BLACK
6
CONTINUOUS
10
136.502
20
-107.736
11
136.512
21
-107.769
0
LINE
8
BLACK
6
CONTINUOUS
10
136.512
20
-107.769
11
136.515
21
-107.802
0
LINE
8
BLACK
6
CONTINUOUS
10
136.515
20
-107.802
11
136.515
21
-108.197
0
LINE
8
BLACK
6
CONTINUOUS
10
136.515
20
-108.197
11
136.512
21
-108.231
0
LINE
8
BLACK
6
CONTINUOUS
10
136.512
20
-108.231
11
136.502
21
-108.264
0
LINE
8
BLACK
6
CONTINUOUS
10
136.502
20
-108.264
11
136.486
21
-108.293
0
LINE
8
BLACK
6
CONTINUOUS
10
136.486
20
-108.293
11
136.464
21
-108.319
0
LINE
8
BLACK
6
CONTINUOUS
10
136.464
20
-108.319
11
136.438
21
-108.341
0
LINE
8
BLACK
6
CONTINUOUS
10
136.438
20
-108.341
11
136.409
21
-108.357
0
LINE
8
BLACK
6
CONTINUOUS
10
136.409
20
-108.357
11
136.376
21
-108.367
0
LINE
8
BLACK
6
CONTINUOUS
10
136.376
20
-108.367
11
136.343
21
-108.37
0
LINE
8
BLACK
6
CONTINUOUS
10
136.343
20
-108.37
11
135.998
21
-108.37
0
LINE
8
BLACK
6
CONTINUOUS
10
135.998
20
-108.37
11
135.964
21
-108.367
0
LINE
8
BLACK
6
CONTINUOUS
10
135.964
20
-108.367
11
135.931
21
-108.357
0
LINE
8
BLACK
6
CONTINUOUS
10
135.931
20
-108.357
11
135.902
21
-108.341
0
LINE
8
BLACK
6
CONTINUOUS
10
135.902
20
-108.341
11
135.876
21
-108.319
0
LINE
8
BLACK
6
CONTINUOUS
10
135.876
20
-108.319
11
135.854
21
-108.293
0
LINE
8
BLACK
6
CONTINUOUS
10
135.854
20
-108.293
11
135.838
21
-108.264
0
LINE
8
BLACK
6
CONTINUOUS
10
135.838
20
-108.264
11
135.828
21
-108.231
0
LINE
8
BLACK
6
CONTINUOUS
10
135.828
20
-108.231
11
135.825
21
-108.197
0
LINE
8
BLACK
6
CONTINUOUS
10
135.825
20
-108.197
11
135.825
21
-107.802
0
LINE
8
BLACK
6
CONTINUOUS
10
135.825
20
-107.802
11
135.828
21
-107.769
0
LINE
8
BLACK
6
CONTINUOUS
10
135.828
20
-107.769
11
135.838
21
-107.736
0
LINE
8
BLACK
6
CONTINUOUS
10
135.838
20
-107.736
11
135.854
21
-107.707
0
LINE
8
BLACK
6
CONTINUOUS
10
135.854
20
-107.707
11
135.876
21
-107.681
0
LINE
8
BLACK
6
CONTINUOUS
10
135.876
20
-107.681
11
135.902
21
-107.659
0
LINE
8
BLACK
6
CONTINUOUS
10
135.902
20
-107.659
11
135.931
21
-107.643
0
LINE
8
BLACK
6
CONTINUOUS
10
135.931
20
-107.643
11
135.964
21
-107.633
0
LINE
8
BLACK
6
CONTINUOUS
10
135.964
20
-107.633
11
135.998
21
-107.63
0
LINE
8
BLACK
6
CONTINUOUS
10
135.998
20
-107.63
11
136.343
21
-107.63
0
LINE
8
BLACK
6
CONTINUOUS
10
136.343
20
-107.63
11
136.376
21
-107.633
0
LINE
8
BLACK
6
CONTINUOUS
10
151.948
20
-97.8749
11
152.539
21
-98.1199
0
LINE
8
BLACK
6
CONTINUOUS
10
152.539
20
-98.1199
11
153.072
21
-98.4756
0
LINE
8
BLACK
6
CONTINUOUS
10
153.072
20
-98.4756
11
153.524
21
-98.9282
0
LINE
8
BLACK
6
CONTINUOUS
10
153.524
20
-98.9282
11
153.88
21
-99.4605
0
LINE
8
BLACK
6
CONTINUOUS
10
153.88
20
-99.4605
11
154.125
21
-100.052
0
LINE
8
BLACK
6
CONTINUOUS
10
154.125
20
-100.052
11
154.25
21
-100.68
0
LINE
8
BLACK
6
CONTINUOUS
10
154.25
20
-100.68
11
154.25
21
-101.32
0
LINE
8
BLACK
6
CONTINUOUS
10
154.25
20
-101.32
11
154.125
21
-101.948
0
LINE
8
BLACK
6
CONTINUOUS
10
154.125
20
-101.948
11
153.88
21
-102.539
0
LINE
8
BLACK
6
CONTINUOUS
10
153.88
20
-102.539
11
153.524
21
-103.072
0
LINE
8
BLACK
6
CONTINUOUS
10
153.524
20
-103.072
11
153.072
21
-103.524
0
LINE
8
BLACK
6
CONTINUOUS
10
153.072
20
-103.524
11
152.539
21
-103.88
0
LINE
8
BLACK
6
CONTINUOUS
10
152.539
20
-103.88
11
151.948
21
-104.125
0
LINE
8
BLACK
6
CONTINUOUS
10
151.948
20
-104.125
11
151.32
21
-104.25
0
LINE
8
BLACK
6
CONTINUOUS
10
151.32
20
-104.25
11
150.68
21
-104.25
0
LINE
8
BLACK
6
CONTINUOUS
10
150.68
20
-104.25
11
150.052
21
-104.125
0
LINE
8
BLACK
6
CONTINUOUS
10
150.052
20
-104.125
11
149.461
21
-103.88
0
LINE
8
BLACK
6
CONTINUOUS
10
149.461
20
-103.88
11
148.928
21
-103.524
0
LINE
8
BLACK
6
CONTINUOUS
10
148.928
20
-103.524
11
148.476
21
-103.072
0
LINE
8
BLACK
6
CONTINUOUS
10
148.476
20
-103.072
11
148.12
21
-102.539
0
LINE
8
BLACK
6
CONTINUOUS
10
148.12
20
-102.539
11
147.875
21
-101.948
0
LINE
8
BLACK
6
CONTINUOUS
10
147.875
20
-101.948
11
147.75
21
-101.32
0
LINE
8
BLACK
6
CONTINUOUS
10
147.75
20
-101.32
11
147.75
21
-100.68
0
LINE
8
BLACK
6
CONTINUOUS
10
147.75
20
-100.68
11
147.875
21
-100.052
0
LINE
8
BLACK
6
CONTINUOUS
10
147.875
20
-100.052
11
148.12
21
-99.4605
0
LINE
8
BLACK
6
CONTINUOUS
10
148.12
20
-99.4605
11
148.476
21
-98.9282
0
LINE
8
BLACK
6
CONTINUOUS
10
148.476
20
-98.9282
11
148.928
21
-98.4756
0
LINE
8
BLACK
6
CONTINUOUS
10
148.928
20
-98.4756
11
149.461
21
-98.1199
0
LINE
8
BLACK
6
CONTINUOUS
10
149.461
20
-98.1199
11
150.052
21
-97.8749
0
LINE
8
BLACK
6
CONTINUOUS
10
150.052
20
-97.8749
11
150.68
21
-97.75
0
LINE
8
BLACK
6
CONTINUOUS
10
150.68
20
-97.75
11
151.32
21
-97.75
0
LINE
8
BLACK
6
CONTINUOUS
10
151.32
20
-97.75
11
151.948
21
-97.8749
0
LINE
8
BLACK
6
CONTINUOUS
10
186.487
20
-95.7301
11
186.619
21
-95.7702
0
LINE
8
BLACK
6
CONTINUOUS
10
186.619
20
-95.7702
11
186.741
21
-95.8352
0
LINE
8
BLACK
6
CONTINUOUS
10
186.741
20
-95.8352
11
186.847
21
-95.9226
0
LINE
8
BLACK
6
CONTINUOUS
10
186.847
20
-95.9226
11
186.935
21
-96.0292
0
LINE
8
BLACK
6
CONTINUOUS
10
186.935
20
-96.0292
11
187
21
-96.1508
0
LINE
8
BLACK
6
CONTINUOUS
10
187
20
-96.1508
11
187.04
21
-96.2828
0
LINE
8
BLACK
6
CONTINUOUS
10
187.04
20
-96.2828
11
187.053
21
-96.42
0
LINE
8
BLACK
6
CONTINUOUS
10
187.053
20
-96.42
11
187.04
21
-96.5572
0
LINE
8
BLACK
6
CONTINUOUS
10
187.04
20
-96.5572
11
187
21
-96.6892
0
LINE
8
BLACK
6
CONTINUOUS
10
187
20
-96.6892
11
186.935
21
-96.8108
0
LINE
8
BLACK
6
CONTINUOUS
10
186.935
20
-96.8108
11
186.847
21
-96.9174
0
LINE
8
BLACK
6
CONTINUOUS
10
186.847
20
-96.9174
11
186.741
21
-97.0048
0
LINE
8
BLACK
6
CONTINUOUS
10
186.741
20
-97.0048
11
186.619
21
-97.0698
0
LINE
8
BLACK
6
CONTINUOUS
10
186.619
20
-97.0698
11
186.487
21
-97.1099
0
LINE
8
BLACK
6
CONTINUOUS
10
186.487
20
-97.1099
11
186.384
21
-97.12
0
LINE
8
BLACK
6
CONTINUOUS
10
186.384
20
-97.12
11
185.016
21
-97.12
0
LINE
8
BLACK
6
CONTINUOUS
10
185.016
20
-97.12
11
184.913
21
-97.1099
0
LINE
8
BLACK
6
CONTINUOUS
10
184.913
20
-97.1099
11
184.781
21
-97.0698
0
LINE
8
BLACK
6
CONTINUOUS
10
184.781
20
-97.0698
11
184.659
21
-97.0048
0
LINE
8
BLACK
6
CONTINUOUS
10
184.659
20
-97.0048
11
184.553
21
-96.9174
0
LINE
8
BLACK
6
CONTINUOUS
10
184.553
20
-96.9174
11
184.465
21
-96.8108
0
LINE
8
BLACK
6
CONTINUOUS
10
184.465
20
-96.8108
11
184.4
21
-96.6892
0
LINE
8
BLACK
6
CONTINUOUS
10
184.4
20
-96.6892
11
184.36
21
-96.5572
0
LINE
8
BLACK
6
CONTINUOUS
10
184.36
20
-96.5572
11
184.347
21
-96.42
0
LINE
8
BLACK
6
CONTINUOUS
10
184.347
20
-96.42
11
184.36
21
-96.2828
0
LINE
8
BLACK
6
CONTINUOUS
10
184.36
20
-96.2828
11
184.4
21
-96.1508
0
LINE
8
BLACK
6
CONTINUOUS
10
184.4
20
-96.1508
11
184.465
21
-96.0292
0
LINE
8
BLACK
6
CONTINUOUS
10
184.465
20
-96.0292
11
184.553
21
-95.9226
0
LINE
8
BLACK
6
CONTINUOUS
10
184.553
20
-95.9226
11
184.659
21
-95.8352
0
LINE
8
BLACK
6
CONTINUOUS
10
184.659
20
-95.8352
11
184.781
21
-95.7702
0
LINE
8
BLACK
6
CONTINUOUS
10
184.781
20
-95.7702
11
184.913
21
-95.7301
0
LINE
8
BLACK
6
CONTINUOUS
10
184.913
20
-95.7301
11
185.016
21
-95.72
0
LINE
8
BLACK
6
CONTINUOUS
10
185.016
20
-95.72
11
186.384
21
-95.72
0
LINE
8
BLACK
6
CONTINUOUS
10
186.384
20
-95.72
11
186.487
21
-95.7301
0
LINE
8
BLACK
6
CONTINUOUS
10
181.008
20
-95.8287
11
181.121
21
-95.863
0
LINE
8
BLACK
6
CONTINUOUS
10
181.121
20
-95.863
11
181.225
21
-95.9187
0
LINE
8
BLACK
6
CONTINUOUS
10
181.225
20
-95.9187
11
181.316
21
-95.9937
0
LINE
8
BLACK
6
CONTINUOUS
10
181.316
20
-95.9937
11
181.391
21
-96.085
0
LINE
8
BLACK
6
CONTINUOUS
10
181.391
20
-96.085
11
181.447
21
-96.1893
0
LINE
8
BLACK
6
CONTINUOUS
10
181.447
20
-96.1893
11
181.481
21
-96.3024
0
LINE
8
BLACK
6
CONTINUOUS
10
181.481
20
-96.3024
11
181.493
21
-96.42
0
LINE
8
BLACK
6
CONTINUOUS
10
181.493
20
-96.42
11
181.481
21
-96.5376
0
LINE
8
BLACK
6
CONTINUOUS
10
181.481
20
-96.5376
11
181.447
21
-96.6507
0
LINE
8
BLACK
6
CONTINUOUS
10
181.447
20
-96.6507
11
181.391
21
-96.755
0
LINE
8
BLACK
6
CONTINUOUS
10
181.391
20
-96.755
11
181.316
21
-96.8463
0
LINE
8
BLACK
6
CONTINUOUS
10
181.316
20
-96.8463
11
181.225
21
-96.9213
0
LINE
8
BLACK
6
CONTINUOUS
10
181.225
20
-96.9213
11
181.121
21
-96.977
0
LINE
8
BLACK
6
CONTINUOUS
10
181.121
20
-96.977
11
181.008
21
-97.0113
0
LINE
8
BLACK
6
CONTINUOUS
10
181.008
20
-97.0113
11
180.919
21
-97.02
0
LINE
8
BLACK
6
CONTINUOUS
10
180.919
20
-97.02
11
179.761
21
-97.02
0
LINE
8
BLACK
6
CONTINUOUS
10
179.761
20
-97.02
11
179.672
21
-97.0113
0
LINE
8
BLACK
6
CONTINUOUS
10
179.672
20
-97.0113
11
179.559
21
-96.977
0
LINE
8
BLACK
6
CONTINUOUS
10
179.559
20
-96.977
11
179.455
21
-96.9213
0
LINE
8
BLACK
6
CONTINUOUS
10
179.455
20
-96.9213
11
179.364
21
-96.8463
0
LINE
8
BLACK
6
CONTINUOUS
10
179.364
20
-96.8463
11
179.289
21
-96.755
0
LINE
8
BLACK
6
CONTINUOUS
10
179.289
20
-96.755
11
179.233
21
-96.6507
0
LINE
8
BLACK
6
CONTINUOUS
10
179.233
20
-96.6507
11
179.199
21
-96.5376
0
LINE
8
BLACK
6
CONTINUOUS
10
179.199
20
-96.5376
11
179.187
21
-96.42
0
LINE
8
BLACK
6
CONTINUOUS
10
179.187
20
-96.42
11
179.199
21
-96.3024
0
LINE
8
BLACK
6
CONTINUOUS
10
179.199
20
-96.3024
11
179.233
21
-96.1893
0
LINE
8
BLACK
6
CONTINUOUS
10
179.233
20
-96.1893
11
179.289
21
-96.085
0
LINE
8
BLACK
6
CONTINUOUS
10
179.289
20
-96.085
11
179.364
21
-95.9937
0
LINE
8
BLACK
6
CONTINUOUS
10
179.364
20
-95.9937
11
179.455
21
-95.9187
0
LINE
8
BLACK
6
CONTINUOUS
10
179.455
20
-95.9187
11
179.559
21
-95.863
0
LINE
8
BLACK
6
CONTINUOUS
10
179.559
20
-95.863
11
179.672
21
-95.8287
0
LINE
8
BLACK
6
CONTINUOUS
10
179.672
20
-95.8287
11
179.761
21
-95.82
0
LINE
8
BLACK
6
CONTINUOUS
10
179.761
20
-95.82
11
180.919
21
-95.82
0
LINE
8
BLACK
6
CONTINUOUS
10
180.919
20
-95.82
11
181.008
21
-95.8287
0
LINE
8
BLACK
6
CONTINUOUS
10
169.621
20
-94.5333
11
169.654
21
-94.5431
0
LINE
8
BLACK
6
CONTINUOUS
10
169.654
20
-94.5431
11
169.683
21
-94.5591
0
LINE
8
BLACK
6
CONTINUOUS
10
169.683
20
-94.5591
11
169.709
21
-94.5805
0
LINE
8
BLACK
6
CONTINUOUS
10
169.709
20
-94.5805
11
169.731
21
-94.6067
0
LINE
8
BLACK
6
CONTINUOUS
10
169.731
20
-94.6067
11
169.747
21
-94.6365
0
LINE
8
BLACK
6
CONTINUOUS
10
169.747
20
-94.6365
11
169.757
21
-94.6688
0
LINE
8
BLACK
6
CONTINUOUS
10
169.757
20
-94.6688
11
169.76
21
-94.7025
0
LINE
8
BLACK
6
CONTINUOUS
10
169.76
20
-94.7025
11
169.76
21
-95.0975
0
LINE
8
BLACK
6
CONTINUOUS
10
169.76
20
-95.0975
11
169.757
21
-95.1312
0
LINE
8
BLACK
6
CONTINUOUS
10
169.757
20
-95.1312
11
169.747
21
-95.1635
0
LINE
8
BLACK
6
CONTINUOUS
10
169.747
20
-95.1635
11
169.731
21
-95.1933
0
LINE
8
BLACK
6
CONTINUOUS
10
169.731
20
-95.1933
11
169.709
21
-95.2195
0
LINE
8
BLACK
6
CONTINUOUS
10
169.709
20
-95.2195
11
169.683
21
-95.2409
0
LINE
8
BLACK
6
CONTINUOUS
10
169.683
20
-95.2409
11
169.654
21
-95.2569
0
LINE
8
BLACK
6
CONTINUOUS
10
169.654
20
-95.2569
11
169.621
21
-95.2667
0
LINE
8
BLACK
6
CONTINUOUS
10
169.621
20
-95.2667
11
169.588
21
-95.27
0
LINE
8
BLACK
6
CONTINUOUS
10
169.588
20
-95.27
11
169.242
21
-95.27
0
LINE
8
BLACK
6
CONTINUOUS
10
169.242
20
-95.27
11
169.209
21
-95.2667
0
LINE
8
BLACK
6
CONTINUOUS
10
169.209
20
-95.2667
11
169.176
21
-95.2569
0
LINE
8
BLACK
6
CONTINUOUS
10
169.176
20
-95.2569
11
169.147
21
-95.2409
0
LINE
8
BLACK
6
CONTINUOUS
10
169.147
20
-95.2409
11
169.121
21
-95.2195
0
LINE
8
BLACK
6
CONTINUOUS
10
169.121
20
-95.2195
11
169.099
21
-95.1933
0
LINE
8
BLACK
6
CONTINUOUS
10
169.099
20
-95.1933
11
169.083
21
-95.1635
0
LINE
8
BLACK
6
CONTINUOUS
10
169.083
20
-95.1635
11
169.073
21
-95.1312
0
LINE
8
BLACK
6
CONTINUOUS
10
169.073
20
-95.1312
11
169.07
21
-95.0975
0
LINE
8
BLACK
6
CONTINUOUS
10
169.07
20
-95.0975
11
169.07
21
-94.7025
0
LINE
8
BLACK
6
CONTINUOUS
10
169.07
20
-94.7025
11
169.073
21
-94.6688
0
LINE
8
BLACK
6
CONTINUOUS
10
169.073
20
-94.6688
11
169.083
21
-94.6365
0
LINE
8
BLACK
6
CONTINUOUS
10
169.083
20
-94.6365
11
169.099
21
-94.6067
0
LINE
8
BLACK
6
CONTINUOUS
10
169.099
20
-94.6067
11
169.121
21
-94.5805
0
LINE
8
BLACK
6
CONTINUOUS
10
169.121
20
-94.5805
11
169.147
21
-94.5591
0
LINE
8
BLACK
6
CONTINUOUS
10
169.147
20
-94.5591
11
169.176
21
-94.5431
0
LINE
8
BLACK
6
CONTINUOUS
10
169.176
20
-94.5431
11
169.209
21
-94.5333
0
LINE
8
BLACK
6
CONTINUOUS
10
169.209
20
-94.5333
11
169.242
21
-94.53
0
LINE
8
BLACK
6
CONTINUOUS
10
169.242
20
-94.53
11
169.588
21
-94.53
0
LINE
8
BLACK
6
CONTINUOUS
10
169.588
20
-94.53
11
169.621
21
-94.5333
0
LINE
8
BLACK
6
CONTINUOUS
10
170.591
20
-94.5333
11
170.624
21
-94.5431
0
LINE
8
BLACK
6
CONTINUOUS
10
170.624
20
-94.5431
11
170.653
21
-94.5591
0
LINE
8
BLACK
6
CONTINUOUS
10
170.653
20
-94.5591
11
170.679
21
-94.5805
0
LINE
8
BLACK
6
CONTINUOUS
10
170.679
20
-94.5805
11
170.701
21
-94.6067
0
LINE
8
BLACK
6
CONTINUOUS
10
170.701
20
-94.6067
11
170.717
21
-94.6365
0
LINE
8
BLACK
6
CONTINUOUS
10
170.717
20
-94.6365
11
170.727
21
-94.6688
0
LINE
8
BLACK
6
CONTINUOUS
10
170.727
20
-94.6688
11
170.73
21
-94.7025
0
LINE
8
BLACK
6
CONTINUOUS
10
170.73
20
-94.7025
11
170.73
21
-95.0975
0
LINE
8
BLACK
6
CONTINUOUS
10
170.73
20
-95.0975
11
170.727
21
-95.1312
0
LINE
8
BLACK
6
CONTINUOUS
10
170.727
20
-95.1312
11
170.717
21
-95.1635
0
LINE
8
BLACK
6
CONTINUOUS
10
170.717
20
-95.1635
11
170.701
21
-95.1933
0
LINE
8
BLACK
6
CONTINUOUS
10
170.701
20
-95.1933
11
170.679
21
-95.2195
0
LINE
8
BLACK
6
CONTINUOUS
10
170.679
20
-95.2195
11
170.653
21
-95.2409
0
LINE
8
BLACK
6
CONTINUOUS
10
170.653
20
-95.2409
11
170.624
21
-95.2569
0
LINE
8
BLACK
6
CONTINUOUS
10
170.624
20
-95.2569
11
170.591
21
-95.2667
0
LINE
8
BLACK
6
CONTINUOUS
10
170.591
20
-95.2667
11
170.558
21
-95.27
0
LINE
8
BLACK
6
CONTINUOUS
10
170.558
20
-95.27
11
170.213
21
-95.27
0
LINE
8
BLACK
6
CONTINUOUS
10
170.213
20
-95.27
11
170.179
21
-95.2667
0
LINE
8
BLACK
6
CONTINUOUS
10
170.179
20
-95.2667
11
170.146
21
-95.2569
0
LINE
8
BLACK
6
CONTINUOUS
10
170.146
20
-95.2569
11
170.117
21
-95.2409
0
LINE
8
BLACK
6
CONTINUOUS
10
170.117
20
-95.2409
11
170.091
21
-95.2195
0
LINE
8
BLACK
6
CONTINUOUS
10
170.091
20
-95.2195
11
170.069
21
-95.1933
0
LINE
8
BLACK
6
CONTINUOUS
10
170.069
20
-95.1933
11
170.053
21
-95.1635
0
LINE
8
BLACK
6
CONTINUOUS
10
170.053
20
-95.1635
11
170.043
21
-95.1312
0
LINE
8
BLACK
6
CONTINUOUS
10
170.043
20
-95.1312
11
170.04
21
-95.0975
0
LINE
8
BLACK
6
CONTINUOUS
10
170.04
20
-95.0975
11
170.04
21
-94.7025
0
LINE
8
BLACK
6
CONTINUOUS
10
170.04
20
-94.7025
11
170.043
21
-94.6688
0
LINE
8
BLACK
6
CONTINUOUS
10
170.043
20
-94.6688
11
170.053
21
-94.6365
0
LINE
8
BLACK
6
CONTINUOUS
10
170.053
20
-94.6365
11
170.069
21
-94.6067
0
LINE
8
BLACK
6
CONTINUOUS
10
170.069
20
-94.6067
11
170.091
21
-94.5805
0
LINE
8
BLACK
6
CONTINUOUS
10
170.091
20
-94.5805
11
170.117
21
-94.5591
0
LINE
8
BLACK
6
CONTINUOUS
10
170.117
20
-94.5591
11
170.146
21
-94.5431
0
LINE
8
BLACK
6
CONTINUOUS
10
170.146
20
-94.5431
11
170.179
21
-94.5333
0
LINE
8
BLACK
6
CONTINUOUS
10
170.179
20
-94.5333
11
170.213
21
-94.53
0
LINE
8
BLACK
6
CONTINUOUS
10
170.213
20
-94.53
11
170.558
21
-94.53
0
LINE
8
BLACK
6
CONTINUOUS
10
170.558
20
-94.53
11
170.591
21
-94.5333
0
LINE
8
BLACK
6
CONTINUOUS
10
171.631
20
-94.4433
11
171.664
21
-94.4531
0
LINE
8
BLACK
6
CONTINUOUS
10
171.664
20
-94.4531
11
171.693
21
-94.4691
0
LINE
8
BLACK
6
CONTINUOUS
10
171.693
20
-94.4691
11
171.719
21
-94.4905
0
LINE
8
BLACK
6
CONTINUOUS
10
171.719
20
-94.4905
11
171.741
21
-94.5167
0
LINE
8
BLACK
6
CONTINUOUS
10
171.741
20
-94.5167
11
171.757
21
-94.5465
0
LINE
8
BLACK
6
CONTINUOUS
10
171.757
20
-94.5465
11
171.767
21
-94.5788
0
LINE
8
BLACK
6
CONTINUOUS
10
171.767
20
-94.5788
11
171.77
21
-94.6125
0
LINE
8
BLACK
6
CONTINUOUS
10
171.77
20
-94.6125
11
171.77
21
-94.9575
0
LINE
8
BLACK
6
CONTINUOUS
10
171.77
20
-94.9575
11
171.767
21
-94.9912
0
LINE
8
BLACK
6
CONTINUOUS
10
171.767
20
-94.9912
11
171.757
21
-95.0235
0
LINE
8
BLACK
6
CONTINUOUS
10
171.757
20
-95.0235
11
171.741
21
-95.0533
0
LINE
8
BLACK
6
CONTINUOUS
10
171.741
20
-95.0533
11
171.719
21
-95.0795
0
LINE
8
BLACK
6
CONTINUOUS
10
171.719
20
-95.0795
11
171.693
21
-95.1009
0
LINE
8
BLACK
6
CONTINUOUS
10
171.693
20
-95.1009
11
171.664
21
-95.1169
0
LINE
8
BLACK
6
CONTINUOUS
10
171.664
20
-95.1169
11
171.631
21
-95.1267
0
LINE
8
BLACK
6
CONTINUOUS
10
171.631
20
-95.1267
11
171.597
21
-95.13
0
LINE
8
BLACK
6
CONTINUOUS
10
171.597
20
-95.13
11
171.202
21
-95.13
0
LINE
8
BLACK
6
CONTINUOUS
10
171.202
20
-95.13
11
171.169
21
-95.1267
0
LINE
8
BLACK
6
CONTINUOUS
10
171.169
20
-95.1267
11
171.136
21
-95.1169
0
LINE
8
BLACK
6
CONTINUOUS
10
171.136
20
-95.1169
11
171.107
21
-95.1009
0
LINE
8
BLACK
6
CONTINUOUS
10
171.107
20
-95.1009
11
171.081
21
-95.0795
0
LINE
8
BLACK
6
CONTINUOUS
10
171.081
20
-95.0795
11
171.059
21
-95.0533
0
LINE
8
BLACK
6
CONTINUOUS
10
171.059
20
-95.0533
11
171.043
21
-95.0235
0
LINE
8
BLACK
6
CONTINUOUS
10
171.043
20
-95.0235
11
171.033
21
-94.9912
0
LINE
8
BLACK
6
CONTINUOUS
10
171.033
20
-94.9912
11
171.03
21
-94.9575
0
LINE
8
BLACK
6
CONTINUOUS
10
171.03
20
-94.9575
11
171.03
21
-94.6125
0
LINE
8
BLACK
6
CONTINUOUS
10
171.03
20
-94.6125
11
171.033
21
-94.5788
0
LINE
8
BLACK
6
CONTINUOUS
10
171.033
20
-94.5788
11
171.043
21
-94.5465
0
LINE
8
BLACK
6
CONTINUOUS
10
171.043
20
-94.5465
11
171.059
21
-94.5167
0
LINE
8
BLACK
6
CONTINUOUS
10
171.059
20
-94.5167
11
171.081
21
-94.4905
0
LINE
8
BLACK
6
CONTINUOUS
10
171.081
20
-94.4905
11
171.107
21
-94.4691
0
LINE
8
BLACK
6
CONTINUOUS
10
171.107
20
-94.4691
11
171.136
21
-94.4531
0
LINE
8
BLACK
6
CONTINUOUS
10
171.136
20
-94.4531
11
171.169
21
-94.4433
0
LINE
8
BLACK
6
CONTINUOUS
10
171.169
20
-94.4433
11
171.202
21
-94.44
0
LINE
8
BLACK
6
CONTINUOUS
10
171.202
20
-94.44
11
171.597
21
-94.44
0
LINE
8
BLACK
6
CONTINUOUS
10
171.597
20
-94.44
11
171.631
21
-94.4433
0
LINE
8
BLACK
6
CONTINUOUS
10
173.831
20
-94.4433
11
173.864
21
-94.4531
0
LINE
8
BLACK
6
CONTINUOUS
10
173.864
20
-94.4531
11
173.893
21
-94.4691
0
LINE
8
BLACK
6
CONTINUOUS
10
173.893
20
-94.4691
11
173.919
21
-94.4905
0
LINE
8
BLACK
6
CONTINUOUS
10
173.919
20
-94.4905
11
173.941
21
-94.5167
0
LINE
8
BLACK
6
CONTINUOUS
10
173.941
20
-94.5167
11
173.957
21
-94.5465
0
LINE
8
BLACK
6
CONTINUOUS
10
173.957
20
-94.5465
11
173.967
21
-94.5788
0
LINE
8
BLACK
6
CONTINUOUS
10
173.967
20
-94.5788
11
173.97
21
-94.6125
0
LINE
8
BLACK
6
CONTINUOUS
10
173.97
20
-94.6125
11
173.97
21
-94.9575
0
LINE
8
BLACK
6
CONTINUOUS
10
173.97
20
-94.9575
11
173.967
21
-94.9912
0
LINE
8
BLACK
6
CONTINUOUS
10
173.967
20
-94.9912
11
173.957
21
-95.0235
0
LINE
8
BLACK
6
CONTINUOUS
10
173.957
20
-95.0235
11
173.941
21
-95.0533
0
LINE
8
BLACK
6
CONTINUOUS
10
173.941
20
-95.0533
11
173.919
21
-95.0795
0
LINE
8
BLACK
6
CONTINUOUS
10
173.919
20
-95.0795
11
173.893
21
-95.1009
0
LINE
8
BLACK
6
CONTINUOUS
10
173.893
20
-95.1009
11
173.864
21
-95.1169
0
LINE
8
BLACK
6
CONTINUOUS
10
173.864
20
-95.1169
11
173.831
21
-95.1267
0
LINE
8
BLACK
6
CONTINUOUS
10
173.831
20
-95.1267
11
173.797
21
-95.13
0
LINE
8
BLACK
6
CONTINUOUS
10
173.797
20
-95.13
11
173.403
21
-95.13
0
LINE
8
BLACK
6
CONTINUOUS
10
173.403
20
-95.13
11
173.369
21
-95.1267
0
LINE
8
BLACK
6
CONTINUOUS
10
173.369
20
-95.1267
11
173.336
21
-95.1169
0
LINE
8
BLACK
6
CONTINUOUS
10
173.336
20
-95.1169
11
173.307
21
-95.1009
0
LINE
8
BLACK
6
CONTINUOUS
10
173.307
20
-95.1009
11
173.281
21
-95.0795
0
LINE
8
BLACK
6
CONTINUOUS
10
173.281
20
-95.0795
11
173.259
21
-95.0533
0
LINE
8
BLACK
6
CONTINUOUS
10
173.259
20
-95.0533
11
173.243
21
-95.0235
0
LINE
8
BLACK
6
CONTINUOUS
10
173.243
20
-95.0235
11
173.233
21
-94.9912
0
LINE
8
BLACK
6
CONTINUOUS
10
173.233
20
-94.9912
11
173.23
21
-94.9575
0
LINE
8
BLACK
6
CONTINUOUS
10
173.23
20
-94.9575
11
173.23
21
-94.6125
0
LINE
8
BLACK
6
CONTINUOUS
10
173.23
20
-94.6125
11
173.233
21
-94.5788
0
LINE
8
BLACK
6
CONTINUOUS
10
173.233
20
-94.5788
11
173.243
21
-94.5465
0
LINE
8
BLACK
6
CONTINUOUS
10
173.243
20
-94.5465
11
173.259
21
-94.5167
0
LINE
8
BLACK
6
CONTINUOUS
10
173.259
20
-94.5167
11
173.281
21
-94.4905
0
LINE
8
BLACK
6
CONTINUOUS
10
173.281
20
-94.4905
11
173.307
21
-94.4691
0
LINE
8
BLACK
6
CONTINUOUS
10
173.307
20
-94.4691
11
173.336
21
-94.4531
0
LINE
8
BLACK
6
CONTINUOUS
10
173.336
20
-94.4531
11
173.369
21
-94.4433
0
LINE
8
BLACK
6
CONTINUOUS
10
173.369
20
-94.4433
11
173.403
21
-94.44
0
LINE
8
BLACK
6
CONTINUOUS
10
173.403
20
-94.44
11
173.797
21
-94.44
0
LINE
8
BLACK
6
CONTINUOUS
10
173.797
20
-94.44
11
173.831
21
-94.4433
0
LINE
8
BLACK
6
CONTINUOUS
10
116.347
20
-92.2646
11
116.588
21
-92.3646
0
LINE
8
BLACK
6
CONTINUOUS
10
116.588
20
-92.3646
11
116.805
21
-92.5098
0
LINE
8
BLACK
6
CONTINUOUS
10
116.805
20
-92.5098
11
116.99
21
-92.6945
0
LINE
8
BLACK
6
CONTINUOUS
10
116.99
20
-92.6945
11
117.135
21
-92.9117
0
LINE
8
BLACK
6
CONTINUOUS
10
117.135
20
-92.9117
11
117.235
21
-93.1531
0
LINE
8
BLACK
6
CONTINUOUS
10
117.235
20
-93.1531
11
117.286
21
-93.4094
0
LINE
8
BLACK
6
CONTINUOUS
10
117.286
20
-93.4094
11
117.286
21
-93.6706
0
LINE
8
BLACK
6
CONTINUOUS
10
117.286
20
-93.6706
11
117.235
21
-93.9269
0
LINE
8
BLACK
6
CONTINUOUS
10
117.235
20
-93.9269
11
117.135
21
-94.1683
0
LINE
8
BLACK
6
CONTINUOUS
10
117.135
20
-94.1683
11
116.99
21
-94.3855
0
LINE
8
BLACK
6
CONTINUOUS
10
116.99
20
-94.3855
11
116.805
21
-94.5702
0
LINE
8
BLACK
6
CONTINUOUS
10
116.805
20
-94.5702
11
116.588
21
-94.7154
0
LINE
8
BLACK
6
CONTINUOUS
10
116.588
20
-94.7154
11
116.347
21
-94.8154
0
LINE
8
BLACK
6
CONTINUOUS
10
116.347
20
-94.8154
11
116.091
21
-94.8663
0
LINE
8
BLACK
6
CONTINUOUS
10
116.091
20
-94.8663
11
115.829
21
-94.8663
0
LINE
8
BLACK
6
CONTINUOUS
10
115.829
20
-94.8663
11
115.573
21
-94.8154
0
LINE
8
BLACK
6
CONTINUOUS
10
115.573
20
-94.8154
11
115.332
21
-94.7154
0
LINE
8
BLACK
6
CONTINUOUS
10
115.332
20
-94.7154
11
115.115
21
-94.5702
0
LINE
8
BLACK
6
CONTINUOUS
10
115.115
20
-94.5702
11
114.93
21
-94.3855
0
LINE
8
BLACK
6
CONTINUOUS
10
114.93
20
-94.3855
11
114.785
21
-94.1683
0
LINE
8
BLACK
6
CONTINUOUS
10
114.785
20
-94.1683
11
114.685
21
-93.9269
0
LINE
8
BLACK
6
CONTINUOUS
10
114.685
20
-93.9269
11
114.634
21
-93.6706
0
LINE
8
BLACK
6
CONTINUOUS
10
114.634
20
-93.6706
11
114.634
21
-93.4094
0
LINE
8
BLACK
6
CONTINUOUS
10
114.634
20
-93.4094
11
114.685
21
-93.1531
0
LINE
8
BLACK
6
CONTINUOUS
10
114.685
20
-93.1531
11
114.785
21
-92.9117
0
LINE
8
BLACK
6
CONTINUOUS
10
114.785
20
-92.9117
11
114.93
21
-92.6945
0
LINE
8
BLACK
6
CONTINUOUS
10
114.93
20
-92.6945
11
115.115
21
-92.5098
0
LINE
8
BLACK
6
CONTINUOUS
10
115.115
20
-92.5098
11
115.332
21
-92.3646
0
LINE
8
BLACK
6
CONTINUOUS
10
115.332
20
-92.3646
11
115.573
21
-92.2646
0
LINE
8
BLACK
6
CONTINUOUS
10
115.573
20
-92.2646
11
115.829
21
-92.2137
0
LINE
8
BLACK
6
CONTINUOUS
10
115.829
20
-92.2137
11
116.091
21
-92.2137
0
LINE
8
BLACK
6
CONTINUOUS
10
116.091
20
-92.2137
11
116.347
21
-92.2646
0
LINE
8
BLACK
6
CONTINUOUS
10
121.427
20
-92.2646
11
121.668
21
-92.3646
0
LINE
8
BLACK
6
CONTINUOUS
10
121.668
20
-92.3646
11
121.885
21
-92.5098
0
LINE
8
BLACK
6
CONTINUOUS
10
121.885
20
-92.5098
11
122.07
21
-92.6945
0
LINE
8
BLACK
6
CONTINUOUS
10
122.07
20
-92.6945
11
122.215
21
-92.9117
0
LINE
8
BLACK
6
CONTINUOUS
10
122.215
20
-92.9117
11
122.315
21
-93.1531
0
LINE
8
BLACK
6
CONTINUOUS
10
122.315
20
-93.1531
11
122.366
21
-93.4094
0
LINE
8
BLACK
6
CONTINUOUS
10
122.366
20
-93.4094
11
122.366
21
-93.6706
0
LINE
8
BLACK
6
CONTINUOUS
10
122.366
20
-93.6706
11
122.315
21
-93.9269
0
LINE
8
BLACK
6
CONTINUOUS
10
122.315
20
-93.9269
11
122.215
21
-94.1683
0
LINE
8
BLACK
6
CONTINUOUS
10
122.215
20
-94.1683
11
122.07
21
-94.3855
0
LINE
8
BLACK
6
CONTINUOUS
10
122.07
20
-94.3855
11
121.885
21
-94.5702
0
LINE
8
BLACK
6
CONTINUOUS
10
121.885
20
-94.5702
11
121.668
21
-94.7154
0
LINE
8
BLACK
6
CONTINUOUS
10
121.668
20
-94.7154
11
121.427
21
-94.8154
0
LINE
8
BLACK
6
CONTINUOUS
10
121.427
20
-94.8154
11
121.171
21
-94.8663
0
LINE
8
BLACK
6
CONTINUOUS
10
121.171
20
-94.8663
11
120.909
21
-94.8663
0
LINE
8
BLACK
6
CONTINUOUS
10
120.909
20
-94.8663
11
120.653
21
-94.8154
0
LINE
8
BLACK
6
CONTINUOUS
10
120.653
20
-94.8154
11
120.412
21
-94.7154
0
LINE
8
BLACK
6
CONTINUOUS
10
120.412
20
-94.7154
11
120.195
21
-94.5702
0
LINE
8
BLACK
6
CONTINUOUS
10
120.195
20
-94.5702
11
120.01
21
-94.3855
0
LINE
8
BLACK
6
CONTINUOUS
10
120.01
20
-94.3855
11
119.865
21
-94.1683
0
LINE
8
BLACK
6
CONTINUOUS
10
119.865
20
-94.1683
11
119.765
21
-93.9269
0
LINE
8
BLACK
6
CONTINUOUS
10
119.765
20
-93.9269
11
119.714
21
-93.6706
0
LINE
8
BLACK
6
CONTINUOUS
10
119.714
20
-93.6706
11
119.714
21
-93.4094
0
LINE
8
BLACK
6
CONTINUOUS
10
119.714
20
-93.4094
11
119.765
21
-93.1531
0
LINE
8
BLACK
6
CONTINUOUS
10
119.765
20
-93.1531
11
119.865
21
-92.9117
0
LINE
8
BLACK
6
CONTINUOUS
10
119.865
20
-92.9117
11
120.01
21
-92.6945
0
LINE
8
BLACK
6
CONTINUOUS
10
120.01
20
-92.6945
11
120.195
21
-92.5098
0
LINE
8
BLACK
6
CONTINUOUS
10
120.195
20
-92.5098
11
120.412
21
-92.3646
0
LINE
8
BLACK
6
CONTINUOUS
10
120.412
20
-92.3646
11
120.653
21
-92.2646
0
LINE
8
BLACK
6
CONTINUOUS
10
120.653
20
-92.2646
11
120.909
21
-92.2137
0
LINE
8
BLACK
6
CONTINUOUS
10
120.909
20
-92.2137
11
121.171
21
-92.2137
0
LINE
8
BLACK
6
CONTINUOUS
10
121.171
20
-92.2137
11
121.427
21
-92.2646
0
LINE
8
BLACK
6
CONTINUOUS
10
175.876
20
-93.4333
11
175.909
21
-93.4431
0
LINE
8
BLACK
6
CONTINUOUS
10
175.909
20
-93.4431
11
175.938
21
-93.4591
0
LINE
8
BLACK
6
CONTINUOUS
10
175.938
20
-93.4591
11
175.964
21
-93.4805
0
LINE
8
BLACK
6
CONTINUOUS
10
175.964
20
-93.4805
11
175.986
21
-93.5067
0
LINE
8
BLACK
6
CONTINUOUS
10
175.986
20
-93.5067
11
176.002
21
-93.5365
0
LINE
8
BLACK
6
CONTINUOUS
10
176.002
20
-93.5365
11
176.012
21
-93.5688
0
LINE
8
BLACK
6
CONTINUOUS
10
176.012
20
-93.5688
11
176.015
21
-93.6025
0
LINE
8
BLACK
6
CONTINUOUS
10
176.015
20
-93.6025
11
176.015
21
-93.9975
0
LINE
8
BLACK
6
CONTINUOUS
10
176.015
20
-93.9975
11
176.012
21
-94.0312
0
LINE
8
BLACK
6
CONTINUOUS
10
176.012
20
-94.0312
11
176.002
21
-94.0635
0
LINE
8
BLACK
6
CONTINUOUS
10
176.002
20
-94.0635
11
175.986
21
-94.0933
0
LINE
8
BLACK
6
CONTINUOUS
10
175.986
20
-94.0933
11
175.964
21
-94.1195
0
LINE
8
BLACK
6
CONTINUOUS
10
175.964
20
-94.1195
11
175.938
21
-94.1409
0
LINE
8
BLACK
6
CONTINUOUS
10
175.938
20
-94.1409
11
175.909
21
-94.1569
0
LINE
8
BLACK
6
CONTINUOUS
10
175.909
20
-94.1569
11
175.876
21
-94.1667
0
LINE
8
BLACK
6
CONTINUOUS
10
175.876
20
-94.1667
11
175.843
21
-94.17
0
LINE
8
BLACK
6
CONTINUOUS
10
175.843
20
-94.17
11
175.498
21
-94.17
0
LINE
8
BLACK
6
CONTINUOUS
10
175.498
20
-94.17
11
175.464
21
-94.1667
0
LINE
8
BLACK
6
CONTINUOUS
10
175.464
20
-94.1667
11
175.431
21
-94.1569
0
LINE
8
BLACK
6
CONTINUOUS
10
175.431
20
-94.1569
11
175.402
21
-94.1409
0
LINE
8
BLACK
6
CONTINUOUS
10
175.402
20
-94.1409
11
175.376
21
-94.1195
0
LINE
8
BLACK
6
CONTINUOUS
10
175.376
20
-94.1195
11
175.354
21
-94.0933
0
LINE
8
BLACK
6
CONTINUOUS
10
175.354
20
-94.0933
11
175.338
21
-94.0635
0
LINE
8
BLACK
6
CONTINUOUS
10
175.338
20
-94.0635
11
175.328
21
-94.0312
0
LINE
8
BLACK
6
CONTINUOUS
10
175.328
20
-94.0312
11
175.325
21
-93.9975
0
LINE
8
BLACK
6
CONTINUOUS
10
175.325
20
-93.9975
11
175.325
21
-93.6025
0
LINE
8
BLACK
6
CONTINUOUS
10
175.325
20
-93.6025
11
175.328
21
-93.5688
0
LINE
8
BLACK
6
CONTINUOUS
10
175.328
20
-93.5688
11
175.338
21
-93.5365
0
LINE
8
BLACK
6
CONTINUOUS
10
175.338
20
-93.5365
11
175.354
21
-93.5067
0
LINE
8
BLACK
6
CONTINUOUS
10
175.354
20
-93.5067
11
175.376
21
-93.4805
0
LINE
8
BLACK
6
CONTINUOUS
10
175.376
20
-93.4805
11
175.402
21
-93.4591
0
LINE
8
BLACK
6
CONTINUOUS
10
175.402
20
-93.4591
11
175.431
21
-93.4431
0
LINE
8
BLACK
6
CONTINUOUS
10
175.431
20
-93.4431
11
175.464
21
-93.4333
0
LINE
8
BLACK
6
CONTINUOUS
10
175.464
20
-93.4333
11
175.498
21
-93.43
0
LINE
8
BLACK
6
CONTINUOUS
10
175.498
20
-93.43
11
175.843
21
-93.43
0
LINE
8
BLACK
6
CONTINUOUS
10
175.843
20
-93.43
11
175.876
21
-93.4333
0
LINE
8
BLACK
6
CONTINUOUS
10
174.906
20
-93.4333
11
174.939
21
-93.4431
0
LINE
8
BLACK
6
CONTINUOUS
10
174.939
20
-93.4431
11
174.968
21
-93.4591
0
LINE
8
BLACK
6
CONTINUOUS
10
174.968
20
-93.4591
11
174.994
21
-93.4805
0
LINE
8
BLACK
6
CONTINUOUS
10
174.994
20
-93.4805
11
175.016
21
-93.5067
0
LINE
8
BLACK
6
CONTINUOUS
10
175.016
20
-93.5067
11
175.032
21
-93.5365
0
LINE
8
BLACK
6
CONTINUOUS
10
175.032
20
-93.5365
11
175.042
21
-93.5688
0
LINE
8
BLACK
6
CONTINUOUS
10
175.042
20
-93.5688
11
175.045
21
-93.6025
0
LINE
8
BLACK
6
CONTINUOUS
10
175.045
20
-93.6025
11
175.045
21
-93.9975
0
LINE
8
BLACK
6
CONTINUOUS
10
175.045
20
-93.9975
11
175.042
21
-94.0312
0
LINE
8
BLACK
6
CONTINUOUS
10
175.042
20
-94.0312
11
175.032
21
-94.0635
0
LINE
8
BLACK
6
CONTINUOUS
10
175.032
20
-94.0635
11
175.016
21
-94.0933
0
LINE
8
BLACK
6
CONTINUOUS
10
175.016
20
-94.0933
11
174.994
21
-94.1195
0
LINE
8
BLACK
6
CONTINUOUS
10
174.994
20
-94.1195
11
174.968
21
-94.1409
0
LINE
8
BLACK
6
CONTINUOUS
10
174.968
20
-94.1409
11
174.939
21
-94.1569
0
LINE
8
BLACK
6
CONTINUOUS
10
174.939
20
-94.1569
11
174.906
21
-94.1667
0
LINE
8
BLACK
6
CONTINUOUS
10
174.906
20
-94.1667
11
174.873
21
-94.17
0
LINE
8
BLACK
6
CONTINUOUS
10
174.873
20
-94.17
11
174.528
21
-94.17
0
LINE
8
BLACK
6
CONTINUOUS
10
174.528
20
-94.17
11
174.494
21
-94.1667
0
LINE
8
BLACK
6
CONTINUOUS
10
174.494
20
-94.1667
11
174.461
21
-94.1569
0
LINE
8
BLACK
6
CONTINUOUS
10
174.461
20
-94.1569
11
174.432
21
-94.1409
0
LINE
8
BLACK
6
CONTINUOUS
10
174.432
20
-94.1409
11
174.406
21
-94.1195
0
LINE
8
BLACK
6
CONTINUOUS
10
174.406
20
-94.1195
11
174.384
21
-94.0933
0
LINE
8
BLACK
6
CONTINUOUS
10
174.384
20
-94.0933
11
174.368
21
-94.0635
0
LINE
8
BLACK
6
CONTINUOUS
10
174.368
20
-94.0635
11
174.358
21
-94.0312
0
LINE
8
BLACK
6
CONTINUOUS
10
174.358
20
-94.0312
11
174.355
21
-93.9975
0
LINE
8
BLACK
6
CONTINUOUS
10
174.355
20
-93.9975
11
174.355
21
-93.6025
0
LINE
8
BLACK
6
CONTINUOUS
10
174.355
20
-93.6025
11
174.358
21
-93.5688
0
LINE
8
BLACK
6
CONTINUOUS
10
174.358
20
-93.5688
11
174.368
21
-93.5365
0
LINE
8
BLACK
6
CONTINUOUS
10
174.368
20
-93.5365
11
174.384
21
-93.5067
0
LINE
8
BLACK
6
CONTINUOUS
10
174.384
20
-93.5067
11
174.406
21
-93.4805
0
LINE
8
BLACK
6
CONTINUOUS
10
174.406
20
-93.4805
11
174.432
21
-93.4591
0
LINE
8
BLACK
6
CONTINUOUS
10
174.432
20
-93.4591
11
174.461
21
-93.4431
0
LINE
8
BLACK
6
CONTINUOUS
10
174.461
20
-93.4431
11
174.494
21
-93.4333
0
LINE
8
BLACK
6
CONTINUOUS
10
174.494
20
-93.4333
11
174.528
21
-93.43
0
LINE
8
BLACK
6
CONTINUOUS
10
174.528
20
-93.43
11
174.873
21
-93.43
0
LINE
8
BLACK
6
CONTINUOUS
10
174.873
20
-93.43
11
174.906
21
-93.4333
0
LINE
8
BLACK
6
CONTINUOUS
10
171.631
20
-93.4733
11
171.664
21
-93.4831
0
LINE
8
BLACK
6
CONTINUOUS
10
171.664
20
-93.4831
11
171.693
21
-93.4991
0
LINE
8
BLACK
6
CONTINUOUS
10
171.693
20
-93.4991
11
171.719
21
-93.5205
0
LINE
8
BLACK
6
CONTINUOUS
10
171.719
20
-93.5205
11
171.741
21
-93.5467
0
LINE
8
BLACK
6
CONTINUOUS
10
171.741
20
-93.5467
11
171.757
21
-93.5765
0
LINE
8
BLACK
6
CONTINUOUS
10
171.757
20
-93.5765
11
171.767
21
-93.6088
0
LINE
8
BLACK
6
CONTINUOUS
10
171.767
20
-93.6088
11
171.77
21
-93.6425
0
LINE
8
BLACK
6
CONTINUOUS
10
171.77
20
-93.6425
11
171.77
21
-93.9875
0
LINE
8
BLACK
6
CONTINUOUS
10
171.77
20
-93.9875
11
171.767
21
-94.0212
0
LINE
8
BLACK
6
CONTINUOUS
10
171.767
20
-94.0212
11
171.757
21
-94.0535
0
LINE
8
BLACK
6
CONTINUOUS
10
171.757
20
-94.0535
11
171.741
21
-94.0833
0
LINE
8
BLACK
6
CONTINUOUS
10
171.741
20
-94.0833
11
171.719
21
-94.1095
0
LINE
8
BLACK
6
CONTINUOUS
10
171.719
20
-94.1095
11
171.693
21
-94.1309
0
LINE
8
BLACK
6
CONTINUOUS
10
171.693
20
-94.1309
11
171.664
21
-94.1469
0
LINE
8
BLACK
6
CONTINUOUS
10
171.664
20
-94.1469
11
171.631
21
-94.1567
0
LINE
8
BLACK
6
CONTINUOUS
10
171.631
20
-94.1567
11
171.597
21
-94.16
0
LINE
8
BLACK
6
CONTINUOUS
10
171.597
20
-94.16
11
171.202
21
-94.16
0
LINE
8
BLACK
6
CONTINUOUS
10
171.202
20
-94.16
11
171.169
21
-94.1567
0
LINE
8
BLACK
6
CONTINUOUS
10
171.169
20
-94.1567
11
171.136
21
-94.1469
0
LINE
8
BLACK
6
CONTINUOUS
10
171.136
20
-94.1469
11
171.107
21
-94.1309
0
LINE
8
BLACK
6
CONTINUOUS
10
171.107
20
-94.1309
11
171.081
21
-94.1095
0
LINE
8
BLACK
6
CONTINUOUS
10
171.081
20
-94.1095
11
171.059
21
-94.0833
0
LINE
8
BLACK
6
CONTINUOUS
10
171.059
20
-94.0833
11
171.043
21
-94.0535
0
LINE
8
BLACK
6
CONTINUOUS
10
171.043
20
-94.0535
11
171.033
21
-94.0212
0
LINE
8
BLACK
6
CONTINUOUS
10
171.033
20
-94.0212
11
171.03
21
-93.9875
0
LINE
8
BLACK
6
CONTINUOUS
10
171.03
20
-93.9875
11
171.03
21
-93.6425
0
LINE
8
BLACK
6
CONTINUOUS
10
171.03
20
-93.6425
11
171.033
21
-93.6088
0
LINE
8
BLACK
6
CONTINUOUS
10
171.033
20
-93.6088
11
171.043
21
-93.5765
0
LINE
8
BLACK
6
CONTINUOUS
10
171.043
20
-93.5765
11
171.059
21
-93.5467
0
LINE
8
BLACK
6
CONTINUOUS
10
171.059
20
-93.5467
11
171.081
21
-93.5205
0
LINE
8
BLACK
6
CONTINUOUS
10
171.081
20
-93.5205
11
171.107
21
-93.4991
0
LINE
8
BLACK
6
CONTINUOUS
10
171.107
20
-93.4991
11
171.136
21
-93.4831
0
LINE
8
BLACK
6
CONTINUOUS
10
171.136
20
-93.4831
11
171.169
21
-93.4733
0
LINE
8
BLACK
6
CONTINUOUS
10
171.169
20
-93.4733
11
171.202
21
-93.47
0
LINE
8
BLACK
6
CONTINUOUS
10
171.202
20
-93.47
11
171.597
21
-93.47
0
LINE
8
BLACK
6
CONTINUOUS
10
171.597
20
-93.47
11
171.631
21
-93.4733
0
LINE
8
BLACK
6
CONTINUOUS
10
173.831
20
-93.4733
11
173.864
21
-93.4831
0
LINE
8
BLACK
6
CONTINUOUS
10
173.864
20
-93.4831
11
173.893
21
-93.4991
0
LINE
8
BLACK
6
CONTINUOUS
10
173.893
20
-93.4991
11
173.919
21
-93.5205
0
LINE
8
BLACK
6
CONTINUOUS
10
173.919
20
-93.5205
11
173.941
21
-93.5467
0
LINE
8
BLACK
6
CONTINUOUS
10
173.941
20
-93.5467
11
173.957
21
-93.5765
0
LINE
8
BLACK
6
CONTINUOUS
10
173.957
20
-93.5765
11
173.967
21
-93.6088
0
LINE
8
BLACK
6
CONTINUOUS
10
173.967
20
-93.6088
11
173.97
21
-93.6425
0
LINE
8
BLACK
6
CONTINUOUS
10
173.97
20
-93.6425
11
173.97
21
-93.9875
0
LINE
8
BLACK
6
CONTINUOUS
10
173.97
20
-93.9875
11
173.967
21
-94.0212
0
LINE
8
BLACK
6
CONTINUOUS
10
173.967
20
-94.0212
11
173.957
21
-94.0535
0
LINE
8
BLACK
6
CONTINUOUS
10
173.957
20
-94.0535
11
173.941
21
-94.0833
0
LINE
8
BLACK
6
CONTINUOUS
10
173.941
20
-94.0833
11
173.919
21
-94.1095
0
LINE
8
BLACK
6
CONTINUOUS
10
173.919
20
-94.1095
11
173.893
21
-94.1309
0
LINE
8
BLACK
6
CONTINUOUS
10
173.893
20
-94.1309
11
173.864
21
-94.1469
0
LINE
8
BLACK
6
CONTINUOUS
10
173.864
20
-94.1469
11
173.831
21
-94.1567
0
LINE
8
BLACK
6
CONTINUOUS
10
173.831
20
-94.1567
11
173.797
21
-94.16
0
LINE
8
BLACK
6
CONTINUOUS
10
173.797
20
-94.16
11
173.403
21
-94.16
0
LINE
8
BLACK
6
CONTINUOUS
10
173.403
20
-94.16
11
173.369
21
-94.1567
0
LINE
8
BLACK
6
CONTINUOUS
10
173.369
20
-94.1567
11
173.336
21
-94.1469
0
LINE
8
BLACK
6
CONTINUOUS
10
173.336
20
-94.1469
11
173.307
21
-94.1309
0
LINE
8
BLACK
6
CONTINUOUS
10
173.307
20
-94.1309
11
173.281
21
-94.1095
0
LINE
8
BLACK
6
CONTINUOUS
10
173.281
20
-94.1095
11
173.259
21
-94.0833
0
LINE
8
BLACK
6
CONTINUOUS
10
173.259
20
-94.0833
11
173.243
21
-94.0535
0
LINE
8
BLACK
6
CONTINUOUS
10
173.243
20
-94.0535
11
173.233
21
-94.0212
0
LINE
8
BLACK
6
CONTINUOUS
10
173.233
20
-94.0212
11
173.23
21
-93.9875
0
LINE
8
BLACK
6
CONTINUOUS
10
173.23
20
-93.9875
11
173.23
21
-93.6425
0
LINE
8
BLACK
6
CONTINUOUS
10
173.23
20
-93.6425
11
173.233
21
-93.6088
0
LINE
8
BLACK
6
CONTINUOUS
10
173.233
20
-93.6088
11
173.243
21
-93.5765
0
LINE
8
BLACK
6
CONTINUOUS
10
173.243
20
-93.5765
11
173.259
21
-93.5467
0
LINE
8
BLACK
6
CONTINUOUS
10
173.259
20
-93.5467
11
173.281
21
-93.5205
0
LINE
8
BLACK
6
CONTINUOUS
10
173.281
20
-93.5205
11
173.307
21
-93.4991
0
LINE
8
BLACK
6
CONTINUOUS
10
173.307
20
-93.4991
11
173.336
21
-93.4831
0
LINE
8
BLACK
6
CONTINUOUS
10
173.336
20
-93.4831
11
173.369
21
-93.4733
0
LINE
8
BLACK
6
CONTINUOUS
10
173.369
20
-93.4733
11
173.403
21
-93.47
0
LINE
8
BLACK
6
CONTINUOUS
10
173.403
20
-93.47
11
173.797
21
-93.47
0
LINE
8
BLACK
6
CONTINUOUS
10
173.797
20
-93.47
11
173.831
21
-93.4733
0
LINE
8
BLACK
6
CONTINUOUS
10
170.591
20
-93.3333
11
170.624
21
-93.3431
0
LINE
8
BLACK
6
CONTINUOUS
10
170.624
20
-93.3431
11
170.653
21
-93.3591
0
LINE
8
BLACK
6
CONTINUOUS
10
170.653
20
-93.3591
11
170.679
21
-93.3805
0
LINE
8
BLACK
6
CONTINUOUS
10
170.679
20
-93.3805
11
170.701
21
-93.4067
0
LINE
8
BLACK
6
CONTINUOUS
10
170.701
20
-93.4067
11
170.717
21
-93.4365
0
LINE
8
BLACK
6
CONTINUOUS
10
170.717
20
-93.4365
11
170.727
21
-93.4688
0
LINE
8
BLACK
6
CONTINUOUS
10
170.727
20
-93.4688
11
170.73
21
-93.5025
0
LINE
8
BLACK
6
CONTINUOUS
10
170.73
20
-93.5025
11
170.73
21
-93.8975
0
LINE
8
BLACK
6
CONTINUOUS
10
170.73
20
-93.8975
11
170.727
21
-93.9312
0
LINE
8
BLACK
6
CONTINUOUS
10
170.727
20
-93.9312
11
170.717
21
-93.9635
0
LINE
8
BLACK
6
CONTINUOUS
10
170.717
20
-93.9635
11
170.701
21
-93.9933
0
LINE
8
BLACK
6
CONTINUOUS
10
170.701
20
-93.9933
11
170.679
21
-94.0195
0
LINE
8
BLACK
6
CONTINUOUS
10
170.679
20
-94.0195
11
170.653
21
-94.0409
0
LINE
8
BLACK
6
CONTINUOUS
10
170.653
20
-94.0409
11
170.624
21
-94.0569
0
LINE
8
BLACK
6
CONTINUOUS
10
170.624
20
-94.0569
11
170.591
21
-94.0667
0
LINE
8
BLACK
6
CONTINUOUS
10
170.591
20
-94.0667
11
170.558
21
-94.07
0
LINE
8
BLACK
6
CONTINUOUS
10
170.558
20
-94.07
11
170.213
21
-94.07
0
LINE
8
BLACK
6
CONTINUOUS
10
170.213
20
-94.07
11
170.179
21
-94.0667
0
LINE
8
BLACK
6
CONTINUOUS
10
170.179
20
-94.0667
11
170.146
21
-94.0569
0
LINE
8
BLACK
6
CONTINUOUS
10
170.146
20
-94.0569
11
170.117
21
-94.0409
0
LINE
8
BLACK
6
CONTINUOUS
10
170.117
20
-94.0409
11
170.091
21
-94.0195
0
LINE
8
BLACK
6
CONTINUOUS
10
170.091
20
-94.0195
11
170.069
21
-93.9933
0
LINE
8
BLACK
6
CONTINUOUS
10
170.069
20
-93.9933
11
170.053
21
-93.9635
0
LINE
8
BLACK
6
CONTINUOUS
10
170.053
20
-93.9635
11
170.043
21
-93.9312
0
LINE
8
BLACK
6
CONTINUOUS
10
170.043
20
-93.9312
11
170.04
21
-93.8975
0
LINE
8
BLACK
6
CONTINUOUS
10
170.04
20
-93.8975
11
170.04
21
-93.5025
0
LINE
8
BLACK
6
CONTINUOUS
10
170.04
20
-93.5025
11
170.043
21
-93.4688
0
LINE
8
BLACK
6
CONTINUOUS
10
170.043
20
-93.4688
11
170.053
21
-93.4365
0
LINE
8
BLACK
6
CONTINUOUS
10
170.053
20
-93.4365
11
170.069
21
-93.4067
0
LINE
8
BLACK
6
CONTINUOUS
10
170.069
20
-93.4067
11
170.091
21
-93.3805
0
LINE
8
BLACK
6
CONTINUOUS
10
170.091
20
-93.3805
11
170.117
21
-93.3591
0
LINE
8
BLACK
6
CONTINUOUS
10
170.117
20
-93.3591
11
170.146
21
-93.3431
0
LINE
8
BLACK
6
CONTINUOUS
10
170.146
20
-93.3431
11
170.179
21
-93.3333
0
LINE
8
BLACK
6
CONTINUOUS
10
170.179
20
-93.3333
11
170.213
21
-93.33
0
LINE
8
BLACK
6
CONTINUOUS
10
170.213
20
-93.33
11
170.558
21
-93.33
0
LINE
8
BLACK
6
CONTINUOUS
10
170.558
20
-93.33
11
170.591
21
-93.3333
0
LINE
8
BLACK
6
CONTINUOUS
10
169.621
20
-93.3333
11
169.654
21
-93.3431
0
LINE
8
BLACK
6
CONTINUOUS
10
169.654
20
-93.3431
11
169.683
21
-93.3591
0
LINE
8
BLACK
6
CONTINUOUS
10
169.683
20
-93.3591
11
169.709
21
-93.3805
0
LINE
8
BLACK
6
CONTINUOUS
10
169.709
20
-93.3805
11
169.731
21
-93.4067
0
LINE
8
BLACK
6
CONTINUOUS
10
169.731
20
-93.4067
11
169.747
21
-93.4365
0
LINE
8
BLACK
6
CONTINUOUS
10
169.747
20
-93.4365
11
169.757
21
-93.4688
0
LINE
8
BLACK
6
CONTINUOUS
10
169.757
20
-93.4688
11
169.76
21
-93.5025
0
LINE
8
BLACK
6
CONTINUOUS
10
169.76
20
-93.5025
11
169.76
21
-93.8975
0
LINE
8
BLACK
6
CONTINUOUS
10
169.76
20
-93.8975
11
169.757
21
-93.9312
0
LINE
8
BLACK
6
CONTINUOUS
10
169.757
20
-93.9312
11
169.747
21
-93.9635
0
LINE
8
BLACK
6
CONTINUOUS
10
169.747
20
-93.9635
11
169.731
21
-93.9933
0
LINE
8
BLACK
6
CONTINUOUS
10
169.731
20
-93.9933
11
169.709
21
-94.0195
0
LINE
8
BLACK
6
CONTINUOUS
10
169.709
20
-94.0195
11
169.683
21
-94.0409
0
LINE
8
BLACK
6
CONTINUOUS
10
169.683
20
-94.0409
11
169.654
21
-94.0569
0
LINE
8
BLACK
6
CONTINUOUS
10
169.654
20
-94.0569
11
169.621
21
-94.0667
0
LINE
8
BLACK
6
CONTINUOUS
10
169.621
20
-94.0667
11
169.588
21
-94.07
0
LINE
8
BLACK
6
CONTINUOUS
10
169.588
20
-94.07
11
169.242
21
-94.07
0
LINE
8
BLACK
6
CONTINUOUS
10
169.242
20
-94.07
11
169.209
21
-94.0667
0
LINE
8
BLACK
6
CONTINUOUS
10
169.209
20
-94.0667
11
169.176
21
-94.0569
0
LINE
8
BLACK
6
CONTINUOUS
10
169.176
20
-94.0569
11
169.147
21
-94.0409
0
LINE
8
BLACK
6
CONTINUOUS
10
169.147
20
-94.0409
11
169.121
21
-94.0195
0
LINE
8
BLACK
6
CONTINUOUS
10
169.121
20
-94.0195
11
169.099
21
-93.9933
0
LINE
8
BLACK
6
CONTINUOUS
10
169.099
20
-93.9933
11
169.083
21
-93.9635
0
LINE
8
BLACK
6
CONTINUOUS
10
169.083
20
-93.9635
11
169.073
21
-93.9312
0
LINE
8
BLACK
6
CONTINUOUS
10
169.073
20
-93.9312
11
169.07
21
-93.8975
0
LINE
8
BLACK
6
CONTINUOUS
10
169.07
20
-93.8975
11
169.07
21
-93.5025
0
LINE
8
BLACK
6
CONTINUOUS
10
169.07
20
-93.5025
11
169.073
21
-93.4688
0
LINE
8
BLACK
6
CONTINUOUS
10
169.073
20
-93.4688
11
169.083
21
-93.4365
0
LINE
8
BLACK
6
CONTINUOUS
10
169.083
20
-93.4365
11
169.099
21
-93.4067
0
LINE
8
BLACK
6
CONTINUOUS
10
169.099
20
-93.4067
11
169.121
21
-93.3805
0
LINE
8
BLACK
6
CONTINUOUS
10
169.121
20
-93.3805
11
169.147
21
-93.3591
0
LINE
8
BLACK
6
CONTINUOUS
10
169.147
20
-93.3591
11
169.176
21
-93.3431
0
LINE
8
BLACK
6
CONTINUOUS
10
169.176
20
-93.3431
11
169.209
21
-93.3333
0
LINE
8
BLACK
6
CONTINUOUS
10
169.209
20
-93.3333
11
169.242
21
-93.33
0
LINE
8
BLACK
6
CONTINUOUS
10
169.242
20
-93.33
11
169.588
21
-93.33
0
LINE
8
BLACK
6
CONTINUOUS
10
169.588
20
-93.33
11
169.621
21
-93.3333
0
LINE
8
BLACK
6
CONTINUOUS
10
172
20
-92.975
11
171.3
21
-92.975
0
LINE
8
BLACK
6
CONTINUOUS
10
171.3
20
-92.975
11
171.3
21
-91.725
0
LINE
8
BLACK
6
CONTINUOUS
10
171.3
20
-91.725
11
172
21
-91.725
0
LINE
8
BLACK
6
CONTINUOUS
10
172
20
-91.725
11
172
21
-92.975
0
LINE
8
BLACK
6
CONTINUOUS
10
172.95
20
-92.975
11
172.25
21
-92.975
0
LINE
8
BLACK
6
CONTINUOUS
10
172.25
20
-92.975
11
172.25
21
-91.725
0
LINE
8
BLACK
6
CONTINUOUS
10
172.25
20
-91.725
11
172.95
21
-91.725
0
LINE
8
BLACK
6
CONTINUOUS
10
172.95
20
-91.725
11
172.95
21
-92.975
0
LINE
8
BLACK
6
CONTINUOUS
10
173.9
20
-92.975
11
173.2
21
-92.975
0
LINE
8
BLACK
6
CONTINUOUS
10
173.2
20
-92.975
11
173.2
21
-91.725
0
LINE
8
BLACK
6
CONTINUOUS
10
173.2
20
-91.725
11
173.9
21
-91.725
0
LINE
8
BLACK
6
CONTINUOUS
10
173.9
20
-91.725
11
173.9
21
-92.975
0
LINE
8
BLACK
6
CONTINUOUS
10
118.904
20
-89.6697
11
119.155
21
-89.774
0
LINE
8
BLACK
6
CONTINUOUS
10
119.155
20
-89.774
11
119.382
21
-89.9254
0
LINE
8
BLACK
6
CONTINUOUS
10
119.382
20
-89.9254
11
119.575
21
-90.1181
0
LINE
8
BLACK
6
CONTINUOUS
10
119.575
20
-90.1181
11
119.726
21
-90.3447
0
LINE
8
BLACK
6
CONTINUOUS
10
119.726
20
-90.3447
11
119.83
21
-90.5964
0
LINE
8
BLACK
6
CONTINUOUS
10
119.83
20
-90.5964
11
119.883
21
-90.8637
0
LINE
8
BLACK
6
CONTINUOUS
10
119.883
20
-90.8637
11
119.883
21
-91.1363
0
LINE
8
BLACK
6
CONTINUOUS
10
119.883
20
-91.1363
11
119.83
21
-91.4036
0
LINE
8
BLACK
6
CONTINUOUS
10
119.83
20
-91.4036
11
119.726
21
-91.6553
0
LINE
8
BLACK
6
CONTINUOUS
10
119.726
20
-91.6553
11
119.575
21
-91.8819
0
LINE
8
BLACK
6
CONTINUOUS
10
119.575
20
-91.8819
11
119.382
21
-92.0746
0
LINE
8
BLACK
6
CONTINUOUS
10
119.382
20
-92.0746
11
119.155
21
-92.226
0
LINE
8
BLACK
6
CONTINUOUS
10
119.155
20
-92.226
11
118.904
21
-92.3303
0
LINE
8
BLACK
6
CONTINUOUS
10
118.904
20
-92.3303
11
118.636
21
-92.3835
0
LINE
8
BLACK
6
CONTINUOUS
10
118.636
20
-92.3835
11
118.364
21
-92.3835
0
LINE
8
BLACK
6
CONTINUOUS
10
118.364
20
-92.3835
11
118.096
21
-92.3303
0
LINE
8
BLACK
6
CONTINUOUS
10
118.096
20
-92.3303
11
117.845
21
-92.226
0
LINE
8
BLACK
6
CONTINUOUS
10
117.845
20
-92.226
11
117.618
21
-92.0746
0
LINE
8
BLACK
6
CONTINUOUS
10
117.618
20
-92.0746
11
117.425
21
-91.8819
0
LINE
8
BLACK
6
CONTINUOUS
10
117.425
20
-91.8819
11
117.274
21
-91.6553
0
LINE
8
BLACK
6
CONTINUOUS
10
117.274
20
-91.6553
11
117.17
21
-91.4036
0
LINE
8
BLACK
6
CONTINUOUS
10
117.17
20
-91.4036
11
117.116
21
-91.1363
0
LINE
8
BLACK
6
CONTINUOUS
10
117.116
20
-91.1363
11
117.116
21
-90.8637
0
LINE
8
BLACK
6
CONTINUOUS
10
117.116
20
-90.8637
11
117.17
21
-90.5964
0
LINE
8
BLACK
6
CONTINUOUS
10
117.17
20
-90.5964
11
117.274
21
-90.3447
0
LINE
8
BLACK
6
CONTINUOUS
10
117.274
20
-90.3447
11
117.425
21
-90.1181
0
LINE
8
BLACK
6
CONTINUOUS
10
117.425
20
-90.1181
11
117.618
21
-89.9254
0
LINE
8
BLACK
6
CONTINUOUS
10
117.618
20
-89.9254
11
117.845
21
-89.774
0
LINE
8
BLACK
6
CONTINUOUS
10
117.845
20
-89.774
11
118.096
21
-89.6697
0
LINE
8
BLACK
6
CONTINUOUS
10
118.096
20
-89.6697
11
118.364
21
-89.6165
0
LINE
8
BLACK
6
CONTINUOUS
10
118.364
20
-89.6165
11
118.636
21
-89.6165
0
LINE
8
BLACK
6
CONTINUOUS
10
118.636
20
-89.6165
11
118.904
21
-89.6697
0
LINE
8
BLACK
6
CONTINUOUS
10
164.191
20
-90.6333
11
164.224
21
-90.6431
0
LINE
8
BLACK
6
CONTINUOUS
10
164.224
20
-90.6431
11
164.253
21
-90.6591
0
LINE
8
BLACK
6
CONTINUOUS
10
164.253
20
-90.6591
11
164.279
21
-90.6805
0
LINE
8
BLACK
6
CONTINUOUS
10
164.279
20
-90.6805
11
164.301
21
-90.7067
0
LINE
8
BLACK
6
CONTINUOUS
10
164.301
20
-90.7067
11
164.317
21
-90.7365
0
LINE
8
BLACK
6
CONTINUOUS
10
164.317
20
-90.7365
11
164.327
21
-90.7688
0
LINE
8
BLACK
6
CONTINUOUS
10
164.327
20
-90.7688
11
164.33
21
-90.8025
0
LINE
8
BLACK
6
CONTINUOUS
10
164.33
20
-90.8025
11
164.33
21
-91.1975
0
LINE
8
BLACK
6
CONTINUOUS
10
164.33
20
-91.1975
11
164.327
21
-91.2312
0
LINE
8
BLACK
6
CONTINUOUS
10
164.327
20
-91.2312
11
164.317
21
-91.2635
0
LINE
8
BLACK
6
CONTINUOUS
10
164.317
20
-91.2635
11
164.301
21
-91.2933
0
LINE
8
BLACK
6
CONTINUOUS
10
164.301
20
-91.2933
11
164.279
21
-91.3195
0
LINE
8
BLACK
6
CONTINUOUS
10
164.279
20
-91.3195
11
164.253
21
-91.3409
0
LINE
8
BLACK
6
CONTINUOUS
10
164.253
20
-91.3409
11
164.224
21
-91.3569
0
LINE
8
BLACK
6
CONTINUOUS
10
164.224
20
-91.3569
11
164.191
21
-91.3667
0
LINE
8
BLACK
6
CONTINUOUS
10
164.191
20
-91.3667
11
164.157
21
-91.37
0
LINE
8
BLACK
6
CONTINUOUS
10
164.157
20
-91.37
11
163.812
21
-91.37
0
LINE
8
BLACK
6
CONTINUOUS
10
163.812
20
-91.37
11
163.779
21
-91.3667
0
LINE
8
BLACK
6
CONTINUOUS
10
163.779
20
-91.3667
11
163.746
21
-91.3569
0
LINE
8
BLACK
6
CONTINUOUS
10
163.746
20
-91.3569
11
163.717
21
-91.3409
0
LINE
8
BLACK
6
CONTINUOUS
10
163.717
20
-91.3409
11
163.691
21
-91.3195
0
LINE
8
BLACK
6
CONTINUOUS
10
163.691
20
-91.3195
11
163.669
21
-91.2933
0
LINE
8
BLACK
6
CONTINUOUS
10
163.669
20
-91.2933
11
163.653
21
-91.2635
0
LINE
8
BLACK
6
CONTINUOUS
10
163.653
20
-91.2635
11
163.643
21
-91.2312
0
LINE
8
BLACK
6
CONTINUOUS
10
163.643
20
-91.2312
11
163.64
21
-91.1975
0
LINE
8
BLACK
6
CONTINUOUS
10
163.64
20
-91.1975
11
163.64
21
-90.8025
0
LINE
8
BLACK
6
CONTINUOUS
10
163.64
20
-90.8025
11
163.643
21
-90.7688
0
LINE
8
BLACK
6
CONTINUOUS
10
163.643
20
-90.7688
11
163.653
21
-90.7365
0
LINE
8
BLACK
6
CONTINUOUS
10
163.653
20
-90.7365
11
163.669
21
-90.7067
0
LINE
8
BLACK
6
CONTINUOUS
10
163.669
20
-90.7067
11
163.691
21
-90.6805
0
LINE
8
BLACK
6
CONTINUOUS
10
163.691
20
-90.6805
11
163.717
21
-90.6591
0
LINE
8
BLACK
6
CONTINUOUS
10
163.717
20
-90.6591
11
163.746
21
-90.6431
0
LINE
8
BLACK
6
CONTINUOUS
10
163.746
20
-90.6431
11
163.779
21
-90.6333
0
LINE
8
BLACK
6
CONTINUOUS
10
163.779
20
-90.6333
11
163.812
21
-90.63
0
LINE
8
BLACK
6
CONTINUOUS
10
163.812
20
-90.63
11
164.157
21
-90.63
0
LINE
8
BLACK
6
CONTINUOUS
10
164.157
20
-90.63
11
164.191
21
-90.6333
0
LINE
8
BLACK
6
CONTINUOUS
10
163.221
20
-90.6333
11
163.254
21
-90.6431
0
LINE
8
BLACK
6
CONTINUOUS
10
163.254
20
-90.6431
11
163.283
21
-90.6591
0
LINE
8
BLACK
6
CONTINUOUS
10
163.283
20
-90.6591
11
163.309
21
-90.6805
0
LINE
8
BLACK
6
CONTINUOUS
10
163.309
20
-90.6805
11
163.331
21
-90.7067
0
LINE
8
BLACK
6
CONTINUOUS
10
163.331
20
-90.7067
11
163.347
21
-90.7365
0
LINE
8
BLACK
6
CONTINUOUS
10
163.347
20
-90.7365
11
163.357
21
-90.7688
0
LINE
8
BLACK
6
CONTINUOUS
10
163.357
20
-90.7688
11
163.36
21
-90.8025
0
LINE
8
BLACK
6
CONTINUOUS
10
163.36
20
-90.8025
11
163.36
21
-91.1975
0
LINE
8
BLACK
6
CONTINUOUS
10
163.36
20
-91.1975
11
163.357
21
-91.2312
0
LINE
8
BLACK
6
CONTINUOUS
10
163.357
20
-91.2312
11
163.347
21
-91.2635
0
LINE
8
BLACK
6
CONTINUOUS
10
163.347
20
-91.2635
11
163.331
21
-91.2933
0
LINE
8
BLACK
6
CONTINUOUS
10
163.331
20
-91.2933
11
163.309
21
-91.3195
0
LINE
8
BLACK
6
CONTINUOUS
10
163.309
20
-91.3195
11
163.283
21
-91.3409
0
LINE
8
BLACK
6
CONTINUOUS
10
163.283
20
-91.3409
11
163.254
21
-91.3569
0
LINE
8
BLACK
6
CONTINUOUS
10
163.254
20
-91.3569
11
163.221
21
-91.3667
0
LINE
8
BLACK
6
CONTINUOUS
10
163.221
20
-91.3667
11
163.188
21
-91.37
0
LINE
8
BLACK
6
CONTINUOUS
10
163.188
20
-91.37
11
162.843
21
-91.37
0
LINE
8
BLACK
6
CONTINUOUS
10
162.843
20
-91.37
11
162.809
21
-91.3667
0
LINE
8
BLACK
6
CONTINUOUS
10
162.809
20
-91.3667
11
162.776
21
-91.3569
0
LINE
8
BLACK
6
CONTINUOUS
10
162.776
20
-91.3569
11
162.747
21
-91.3409
0
LINE
8
BLACK
6
CONTINUOUS
10
162.747
20
-91.3409
11
162.721
21
-91.3195
0
LINE
8
BLACK
6
CONTINUOUS
10
162.721
20
-91.3195
11
162.699
21
-91.2933
0
LINE
8
BLACK
6
CONTINUOUS
10
162.699
20
-91.2933
11
162.683
21
-91.2635
0
LINE
8
BLACK
6
CONTINUOUS
10
162.683
20
-91.2635
11
162.673
21
-91.2312
0
LINE
8
BLACK
6
CONTINUOUS
10
162.673
20
-91.2312
11
162.67
21
-91.1975
0
LINE
8
BLACK
6
CONTINUOUS
10
162.67
20
-91.1975
11
162.67
21
-90.8025
0
LINE
8
BLACK
6
CONTINUOUS
10
162.67
20
-90.8025
11
162.673
21
-90.7688
0
LINE
8
BLACK
6
CONTINUOUS
10
162.673
20
-90.7688
11
162.683
21
-90.7365
0
LINE
8
BLACK
6
CONTINUOUS
10
162.683
20
-90.7365
11
162.699
21
-90.7067
0
LINE
8
BLACK
6
CONTINUOUS
10
162.699
20
-90.7067
11
162.721
21
-90.6805
0
LINE
8
BLACK
6
CONTINUOUS
10
162.721
20
-90.6805
11
162.747
21
-90.6591
0
LINE
8
BLACK
6
CONTINUOUS
10
162.747
20
-90.6591
11
162.776
21
-90.6431
0
LINE
8
BLACK
6
CONTINUOUS
10
162.776
20
-90.6431
11
162.809
21
-90.6333
0
LINE
8
BLACK
6
CONTINUOUS
10
162.809
20
-90.6333
11
162.843
21
-90.63
0
LINE
8
BLACK
6
CONTINUOUS
10
162.843
20
-90.63
11
163.188
21
-90.63
0
LINE
8
BLACK
6
CONTINUOUS
10
163.188
20
-90.63
11
163.221
21
-90.6333
0
LINE
8
BLACK
6
CONTINUOUS
10
161.931
20
-90.5433
11
161.964
21
-90.5531
0
LINE
8
BLACK
6
CONTINUOUS
10
161.964
20
-90.5531
11
161.993
21
-90.5691
0
LINE
8
BLACK
6
CONTINUOUS
10
161.993
20
-90.5691
11
162.019
21
-90.5905
0
LINE
8
BLACK
6
CONTINUOUS
10
162.019
20
-90.5905
11
162.041
21
-90.6167
0
LINE
8
BLACK
6
CONTINUOUS
10
162.041
20
-90.6167
11
162.057
21
-90.6465
0
LINE
8
BLACK
6
CONTINUOUS
10
162.057
20
-90.6465
11
162.067
21
-90.6788
0
LINE
8
BLACK
6
CONTINUOUS
10
162.067
20
-90.6788
11
162.07
21
-90.7125
0
LINE
8
BLACK
6
CONTINUOUS
10
162.07
20
-90.7125
11
162.07
21
-91.0575
0
LINE
8
BLACK
6
CONTINUOUS
10
162.07
20
-91.0575
11
162.067
21
-91.0912
0
LINE
8
BLACK
6
CONTINUOUS
10
162.067
20
-91.0912
11
162.057
21
-91.1235
0
LINE
8
BLACK
6
CONTINUOUS
10
162.057
20
-91.1235
11
162.041
21
-91.1533
0
LINE
8
BLACK
6
CONTINUOUS
10
162.041
20
-91.1533
11
162.019
21
-91.1795
0
LINE
8
BLACK
6
CONTINUOUS
10
162.019
20
-91.1795
11
161.993
21
-91.2009
0
LINE
8
BLACK
6
CONTINUOUS
10
161.993
20
-91.2009
11
161.964
21
-91.2169
0
LINE
8
BLACK
6
CONTINUOUS
10
161.964
20
-91.2169
11
161.931
21
-91.2267
0
LINE
8
BLACK
6
CONTINUOUS
10
161.931
20
-91.2267
11
161.897
21
-91.23
0
LINE
8
BLACK
6
CONTINUOUS
10
161.897
20
-91.23
11
161.502
21
-91.23
0
LINE
8
BLACK
6
CONTINUOUS
10
161.502
20
-91.23
11
161.469
21
-91.2267
0
LINE
8
BLACK
6
CONTINUOUS
10
161.469
20
-91.2267
11
161.436
21
-91.2169
0
LINE
8
BLACK
6
CONTINUOUS
10
161.436
20
-91.2169
11
161.407
21
-91.2009
0
LINE
8
BLACK
6
CONTINUOUS
10
161.407
20
-91.2009
11
161.381
21
-91.1795
0
LINE
8
BLACK
6
CONTINUOUS
10
161.381
20
-91.1795
11
161.359
21
-91.1533
0
LINE
8
BLACK
6
CONTINUOUS
10
161.359
20
-91.1533
11
161.343
21
-91.1235
0
LINE
8
BLACK
6
CONTINUOUS
10
161.343
20
-91.1235
11
161.333
21
-91.0912
0
LINE
8
BLACK
6
CONTINUOUS
10
161.333
20
-91.0912
11
161.33
21
-91.0575
0
LINE
8
BLACK
6
CONTINUOUS
10
161.33
20
-91.0575
11
161.33
21
-90.7125
0
LINE
8
BLACK
6
CONTINUOUS
10
161.33
20
-90.7125
11
161.333
21
-90.6788
0
LINE
8
BLACK
6
CONTINUOUS
10
161.333
20
-90.6788
11
161.343
21
-90.6465
0
LINE
8
BLACK
6
CONTINUOUS
10
161.343
20
-90.6465
11
161.359
21
-90.6167
0
LINE
8
BLACK
6
CONTINUOUS
10
161.359
20
-90.6167
11
161.381
21
-90.5905
0
LINE
8
BLACK
6
CONTINUOUS
10
161.381
20
-90.5905
11
161.407
21
-90.5691
0
LINE
8
BLACK
6
CONTINUOUS
10
161.407
20
-90.5691
11
161.436
21
-90.5531
0
LINE
8
BLACK
6
CONTINUOUS
10
161.436
20
-90.5531
11
161.469
21
-90.5433
0
LINE
8
BLACK
6
CONTINUOUS
10
161.469
20
-90.5433
11
161.502
21
-90.54
0
LINE
8
BLACK
6
CONTINUOUS
10
161.502
20
-90.54
11
161.897
21
-90.54
0
LINE
8
BLACK
6
CONTINUOUS
10
161.897
20
-90.54
11
161.931
21
-90.5433
0
LINE
8
BLACK
6
CONTINUOUS
10
172
20
-90.475
11
171.3
21
-90.475
0
LINE
8
BLACK
6
CONTINUOUS
10
171.3
20
-90.475
11
171.3
21
-89.225
0
LINE
8
BLACK
6
CONTINUOUS
10
171.3
20
-89.225
11
172
21
-89.225
0
LINE
8
BLACK
6
CONTINUOUS
10
172
20
-89.225
11
172
21
-90.475
0
LINE
8
BLACK
6
CONTINUOUS
10
173.9
20
-90.475
11
173.2
21
-90.475
0
LINE
8
BLACK
6
CONTINUOUS
10
173.2
20
-90.475
11
173.2
21
-89.225
0
LINE
8
BLACK
6
CONTINUOUS
10
173.2
20
-89.225
11
173.9
21
-89.225
0
LINE
8
BLACK
6
CONTINUOUS
10
173.9
20
-89.225
11
173.9
21
-90.475
0
LINE
8
BLACK
6
CONTINUOUS
10
161.931
20
-89.5733
11
161.964
21
-89.5831
0
LINE
8
BLACK
6
CONTINUOUS
10
161.964
20
-89.5831
11
161.993
21
-89.5991
0
LINE
8
BLACK
6
CONTINUOUS
10
161.993
20
-89.5991
11
162.019
21
-89.6205
0
LINE
8
BLACK
6
CONTINUOUS
10
162.019
20
-89.6205
11
162.041
21
-89.6467
0
LINE
8
BLACK
6
CONTINUOUS
10
162.041
20
-89.6467
11
162.057
21
-89.6765
0
LINE
8
BLACK
6
CONTINUOUS
10
162.057
20
-89.6765
11
162.067
21
-89.7088
0
LINE
8
BLACK
6
CONTINUOUS
10
162.067
20
-89.7088
11
162.07
21
-89.7425
0
LINE
8
BLACK
6
CONTINUOUS
10
162.07
20
-89.7425
11
162.07
21
-90.0875
0
LINE
8
BLACK
6
CONTINUOUS
10
162.07
20
-90.0875
11
162.067
21
-90.1212
0
LINE
8
BLACK
6
CONTINUOUS
10
162.067
20
-90.1212
11
162.057
21
-90.1535
0
LINE
8
BLACK
6
CONTINUOUS
10
162.057
20
-90.1535
11
162.041
21
-90.1833
0
LINE
8
BLACK
6
CONTINUOUS
10
162.041
20
-90.1833
11
162.019
21
-90.2095
0
LINE
8
BLACK
6
CONTINUOUS
10
162.019
20
-90.2095
11
161.993
21
-90.2309
0
LINE
8
BLACK
6
CONTINUOUS
10
161.993
20
-90.2309
11
161.964
21
-90.2469
0
LINE
8
BLACK
6
CONTINUOUS
10
161.964
20
-90.2469
11
161.931
21
-90.2567
0
LINE
8
BLACK
6
CONTINUOUS
10
161.931
20
-90.2567
11
161.897
21
-90.26
0
LINE
8
BLACK
6
CONTINUOUS
10
161.897
20
-90.26
11
161.502
21
-90.26
0
LINE
8
BLACK
6
CONTINUOUS
10
161.502
20
-90.26
11
161.469
21
-90.2567
0
LINE
8
BLACK
6
CONTINUOUS
10
161.469
20
-90.2567
11
161.436
21
-90.2469
0
LINE
8
BLACK
6
CONTINUOUS
10
161.436
20
-90.2469
11
161.407
21
-90.2309
0
LINE
8
BLACK
6
CONTINUOUS
10
161.407
20
-90.2309
11
161.381
21
-90.2095
0
LINE
8
BLACK
6
CONTINUOUS
10
161.381
20
-90.2095
11
161.359
21
-90.1833
0
LINE
8
BLACK
6
CONTINUOUS
10
161.359
20
-90.1833
11
161.343
21
-90.1535
0
LINE
8
BLACK
6
CONTINUOUS
10
161.343
20
-90.1535
11
161.333
21
-90.1212
0
LINE
8
BLACK
6
CONTINUOUS
10
161.333
20
-90.1212
11
161.33
21
-90.0875
0
LINE
8
BLACK
6
CONTINUOUS
10
161.33
20
-90.0875
11
161.33
21
-89.7425
0
LINE
8
BLACK
6
CONTINUOUS
10
161.33
20
-89.7425
11
161.333
21
-89.7088
0
LINE
8
BLACK
6
CONTINUOUS
10
161.333
20
-89.7088
11
161.343
21
-89.6765
0
LINE
8
BLACK
6
CONTINUOUS
10
161.343
20
-89.6765
11
161.359
21
-89.6467
0
LINE
8
BLACK
6
CONTINUOUS
10
161.359
20
-89.6467
11
161.381
21
-89.6205
0
LINE
8
BLACK
6
CONTINUOUS
10
161.381
20
-89.6205
11
161.407
21
-89.5991
0
LINE
8
BLACK
6
CONTINUOUS
10
161.407
20
-89.5991
11
161.436
21
-89.5831
0
LINE
8
BLACK
6
CONTINUOUS
10
161.436
20
-89.5831
11
161.469
21
-89.5733
0
LINE
8
BLACK
6
CONTINUOUS
10
161.469
20
-89.5733
11
161.502
21
-89.57
0
LINE
8
BLACK
6
CONTINUOUS
10
161.502
20
-89.57
11
161.897
21
-89.57
0
LINE
8
BLACK
6
CONTINUOUS
10
161.897
20
-89.57
11
161.931
21
-89.5733
0
LINE
8
BLACK
6
CONTINUOUS
10
172.831
20
-89.2433
11
172.864
21
-89.2531
0
LINE
8
BLACK
6
CONTINUOUS
10
172.864
20
-89.2531
11
172.893
21
-89.2691
0
LINE
8
BLACK
6
CONTINUOUS
10
172.893
20
-89.2691
11
172.919
21
-89.2905
0
LINE
8
BLACK
6
CONTINUOUS
10
172.919
20
-89.2905
11
172.941
21
-89.3167
0
LINE
8
BLACK
6
CONTINUOUS
10
172.941
20
-89.3167
11
172.957
21
-89.3465
0
LINE
8
BLACK
6
CONTINUOUS
10
172.957
20
-89.3465
11
172.967
21
-89.3788
0
LINE
8
BLACK
6
CONTINUOUS
10
172.967
20
-89.3788
11
172.97
21
-89.4125
0
LINE
8
BLACK
6
CONTINUOUS
10
172.97
20
-89.4125
11
172.97
21
-89.7575
0
LINE
8
BLACK
6
CONTINUOUS
10
172.97
20
-89.7575
11
172.967
21
-89.7912
0
LINE
8
BLACK
6
CONTINUOUS
10
172.967
20
-89.7912
11
172.957
21
-89.8235
0
LINE
8
BLACK
6
CONTINUOUS
10
172.957
20
-89.8235
11
172.941
21
-89.8533
0
LINE
8
BLACK
6
CONTINUOUS
10
172.941
20
-89.8533
11
172.919
21
-89.8795
0
LINE
8
BLACK
6
CONTINUOUS
10
172.919
20
-89.8795
11
172.893
21
-89.9009
0
LINE
8
BLACK
6
CONTINUOUS
10
172.893
20
-89.9009
11
172.864
21
-89.9169
0
LINE
8
BLACK
6
CONTINUOUS
10
172.864
20
-89.9169
11
172.831
21
-89.9267
0
LINE
8
BLACK
6
CONTINUOUS
10
172.831
20
-89.9267
11
172.797
21
-89.93
0
LINE
8
BLACK
6
CONTINUOUS
10
172.797
20
-89.93
11
172.403
21
-89.93
0
LINE
8
BLACK
6
CONTINUOUS
10
172.403
20
-89.93
11
172.369
21
-89.9267
0
LINE
8
BLACK
6
CONTINUOUS
10
172.369
20
-89.9267
11
172.336
21
-89.9169
0
LINE
8
BLACK
6
CONTINUOUS
10
172.336
20
-89.9169
11
172.307
21
-89.9009
0
LINE
8
BLACK
6
CONTINUOUS
10
172.307
20
-89.9009
11
172.281
21
-89.8795
0
LINE
8
BLACK
6
CONTINUOUS
10
172.281
20
-89.8795
11
172.259
21
-89.8533
0
LINE
8
BLACK
6
CONTINUOUS
10
172.259
20
-89.8533
11
172.243
21
-89.8235
0
LINE
8
BLACK
6
CONTINUOUS
10
172.243
20
-89.8235
11
172.233
21
-89.7912
0
LINE
8
BLACK
6
CONTINUOUS
10
172.233
20
-89.7912
11
172.23
21
-89.7575
0
LINE
8
BLACK
6
CONTINUOUS
10
172.23
20
-89.7575
11
172.23
21
-89.4125
0
LINE
8
BLACK
6
CONTINUOUS
10
172.23
20
-89.4125
11
172.233
21
-89.3788
0
LINE
8
BLACK
6
CONTINUOUS
10
172.233
20
-89.3788
11
172.243
21
-89.3465
0
LINE
8
BLACK
6
CONTINUOUS
10
172.243
20
-89.3465
11
172.259
21
-89.3167
0
LINE
8
BLACK
6
CONTINUOUS
10
172.259
20
-89.3167
11
172.281
21
-89.2905
0
LINE
8
BLACK
6
CONTINUOUS
10
172.281
20
-89.2905
11
172.307
21
-89.2691
0
LINE
8
BLACK
6
CONTINUOUS
10
172.307
20
-89.2691
11
172.336
21
-89.2531
0
LINE
8
BLACK
6
CONTINUOUS
10
172.336
20
-89.2531
11
172.369
21
-89.2433
0
LINE
8
BLACK
6
CONTINUOUS
10
172.369
20
-89.2433
11
172.403
21
-89.24
0
LINE
8
BLACK
6
CONTINUOUS
10
172.403
20
-89.24
11
172.797
21
-89.24
0
LINE
8
BLACK
6
CONTINUOUS
10
172.797
20
-89.24
11
172.831
21
-89.2433
0
LINE
8
BLACK
6
CONTINUOUS
10
116.347
20
-87.1846
11
116.588
21
-87.2846
0
LINE
8
BLACK
6
CONTINUOUS
10
116.588
20
-87.2846
11
116.805
21
-87.4298
0
LINE
8
BLACK
6
CONTINUOUS
10
116.805
20
-87.4298
11
116.99
21
-87.6145
0
LINE
8
BLACK
6
CONTINUOUS
10
116.99
20
-87.6145
11
117.135
21
-87.8317
0
LINE
8
BLACK
6
CONTINUOUS
10
117.135
20
-87.8317
11
117.235
21
-88.0731
0
LINE
8
BLACK
6
CONTINUOUS
10
117.235
20
-88.0731
11
117.286
21
-88.3294
0
LINE
8
BLACK
6
CONTINUOUS
10
117.286
20
-88.3294
11
117.286
21
-88.5906
0
LINE
8
BLACK
6
CONTINUOUS
10
117.286
20
-88.5906
11
117.235
21
-88.8469
0
LINE
8
BLACK
6
CONTINUOUS
10
117.235
20
-88.8469
11
117.135
21
-89.0883
0
LINE
8
BLACK
6
CONTINUOUS
10
117.135
20
-89.0883
11
116.99
21
-89.3055
0
LINE
8
BLACK
6
CONTINUOUS
10
116.99
20
-89.3055
11
116.805
21
-89.4902
0
LINE
8
BLACK
6
CONTINUOUS
10
116.805
20
-89.4902
11
116.588
21
-89.6354
0
LINE
8
BLACK
6
CONTINUOUS
10
116.588
20
-89.6354
11
116.347
21
-89.7354
0
LINE
8
BLACK
6
CONTINUOUS
10
116.347
20
-89.7354
11
116.091
21
-89.7863
0
LINE
8
BLACK
6
CONTINUOUS
10
116.091
20
-89.7863
11
115.829
21
-89.7863
0
LINE
8
BLACK
6
CONTINUOUS
10
115.829
20
-89.7863
11
115.573
21
-89.7354
0
LINE
8
BLACK
6
CONTINUOUS
10
115.573
20
-89.7354
11
115.332
21
-89.6354
0
LINE
8
BLACK
6
CONTINUOUS
10
115.332
20
-89.6354
11
115.115
21
-89.4902
0
LINE
8
BLACK
6
CONTINUOUS
10
115.115
20
-89.4902
11
114.93
21
-89.3055
0
LINE
8
BLACK
6
CONTINUOUS
10
114.93
20
-89.3055
11
114.785
21
-89.0883
0
LINE
8
BLACK
6
CONTINUOUS
10
114.785
20
-89.0883
11
114.685
21
-88.8469
0
LINE
8
BLACK
6
CONTINUOUS
10
114.685
20
-88.8469
11
114.634
21
-88.5906
0
LINE
8
BLACK
6
CONTINUOUS
10
114.634
20
-88.5906
11
114.634
21
-88.3294
0
LINE
8
BLACK
6
CONTINUOUS
10
114.634
20
-88.3294
11
114.685
21
-88.0731
0
LINE
8
BLACK
6
CONTINUOUS
10
114.685
20
-88.0731
11
114.785
21
-87.8317
0
LINE
8
BLACK
6
CONTINUOUS
10
114.785
20
-87.8317
11
114.93
21
-87.6145
0
LINE
8
BLACK
6
CONTINUOUS
10
114.93
20
-87.6145
11
115.115
21
-87.4298
0
LINE
8
BLACK
6
CONTINUOUS
10
115.115
20
-87.4298
11
115.332
21
-87.2846
0
LINE
8
BLACK
6
CONTINUOUS
10
115.332
20
-87.2846
11
115.573
21
-87.1846
0
LINE
8
BLACK
6
CONTINUOUS
10
115.573
20
-87.1846
11
115.829
21
-87.1337
0
LINE
8
BLACK
6
CONTINUOUS
10
115.829
20
-87.1337
11
116.091
21
-87.1337
0
LINE
8
BLACK
6
CONTINUOUS
10
116.091
20
-87.1337
11
116.347
21
-87.1846
0
LINE
8
BLACK
6
CONTINUOUS
10
121.427
20
-87.1846
11
121.668
21
-87.2846
0
LINE
8
BLACK
6
CONTINUOUS
10
121.668
20
-87.2846
11
121.885
21
-87.4298
0
LINE
8
BLACK
6
CONTINUOUS
10
121.885
20
-87.4298
11
122.07
21
-87.6145
0
LINE
8
BLACK
6
CONTINUOUS
10
122.07
20
-87.6145
11
122.215
21
-87.8317
0
LINE
8
BLACK
6
CONTINUOUS
10
122.215
20
-87.8317
11
122.315
21
-88.0731
0
LINE
8
BLACK
6
CONTINUOUS
10
122.315
20
-88.0731
11
122.366
21
-88.3294
0
LINE
8
BLACK
6
CONTINUOUS
10
122.366
20
-88.3294
11
122.366
21
-88.5906
0
LINE
8
BLACK
6
CONTINUOUS
10
122.366
20
-88.5906
11
122.315
21
-88.8469
0
LINE
8
BLACK
6
CONTINUOUS
10
122.315
20
-88.8469
11
122.215
21
-89.0883
0
LINE
8
BLACK
6
CONTINUOUS
10
122.215
20
-89.0883
11
122.07
21
-89.3055
0
LINE
8
BLACK
6
CONTINUOUS
10
122.07
20
-89.3055
11
121.885
21
-89.4902
0
LINE
8
BLACK
6
CONTINUOUS
10
121.885
20
-89.4902
11
121.668
21
-89.6354
0
LINE
8
BLACK
6
CONTINUOUS
10
121.668
20
-89.6354
11
121.427
21
-89.7354
0
LINE
8
BLACK
6
CONTINUOUS
10
121.427
20
-89.7354
11
121.171
21
-89.7863
0
LINE
8
BLACK
6
CONTINUOUS
10
121.171
20
-89.7863
11
120.909
21
-89.7863
0
LINE
8
BLACK
6
CONTINUOUS
10
120.909
20
-89.7863
11
120.653
21
-89.7354
0
LINE
8
BLACK
6
CONTINUOUS
10
120.653
20
-89.7354
11
120.412
21
-89.6354
0
LINE
8
BLACK
6
CONTINUOUS
10
120.412
20
-89.6354
11
120.195
21
-89.4902
0
LINE
8
BLACK
6
CONTINUOUS
10
120.195
20
-89.4902
11
120.01
21
-89.3055
0
LINE
8
BLACK
6
CONTINUOUS
10
120.01
20
-89.3055
11
119.865
21
-89.0883
0
LINE
8
BLACK
6
CONTINUOUS
10
119.865
20
-89.0883
11
119.765
21
-88.8469
0
LINE
8
BLACK
6
CONTINUOUS
10
119.765
20
-88.8469
11
119.714
21
-88.5906
0
LINE
8
BLACK
6
CONTINUOUS
10
119.714
20
-88.5906
11
119.714
21
-88.3294
0
LINE
8
BLACK
6
CONTINUOUS
10
119.714
20
-88.3294
11
119.765
21
-88.0731
0
LINE
8
BLACK
6
CONTINUOUS
10
119.765
20
-88.0731
11
119.865
21
-87.8317
0
LINE
8
BLACK
6
CONTINUOUS
10
119.865
20
-87.8317
11
120.01
21
-87.6145
0
LINE
8
BLACK
6
CONTINUOUS
10
120.01
20
-87.6145
11
120.195
21
-87.4298
0
LINE
8
BLACK
6
CONTINUOUS
10
120.195
20
-87.4298
11
120.412
21
-87.2846
0
LINE
8
BLACK
6
CONTINUOUS
10
120.412
20
-87.2846
11
120.653
21
-87.1846
0
LINE
8
BLACK
6
CONTINUOUS
10
120.653
20
-87.1846
11
120.909
21
-87.1337
0
LINE
8
BLACK
6
CONTINUOUS
10
120.909
20
-87.1337
11
121.171
21
-87.1337
0
LINE
8
BLACK
6
CONTINUOUS
10
121.171
20
-87.1337
11
121.427
21
-87.1846
0
LINE
8
BLACK
6
CONTINUOUS
10
172.831
20
-88.2733
11
172.864
21
-88.2831
0
LINE
8
BLACK
6
CONTINUOUS
10
172.864
20
-88.2831
11
172.893
21
-88.2991
0
LINE
8
BLACK
6
CONTINUOUS
10
172.893
20
-88.2991
11
172.919
21
-88.3205
0
LINE
8
BLACK
6
CONTINUOUS
10
172.919
20
-88.3205
11
172.941
21
-88.3467
0
LINE
8
BLACK
6
CONTINUOUS
10
172.941
20
-88.3467
11
172.957
21
-88.3765
0
LINE
8
BLACK
6
CONTINUOUS
10
172.957
20
-88.3765
11
172.967
21
-88.4088
0
LINE
8
BLACK
6
CONTINUOUS
10
172.967
20
-88.4088
11
172.97
21
-88.4425
0
LINE
8
BLACK
6
CONTINUOUS
10
172.97
20
-88.4425
11
172.97
21
-88.7875
0
LINE
8
BLACK
6
CONTINUOUS
10
172.97
20
-88.7875
11
172.967
21
-88.8212
0
LINE
8
BLACK
6
CONTINUOUS
10
172.967
20
-88.8212
11
172.957
21
-88.8535
0
LINE
8
BLACK
6
CONTINUOUS
10
172.957
20
-88.8535
11
172.941
21
-88.8833
0
LINE
8
BLACK
6
CONTINUOUS
10
172.941
20
-88.8833
11
172.919
21
-88.9095
0
LINE
8
BLACK
6
CONTINUOUS
10
172.919
20
-88.9095
11
172.893
21
-88.9309
0
LINE
8
BLACK
6
CONTINUOUS
10
172.893
20
-88.9309
11
172.864
21
-88.9469
0
LINE
8
BLACK
6
CONTINUOUS
10
172.864
20
-88.9469
11
172.831
21
-88.9567
0
LINE
8
BLACK
6
CONTINUOUS
10
172.831
20
-88.9567
11
172.797
21
-88.96
0
LINE
8
BLACK
6
CONTINUOUS
10
172.797
20
-88.96
11
172.403
21
-88.96
0
LINE
8
BLACK
6
CONTINUOUS
10
172.403
20
-88.96
11
172.369
21
-88.9567
0
LINE
8
BLACK
6
CONTINUOUS
10
172.369
20
-88.9567
11
172.336
21
-88.9469
0
LINE
8
BLACK
6
CONTINUOUS
10
172.336
20
-88.9469
11
172.307
21
-88.9309
0
LINE
8
BLACK
6
CONTINUOUS
10
172.307
20
-88.9309
11
172.281
21
-88.9095
0
LINE
8
BLACK
6
CONTINUOUS
10
172.281
20
-88.9095
11
172.259
21
-88.8833
0
LINE
8
BLACK
6
CONTINUOUS
10
172.259
20
-88.8833
11
172.243
21
-88.8535
0
LINE
8
BLACK
6
CONTINUOUS
10
172.243
20
-88.8535
11
172.233
21
-88.8212
0
LINE
8
BLACK
6
CONTINUOUS
10
172.233
20
-88.8212
11
172.23
21
-88.7875
0
LINE
8
BLACK
6
CONTINUOUS
10
172.23
20
-88.7875
11
172.23
21
-88.4425
0
LINE
8
BLACK
6
CONTINUOUS
10
172.23
20
-88.4425
11
172.233
21
-88.4088
0
LINE
8
BLACK
6
CONTINUOUS
10
172.233
20
-88.4088
11
172.243
21
-88.3765
0
LINE
8
BLACK
6
CONTINUOUS
10
172.243
20
-88.3765
11
172.259
21
-88.3467
0
LINE
8
BLACK
6
CONTINUOUS
10
172.259
20
-88.3467
11
172.281
21
-88.3205
0
LINE
8
BLACK
6
CONTINUOUS
10
172.281
20
-88.3205
11
172.307
21
-88.2991
0
LINE
8
BLACK
6
CONTINUOUS
10
172.307
20
-88.2991
11
172.336
21
-88.2831
0
LINE
8
BLACK
6
CONTINUOUS
10
172.336
20
-88.2831
11
172.369
21
-88.2733
0
LINE
8
BLACK
6
CONTINUOUS
10
172.369
20
-88.2733
11
172.403
21
-88.27
0
LINE
8
BLACK
6
CONTINUOUS
10
172.403
20
-88.27
11
172.797
21
-88.27
0
LINE
8
BLACK
6
CONTINUOUS
10
172.797
20
-88.27
11
172.831
21
-88.2733
0
LINE
8
BLACK
6
CONTINUOUS
10
186.487
20
-87.0901
11
186.619
21
-87.1302
0
LINE
8
BLACK
6
CONTINUOUS
10
186.619
20
-87.1302
11
186.741
21
-87.1952
0
LINE
8
BLACK
6
CONTINUOUS
10
186.741
20
-87.1952
11
186.847
21
-87.2826
0
LINE
8
BLACK
6
CONTINUOUS
10
186.847
20
-87.2826
11
186.935
21
-87.3892
0
LINE
8
BLACK
6
CONTINUOUS
10
186.935
20
-87.3892
11
187
21
-87.5108
0
LINE
8
BLACK
6
CONTINUOUS
10
187
20
-87.5108
11
187.04
21
-87.6428
0
LINE
8
BLACK
6
CONTINUOUS
10
187.04
20
-87.6428
11
187.053
21
-87.78
0
LINE
8
BLACK
6
CONTINUOUS
10
187.053
20
-87.78
11
187.04
21
-87.9172
0
LINE
8
BLACK
6
CONTINUOUS
10
187.04
20
-87.9172
11
187
21
-88.0492
0
LINE
8
BLACK
6
CONTINUOUS
10
187
20
-88.0492
11
186.935
21
-88.1708
0
LINE
8
BLACK
6
CONTINUOUS
10
186.935
20
-88.1708
11
186.847
21
-88.2774
0
LINE
8
BLACK
6
CONTINUOUS
10
186.847
20
-88.2774
11
186.741
21
-88.3648
0
LINE
8
BLACK
6
CONTINUOUS
10
186.741
20
-88.3648
11
186.619
21
-88.4298
0
LINE
8
BLACK
6
CONTINUOUS
10
186.619
20
-88.4298
11
186.487
21
-88.4699
0
LINE
8
BLACK
6
CONTINUOUS
10
186.487
20
-88.4699
11
186.384
21
-88.48
0
LINE
8
BLACK
6
CONTINUOUS
10
186.384
20
-88.48
11
185.016
21
-88.48
0
LINE
8
BLACK
6
CONTINUOUS
10
185.016
20
-88.48
11
184.913
21
-88.4699
0
LINE
8
BLACK
6
CONTINUOUS
10
184.913
20
-88.4699
11
184.781
21
-88.4298
0
LINE
8
BLACK
6
CONTINUOUS
10
184.781
20
-88.4298
11
184.659
21
-88.3648
0
LINE
8
BLACK
6
CONTINUOUS
10
184.659
20
-88.3648
11
184.553
21
-88.2774
0
LINE
8
BLACK
6
CONTINUOUS
10
184.553
20
-88.2774
11
184.465
21
-88.1708
0
LINE
8
BLACK
6
CONTINUOUS
10
184.465
20
-88.1708
11
184.4
21
-88.0492
0
LINE
8
BLACK
6
CONTINUOUS
10
184.4
20
-88.0492
11
184.36
21
-87.9172
0
LINE
8
BLACK
6
CONTINUOUS
10
184.36
20
-87.9172
11
184.347
21
-87.78
0
LINE
8
BLACK
6
CONTINUOUS
10
184.347
20
-87.78
11
184.36
21
-87.6428
0
LINE
8
BLACK
6
CONTINUOUS
10
184.36
20
-87.6428
11
184.4
21
-87.5108
0
LINE
8
BLACK
6
CONTINUOUS
10
184.4
20
-87.5108
11
184.465
21
-87.3892
0
LINE
8
BLACK
6
CONTINUOUS
10
184.465
20
-87.3892
11
184.553
21
-87.2826
0
LINE
8
BLACK
6
CONTINUOUS
10
184.553
20
-87.2826
11
184.659
21
-87.1952
0
LINE
8
BLACK
6
CONTINUOUS
10
184.659
20
-87.1952
11
184.781
21
-87.1302
0
LINE
8
BLACK
6
CONTINUOUS
10
184.781
20
-87.1302
11
184.913
21
-87.0901
0
LINE
8
BLACK
6
CONTINUOUS
10
184.913
20
-87.0901
11
185.016
21
-87.08
0
LINE
8
BLACK
6
CONTINUOUS
10
185.016
20
-87.08
11
186.384
21
-87.08
0
LINE
8
BLACK
6
CONTINUOUS
10
186.384
20
-87.08
11
186.487
21
-87.0901
0
LINE
8
BLACK
6
CONTINUOUS
10
181.008
20
-87.1887
11
181.121
21
-87.223
0
LINE
8
BLACK
6
CONTINUOUS
10
181.121
20
-87.223
11
181.225
21
-87.2787
0
LINE
8
BLACK
6
CONTINUOUS
10
181.225
20
-87.2787
11
181.316
21
-87.3537
0
LINE
8
BLACK
6
CONTINUOUS
10
181.316
20
-87.3537
11
181.391
21
-87.445
0
LINE
8
BLACK
6
CONTINUOUS
10
181.391
20
-87.445
11
181.447
21
-87.5493
0
LINE
8
BLACK
6
CONTINUOUS
10
181.447
20
-87.5493
11
181.481
21
-87.6624
0
LINE
8
BLACK
6
CONTINUOUS
10
181.481
20
-87.6624
11
181.493
21
-87.78
0
LINE
8
BLACK
6
CONTINUOUS
10
181.493
20
-87.78
11
181.481
21
-87.8976
0
LINE
8
BLACK
6
CONTINUOUS
10
181.481
20
-87.8976
11
181.447
21
-88.0107
0
LINE
8
BLACK
6
CONTINUOUS
10
181.447
20
-88.0107
11
181.391
21
-88.115
0
LINE
8
BLACK
6
CONTINUOUS
10
181.391
20
-88.115
11
181.316
21
-88.2063
0
LINE
8
BLACK
6
CONTINUOUS
10
181.316
20
-88.2063
11
181.225
21
-88.2813
0
LINE
8
BLACK
6
CONTINUOUS
10
181.225
20
-88.2813
11
181.121
21
-88.337
0
LINE
8
BLACK
6
CONTINUOUS
10
181.121
20
-88.337
11
181.008
21
-88.3713
0
LINE
8
BLACK
6
CONTINUOUS
10
181.008
20
-88.3713
11
180.919
21
-88.38
0
LINE
8
BLACK
6
CONTINUOUS
10
180.919
20
-88.38
11
179.761
21
-88.38
0
LINE
8
BLACK
6
CONTINUOUS
10
179.761
20
-88.38
11
179.672
21
-88.3713
0
LINE
8
BLACK
6
CONTINUOUS
10
179.672
20
-88.3713
11
179.559
21
-88.337
0
LINE
8
BLACK
6
CONTINUOUS
10
179.559
20
-88.337
11
179.455
21
-88.2813
0
LINE
8
BLACK
6
CONTINUOUS
10
179.455
20
-88.2813
11
179.364
21
-88.2063
0
LINE
8
BLACK
6
CONTINUOUS
10
179.364
20
-88.2063
11
179.289
21
-88.115
0
LINE
8
BLACK
6
CONTINUOUS
10
179.289
20
-88.115
11
179.233
21
-88.0107
0
LINE
8
BLACK
6
CONTINUOUS
10
179.233
20
-88.0107
11
179.199
21
-87.8976
0
LINE
8
BLACK
6
CONTINUOUS
10
179.199
20
-87.8976
11
179.187
21
-87.78
0
LINE
8
BLACK
6
CONTINUOUS
10
179.187
20
-87.78
11
179.199
21
-87.6624
0
LINE
8
BLACK
6
CONTINUOUS
10
179.199
20
-87.6624
11
179.233
21
-87.5493
0
LINE
8
BLACK
6
CONTINUOUS
10
179.233
20
-87.5493
11
179.289
21
-87.445
0
LINE
8
BLACK
6
CONTINUOUS
10
179.289
20
-87.445
11
179.364
21
-87.3537
0
LINE
8
BLACK
6
CONTINUOUS
10
179.364
20
-87.3537
11
179.455
21
-87.2787
0
LINE
8
BLACK
6
CONTINUOUS
10
179.455
20
-87.2787
11
179.559
21
-87.223
0
LINE
8
BLACK
6
CONTINUOUS
10
179.559
20
-87.223
11
179.672
21
-87.1887
0
LINE
8
BLACK
6
CONTINUOUS
10
179.672
20
-87.1887
11
179.761
21
-87.18
0
LINE
8
BLACK
6
CONTINUOUS
10
179.761
20
-87.18
11
180.919
21
-87.18
0
LINE
8
BLACK
6
CONTINUOUS
10
180.919
20
-87.18
11
181.008
21
-87.1887
0
LINE
8
BLACK
6
CONTINUOUS
10
118.448
20
-79.3749
11
119.039
21
-79.6199
0
LINE
8
BLACK
6
CONTINUOUS
10
119.039
20
-79.6199
11
119.572
21
-79.9756
0
LINE
8
BLACK
6
CONTINUOUS
10
119.572
20
-79.9756
11
120.024
21
-80.4282
0
LINE
8
BLACK
6
CONTINUOUS
10
120.024
20
-80.4282
11
120.38
21
-80.9605
0
LINE
8
BLACK
6
CONTINUOUS
10
120.38
20
-80.9605
11
120.625
21
-81.552
0
LINE
8
BLACK
6
CONTINUOUS
10
120.625
20
-81.552
11
120.75
21
-82.1799
0
LINE
8
BLACK
6
CONTINUOUS
10
120.75
20
-82.1799
11
120.75
21
-82.8201
0
LINE
8
BLACK
6
CONTINUOUS
10
120.75
20
-82.8201
11
120.625
21
-83.448
0
LINE
8
BLACK
6
CONTINUOUS
10
120.625
20
-83.448
11
120.38
21
-84.0395
0
LINE
8
BLACK
6
CONTINUOUS
10
120.38
20
-84.0395
11
120.024
21
-84.5718
0
LINE
8
BLACK
6
CONTINUOUS
10
120.024
20
-84.5718
11
119.572
21
-85.0244
0
LINE
8
BLACK
6
CONTINUOUS
10
119.572
20
-85.0244
11
119.039
21
-85.3801
0
LINE
8
BLACK
6
CONTINUOUS
10
119.039
20
-85.3801
11
118.448
21
-85.6251
0
LINE
8
BLACK
6
CONTINUOUS
10
118.448
20
-85.6251
11
117.82
21
-85.75
0
LINE
8
BLACK
6
CONTINUOUS
10
117.82
20
-85.75
11
117.18
21
-85.75
0
LINE
8
BLACK
6
CONTINUOUS
10
117.18
20
-85.75
11
116.552
21
-85.6251
0
LINE
8
BLACK
6
CONTINUOUS
10
116.552
20
-85.6251
11
115.961
21
-85.3801
0
LINE
8
BLACK
6
CONTINUOUS
10
115.961
20
-85.3801
11
115.428
21
-85.0244
0
LINE
8
BLACK
6
CONTINUOUS
10
115.428
20
-85.0244
11
114.976
21
-84.5718
0
LINE
8
BLACK
6
CONTINUOUS
10
114.976
20
-84.5718
11
114.62
21
-84.0395
0
LINE
8
BLACK
6
CONTINUOUS
10
114.62
20
-84.0395
11
114.375
21
-83.448
0
LINE
8
BLACK
6
CONTINUOUS
10
114.375
20
-83.448
11
114.25
21
-82.8201
0
LINE
8
BLACK
6
CONTINUOUS
10
114.25
20
-82.8201
11
114.25
21
-82.1799
0
LINE
8
BLACK
6
CONTINUOUS
10
114.25
20
-82.1799
11
114.375
21
-81.552
0
LINE
8
BLACK
6
CONTINUOUS
10
114.375
20
-81.552
11
114.62
21
-80.9605
0
LINE
8
BLACK
6
CONTINUOUS
10
114.62
20
-80.9605
11
114.976
21
-80.4282
0
LINE
8
BLACK
6
CONTINUOUS
10
114.976
20
-80.4282
11
115.428
21
-79.9756
0
LINE
8
BLACK
6
CONTINUOUS
10
115.428
20
-79.9756
11
115.961
21
-79.6199
0
LINE
8
BLACK
6
CONTINUOUS
10
115.961
20
-79.6199
11
116.552
21
-79.3749
0
LINE
8
BLACK
6
CONTINUOUS
10
116.552
20
-79.3749
11
117.18
21
-79.25
0
LINE
8
BLACK
6
CONTINUOUS
10
117.18
20
-79.25
11
117.82
21
-79.25
0
LINE
8
BLACK
6
CONTINUOUS
10
117.82
20
-79.25
11
118.448
21
-79.3749
0
LINE
8
BLACK
6
CONTINUOUS
10
185.448
20
-79.3749
11
186.039
21
-79.6199
0
LINE
8
BLACK
6
CONTINUOUS
10
186.039
20
-79.6199
11
186.572
21
-79.9756
0
LINE
8
BLACK
6
CONTINUOUS
10
186.572
20
-79.9756
11
187.024
21
-80.4282
0
LINE
8
BLACK
6
CONTINUOUS
10
187.024
20
-80.4282
11
187.38
21
-80.9605
0
LINE
8
BLACK
6
CONTINUOUS
10
187.38
20
-80.9605
11
187.625
21
-81.552
0
LINE
8
BLACK
6
CONTINUOUS
10
187.625
20
-81.552
11
187.75
21
-82.1799
0
LINE
8
BLACK
6
CONTINUOUS
10
187.75
20
-82.1799
11
187.75
21
-82.8201
0
LINE
8
BLACK
6
CONTINUOUS
10
187.75
20
-82.8201
11
187.625
21
-83.448
0
LINE
8
BLACK
6
CONTINUOUS
10
187.625
20
-83.448
11
187.38
21
-84.0395
0
LINE
8
BLACK
6
CONTINUOUS
10
187.38
20
-84.0395
11
187.024
21
-84.5718
0
LINE
8
BLACK
6
CONTINUOUS
10
187.024
20
-84.5718
11
186.572
21
-85.0244
0
LINE
8
BLACK
6
CONTINUOUS
10
186.572
20
-85.0244
11
186.039
21
-85.3801
0
LINE
8
BLACK
6
CONTINUOUS
10
186.039
20
-85.3801
11
185.448
21
-85.6251
0
LINE
8
BLACK
6
CONTINUOUS
10
185.448
20
-85.6251
11
184.82
21
-85.75
0
LINE
8
BLACK
6
CONTINUOUS
10
184.82
20
-85.75
11
184.18
21
-85.75
0
LINE
8
BLACK
6
CONTINUOUS
10
184.18
20
-85.75
11
183.552
21
-85.6251
0
LINE
8
BLACK
6
CONTINUOUS
10
183.552
20
-85.6251
11
182.961
21
-85.3801
0
LINE
8
BLACK
6
CONTINUOUS
10
182.961
20
-85.3801
11
182.428
21
-85.0244
0
LINE
8
BLACK
6
CONTINUOUS
10
182.428
20
-85.0244
11
181.976
21
-84.5718
0
LINE
8
BLACK
6
CONTINUOUS
10
181.976
20
-84.5718
11
181.62
21
-84.0395
0
LINE
8
BLACK
6
CONTINUOUS
10
181.62
20
-84.0395
11
181.375
21
-83.448
0
LINE
8
BLACK
6
CONTINUOUS
10
181.375
20
-83.448
11
181.25
21
-82.8201
0
LINE
8
BLACK
6
CONTINUOUS
10
181.25
20
-82.8201
11
181.25
21
-82.1799
0
LINE
8
BLACK
6
CONTINUOUS
10
181.25
20
-82.1799
11
181.375
21
-81.552
0
LINE
8
BLACK
6
CONTINUOUS
10
181.375
20
-81.552
11
181.62
21
-80.9605
0
LINE
8
BLACK
6
CONTINUOUS
10
181.62
20
-80.9605
11
181.976
21
-80.4282
0
LINE
8
BLACK
6
CONTINUOUS
10
181.976
20
-80.4282
11
182.428
21
-79.9756
0
LINE
8
BLACK
6
CONTINUOUS
10
182.428
20
-79.9756
11
182.961
21
-79.6199
0
LINE
8
BLACK
6
CONTINUOUS
10
182.961
20
-79.6199
11
183.552
21
-79.3749
0
LINE
8
BLACK
6
CONTINUOUS
10
183.552
20
-79.3749
11
184.18
21
-79.25
0
LINE
8
BLACK
6
CONTINUOUS
10
184.18
20
-79.25
11
184.82
21
-79.25
0
LINE
8
BLACK
6
CONTINUOUS
10
184.82
20
-79.25
11
185.448
21
-79.3749
  0
ENDSEC
  0
EOF
